<svg id="Layer_2" data-name="Layer 2" xmlns="http://www.w3.org/2000/svg" viewBox="0 0 672.71 793.35"><defs><style>.cls-3,.cls-4,.cls-6{stroke-width:0}.cls-3{fill:#fff}.cls-4{fill:#f1f2f2}.cls-6{fill:#d8a216}</style></defs><g id="Layer_1-2" data-name="Layer 1"><path class="cls-6" d="M517.61 226.69c0 85.17-47.67 159.37-118.14 198.12-33.13 18.21-71.29 28.59-111.92 28.59s-78.79-10.37-111.92-28.59A230.098 230.098 0 0 1 124.87 387c-41.64-41.03-67.38-97.71-67.38-160.31C57.49 101.5 160.49 0 287.55 0s230.06 101.5 230.06 226.69Z"/><path class="cls-6" d="M575.1 581.62v211.73H0V581.62c0-86.6 70.2-156.8 156.8-156.8h261.49c86.6 0 156.8 70.2 156.8 156.8Z"/><path d="M575.1 581.62v211.73H287.55V0c127.06 0 230.06 101.5 230.06 226.69 0 85.17-47.67 159.37-118.14 198.12h18.83c86.6 0 156.8 70.2 156.8 156.8Z" style="stroke-width:0;fill:#ca960f"/><path d="M553.61 542.25v238.21c-65.79 0-119.11-53.33-119.11-119.1s53.33-119.11 119.11-119.11Z" style="fill:#3eb54a;stroke-width:0"/><path d="M672.71 661.36c0 65.78-53.33 119.1-119.1 119.1v-21.92h8.45c5.81 0 10.52-4.71 10.52-10.52v-67.7h67.7c5.81 0 10.52-4.71 10.52-10.52v-16.88c0-5.81-4.71-10.52-10.52-10.52h-67.7v-67.7c0-5.81-4.71-10.52-10.52-10.52h-8.45v-21.92c65.78 0 119.1 53.33 119.1 119.11Z" style="fill:#39aa45;stroke-width:0"/><path class="cls-3" d="M553.61 642.39v37.92h-86.67c-5.81 0-10.52-4.71-10.52-10.52v-16.88c0-5.81 4.71-10.52 10.52-10.52h86.67Z"/><path class="cls-4" d="M650.79 652.91v16.88c0 5.81-4.71 10.52-10.52 10.52h-67.7v-37.92h67.7c5.81 0 10.52 4.71 10.52 10.52Z"/><path class="cls-4" d="M572.57 574.69v67.7h-18.96v-78.22h8.45c5.81 0 10.52 4.71 10.52 10.52Z"/><path class="cls-4" d="M553.61 642.39h18.96v37.92h-18.96zM572.57 680.32v67.7c0 5.81-4.71 10.52-10.52 10.52h-8.45v-78.22h18.96Z"/><path class="cls-3" d="M553.61 564.17v194.37h-8.45c-5.81 0-10.52-4.71-10.52-10.52V574.69c0-5.81 4.71-10.52 10.52-10.52h8.45Z"/></g></svg>