<svg id="Layer_2" data-name="Layer 2" xmlns="http://www.w3.org/2000/svg" viewBox="0 0 514.82 512.75"><defs><style>.cls-10,.cls-11,.cls-2,.cls-3,.cls-7{stroke-width:0}.cls-2{fill:#ebb863}.cls-3{fill:#62bc4f}.cls-7{fill:#54360d}.cls-10{fill:#8b5a23}.cls-11{fill:#1fb159}</style></defs><g id="Capa_1" data-name="Capa 1"><path style="fill:#75d1f5;stroke-width:0" d="M0 0h513.39v270.1H0z"/><path d="M484.36.39c0 .28 0 .57-.01.85-.19 26.78-9.69 51.35-25.42 70.64-20.76 25.46-52.37 41.72-87.78 41.72-5.42 0-10.75-.38-15.97-1.12-54.96-7.76-97.24-54.99-97.24-112.09 0-.13 0-.26.01-.39h226.4c.01.13.01.26.01.39Z" style="fill:#faf066;stroke-width:0"/><path style="fill:#9dd08b;stroke-width:0" d="M0 242.65h513.39v270.1H0z"/><path class="cls-10" d="m86.18 325.44.32 126.83c.03 3.74 1.18 6.74 2.59 6.74h66.14c1.67 0 2.5-2.17 2.5-6.5l-.19-191.33c-.22-2.89-.62-5.58-1.2-8.06-.49-2.33-1.31-4.09-2.45-5.29-21.66-23.34-34.99 20.46-50.26 61.97-2.16 5.86-7.98 11.07-17.45 15.64Z"/><path class="cls-11" d="M514.82 64.47c-.23.43-.46.85-.7 1.25-.16.27-.32.54-.49.8-.08.13-.16.25-.24.37a.36.36 0 0 1-.07.1c-.16.25-.32.48-.49.72-.13.2-.27.39-.42.58-.15.19-.29.37-.43.55l-.44.53c-.14.17-.29.34-.45.5-.13.15-.26.28-.4.42-.33.35-.67.67-1.02.96-.14.13-.28.25-.43.36-.58.47-1.18.88-1.8 1.22-.13.08-.27.15-.4.22-.44.23-.89.43-1.34.6-.17.05-.33.11-.5.16-.21.07-.42.13-.63.18-.51.14-1.03.23-1.56.29-.99.09-1.99-.12-2.87-.6L482.37 63.4a9.771 9.771 0 0 0-10 .14l-13.44 8.34-.81.5c-3.15 1.94-7.08 2.16-10.46.6-7.13-3.27-14.58-6.8-22.36-10.59-16.8-8.24-40.82 26.28-50.4 8.65-.77-1.45-.99-2.98-.65-4.58 1.33-6.11.3-10.03-3.1-11.76 9.9-18.25 19.44-36.49 28.61-54.7h84.04c.18.41.37.82.55 1.24 9.08 20.32 18.76 40.47 29.04 60.46.48.92.95 1.85 1.43 2.77Z"/><path class="cls-3" d="M513.32 66.99s.05-.06.07-.1v52.68c-36.02-1.16-71.93-.82-108.08-1.37-24.93-.4-45.47 5.22-61.6 16.85 2.99-5.95 6.72-13.3 11.2-22.03l.27-.54c6.15-12.19 11.48-31.45 15.97-57.78 3.4 1.73 4.43 5.65 3.1 11.76-.34 1.6-.12 3.13.65 4.58 9.58 17.63 33.6-16.89 50.4-8.65 7.78 3.79 15.23 7.32 22.36 10.59 3.38 1.56 7.31 1.34 10.46-.6l.81-.5 13.44-8.34a9.771 9.771 0 0 1 10-.14l17.77 10.28c.88.48 1.88.69 2.87.6.53-.06 1.05-.15 1.56-.29.21-.05.42-.11.63-.18.17-.05.33-.1.5-.16.45-.17.9-.37 1.34-.6.13-.07.27-.14.4-.22.62-.34 1.22-.75 1.8-1.22.15-.11.29-.23.43-.36.35-.29.69-.61 1.02-.96.14-.13.28-.27.4-.42.16-.16.31-.33.45-.5.15-.17.3-.35.44-.53.15-.18.29-.36.43-.55.15-.19.29-.38.42-.58.17-.23.34-.47.49-.72Z"/><path class="cls-11" d="M513.97 165.22c-.2-.02-.39-.03-.58-.03-.05-.01-.09-.01-.14-.01h-.04c-.19 0-.4.01-.59.03-.23.01-.46.05-.68.09a7.4 7.4 0 0 0-.64.15l-.3.09-.27.09c-.22.08-.44.18-.66.29-.17.08-.34.17-.51.27-.24.15-.48.3-.7.49-.16.12-.32.26-.48.4-.13.12-.26.25-.38.37-.12.13-.24.27-.35.41-.12.14-.22.28-.32.43l-.12.18c-.06.09-.12.18-.17.27l-13.42 23.24c-2.37 4.09-7.5 5.65-11.71 3.56-9.77-4.81-17.27-20.73-22.59-27.03a4.891 4.891 0 0 0-3.98-1.71c-12.08.79-24.44 15.51-36.15 27.17-.37.37-.77.72-1.19 1.05-.07.06-.15.11-.22.16-.16.12-.33.24-.5.35-.17.11-.34.22-.52.32-.34.21-.7.4-1.06.56-.18.09-.37.17-.55.24-.18.08-.37.15-.55.21-.19.07-.38.13-.57.18-.23.07-.47.14-.71.19-.72.16-1.44.26-2.18.3-.19.02-.38.02-.57.02-.2 0-.4 0-.6-.02-.26-.01-.51-.03-.77-.06-.06-.01-.13-.01-.19-.03-.22-.02-.44-.05-.66-.09-.07-.02-.14-.03-.21-.05-.16-.03-.33-.06-.49-.11-.25-.06-.49-.13-.74-.21-.04 0-.07-.01-.11-.03-.22-.07-.44-.14-.66-.23-.02-.01-.05-.02-.07-.03a6.83 6.83 0 0 1-.62-.27c-.53-.23-1.04-.52-1.53-.84-.14-.08-.27-.17-.4-.27-.41-.28-.8-.6-1.17-.94a8.13 8.13 0 0 1-.52-.5c-.34-.34-.66-.71-.96-1.1-8.1-10.56-20.74-29.21-33.98-25.88-2.77.68-6.72 3.6-11.84 8.75-6.64 6.63-11.76 10.71-15.37 12.22-10.86 4.6-17.43.4-19.72-12.59l23.75-40.22c16.13-11.63 36.67-17.25 61.6-16.85 36.15.55 72.06.21 108.08 1.37v45.61c.19.01.38.02.58.04Z"/><path class="cls-3" d="M513.39 165.18c.19.01.38.02.58.04-.2-.02-.39-.03-.58-.03v47.82c-1.92.06-3.8.1-5.65.14-1.24.03-2.45.06-3.66.08-1.22.03-2.43.05-3.62.07-.98.02-1.95.03-2.91.04-13.59.19-25.06.07-34.39-.35-16.89-.74-30.03-.28-45.31.14-7.31.22-18.56-.35-33.74-1.71-24.93-2.19-49.55.34-73.87 7.59l3.66-8.66c.38-.87.31-1.89-.19-2.73l-3.98-6.38c-.86-1.39-1.14-2.91-.83-4.54 1.42-7.62 5.11-14.76 11.06-21.43 2.29 12.99 8.86 17.19 19.72 12.59 3.61-1.51 8.73-5.59 15.37-12.22 5.12-5.15 9.07-8.07 11.84-8.75 13.24-3.33 25.88 15.32 33.98 25.88.3.39.62.76.96 1.1.17.18.34.34.52.5.37.34.76.66 1.17.94.13.1.26.19.4.27.49.32 1 .61 1.53.84.2.1.41.19.62.27.02.01.05.02.07.03.22.09.44.16.66.23.04.02.07.03.11.03.25.09.49.16.74.21.16.05.33.08.49.11.07.02.14.03.21.05.22.04.44.07.66.09.06.02.13.02.19.03.26.03.51.05.77.06.2.01.4.02.6.02s.38 0 .57-.02c.73-.03 1.46-.13 2.18-.3.24-.05.48-.12.71-.19.19-.05.38-.11.57-.18.18-.06.37-.13.55-.21.18-.07.37-.15.55-.24.36-.16.72-.35 1.06-.56.18-.1.35-.21.52-.32.17-.11.34-.23.5-.35.07-.05.15-.1.22-.16.42-.33.82-.68 1.19-1.05 11.71-11.66 24.07-26.38 36.15-27.17 1.52-.08 2.99.55 3.98 1.71 5.32 6.3 12.82 22.22 22.59 27.03 4.21 2.09 9.34.53 11.71-3.56l13.42-23.24c.05-.09.11-.18.17-.27l.12-.18c.1-.15.2-.29.32-.43.11-.14.23-.28.35-.41.12-.12.25-.25.38-.37.16-.14.32-.28.48-.4.22-.19.46-.34.7-.49.17-.1.34-.19.51-.27.22-.11.44-.21.66-.29l.27-.09.3-.09c.21-.06.43-.11.64-.15.22-.04.45-.08.68-.09.19-.02.4-.03.59-.03h.18Z"/><path class="cls-11" d="M507.74 213.15c1.85-.04 3.73-.08 5.65-.14v56.11c-.26.12-.52.24-.77.36-.15.07-.3.15-.45.23-.25.13-.49.26-.74.39-1.01.56-2.02 1.2-3.03 1.93-.29.21-.58.43-.87.66-.36.29-.73.59-1.1.9-.29.25-.59.51-.88.78l-.24.21c-.28.27-.57.54-.85.82-.33.32-.65.66-.98 1-2.57 2.71-7.56 7-15 12.87-8.61 6.81-17.62 7.12-27.03.92-7.44-4.9-14.89-9.83-22.35-14.76-7.81-5.19-17.02-5.22-27.64-.1l-34.71 16.71c-15.09 8.01-29.94-7.87-39.89-17.12-.24-.23-.49-.44-.73-.65s-.49-.41-.73-.6c-.45-.36-.9-.69-1.35-.99-.28-.19-.56-.36-.84-.53-.19-.11-.38-.22-.56-.32-.49-.27-.98-.51-1.48-.72-.17-.08-.34-.15-.51-.21-.22-.09-.45-.17-.68-.25-.34-.12-.68-.22-1.02-.3-.14-.04-.27-.07-.41-.1-.24-.06-.48-.11-.72-.15-.23-.04-.45-.08-.68-.11-.44-.06-.87-.1-1.3-.12h-.07c-.47-.02-.93-.02-1.4 0-.71.03-1.42.11-2.14.23-.29.06-.58.11-.88.18s-.6.14-.89.22c-.16.05-.33.09-.49.14-.24.07-.48.15-.71.23-.49.16-.98.34-1.47.55-.3.12-.59.25-.89.38-.29.13-.58.27-.88.42-.29.14-.58.29-.87.45-.57.31-1.15.64-1.73.99-1.11.68-2.21 1.43-3.29 2.24-.25.18-.5.37-.75.57-.42.32-.84.65-1.25.99-.7.57-1.4 1.17-2.09 1.78-.36.31-.72.63-1.07.96-.64.59-1.28 1.19-1.91 1.8-2.59 2.5-4.75 4.15-6.48 4.95-9.12 4.12-19.3-.41-19.39-10.6v-.12c0-.21.01-.42.03-.63.01-.19.03-.38.06-.58.02-.2.05-.4.1-.6.04-.25.09-.5.16-.76.04-.19.09-.38.15-.58.05-.18.11-.37.17-.56.07-.21.15-.43.23-.65 0-.02.01-.05.02-.08.1-.25.19-.5.3-.75.12-.31.25-.62.4-.94.3-.67.64-1.37 1.03-2.09.15-.28.31-.57.47-.86l.45-.78c.59-1 1.25-2.04 1.98-3.12 2.21-3.27 4.2-6.62 5.99-10.06.77-1.49 1.51-2.99 2.19-4.5.92-1.98 1.77-4 2.54-6.04.01-.01.01-.03.02-.04l.11-.15 5.08-7.17 11.56-16.28c24.32-7.25 48.94-9.78 73.87-7.59 15.18 1.36 26.43 1.93 33.74 1.71 15.28-.42 28.42-.88 45.31-.14 9.33.42 20.8.54 34.39.35.96-.01 1.93-.02 2.91-.04 1.19-.02 2.4-.04 3.62-.07 1.2-.02 2.42-.05 3.66-.08Z"/><path class="cls-3" d="M513.39 269.12v128.4h-.06c-4.04.06-8.42 2.13-13.14 6.2-7.99 6.88-15.3 14.03-21.94 21.43-9.47-1.76-15.29-3.76-17.45-6.01-15.27-15.97-28.6-32.82-50.26-23.84-1.14.46-1.96 1.14-2.45 2.04-.59.95-.99 1.99-1.21 3.1.1-.71.02-1.31-.23-1.81-.55-1.23-1.37-1.43-2.45-.6-7.5 5.74-15.01 10.97-22.54 15.69-12.87 8.05-25.44 8.32-37.72.79-13.33-8.18-22.91-14.03-28.74-17.54-23.52-14.2-40.36-.32-59.55 9.74-7.58 3.98-15.53 7.36-24.41 8.17a9.63 9.63 0 0 1-3.99-.49c-2.73-.95-4.93-3.09-5.9-5.85-.24-.71-.4-1.45-.48-2.22-.62-5.93.79-12.04 4.21-18.33 12.4-22.86 28.75-49.93 49.07-81.23.3-.47.61-.95.92-1.43.8-1.27.54-2.24-.79-2.92-5.37-2.78-8.7-6.27-9.96-10.46-1.29-4.24-.48-9.21 2.42-14.9 1.19-2.33 2.49-4.64 3.9-6.95 5.76-9.39 13.36-18.54 22.81-27.45l.04-.04c-.01.01-.01.03-.02.04-.77 2.04-1.62 4.06-2.54 6.04-.68 1.52-1.42 3.01-2.19 4.5-1.79 3.44-3.78 6.79-5.99 10.06-.73 1.08-1.39 2.12-1.98 3.12l-.45.78c-.16.29-.32.58-.47.86-.39.72-.73 1.42-1.03 2.09-.15.32-.28.63-.4.94-.11.26-.21.51-.3.75a.31.31 0 0 0-.02.08c-.09.22-.16.44-.23.65-.06.19-.12.38-.17.56-.06.2-.11.39-.15.58-.07.26-.12.51-.16.76-.05.2-.08.4-.1.6-.03.2-.05.39-.06.58-.02.21-.03.42-.03.63v.12c.09 10.19 10.27 14.72 19.39 10.6 1.73-.8 3.89-2.45 6.48-4.95.63-.61 1.27-1.21 1.91-1.8.36-.33.71-.65 1.07-.96.69-.61 1.39-1.21 2.09-1.78.41-.34.83-.67 1.25-.99.25-.2.5-.39.75-.57 1.08-.81 2.18-1.56 3.29-2.24.58-.35 1.16-.68 1.73-.99.29-.16.58-.31.87-.45.3-.15.59-.29.88-.42.3-.13.59-.26.89-.38.49-.21.98-.39 1.47-.55.23-.08.47-.16.71-.23.16-.05.33-.09.49-.14.29-.08.59-.15.89-.22s.59-.12.88-.18c.72-.12 1.43-.2 2.14-.23.47-.02.93-.02 1.4 0h.07c.43.02.86.06 1.3.12.23.03.45.07.68.11.24.04.48.09.72.15.14.03.27.06.41.1.34.08.68.18 1.02.3.23.08.46.16.68.25.17.06.34.13.51.21.5.21.99.45 1.48.72a19.443 19.443 0 0 1 2.75 1.84c.25.19.49.39.73.6.25.21.49.42.73.65 9.95 9.25 24.8 25.13 39.89 17.12l34.71-16.71c10.62-5.12 19.83-5.09 27.64.1 7.46 4.93 14.91 9.86 22.35 14.76 9.41 6.2 18.42 5.89 27.03-.92 7.44-5.87 12.43-10.16 15-12.87.33-.34.65-.68.98-1 .28-.28.57-.55.85-.82l.24-.21c.29-.27.59-.53.88-.78.37-.31.74-.61 1.1-.9.29-.23.58-.45.87-.66 1.01-.73 2.02-1.37 3.03-1.93.25-.13.49-.26.74-.39.15-.08.3-.15.45-.23.25-.12.51-.24.77-.36Z"/><path class="cls-11" d="M513.39 310v72.55c-8.69-1.75-17.89 1.92-25.51 9.74-3.09 3.18-7.62 7.18-13.61 11.99-3.57 2.89-8.7 2.75-12.08-.32a475.827 475.827 0 0 1-17.03-16.11c-17.96-17.77-36.47-9.44-54.38 4.81-6.05 4.78-14.71 7.67-25.97 8.66-5.86.49-13.5-2.7-22.91-9.58-9.39-6.85-24.81-19.26-37.67-16.34-17.96 4.03-33.65 14.95-48.74 22.17-3.79 1.82-8.62 1.31-14.49-1.53-1.37-.68-2.3-2.05-2.45-3.61-.62-7.34.26-13.05 2.64-17.12 2.22-3.83 9.19-16.05 20.92-36.66 7.53-13.24 18.19-20.96 30.52-25.29 3.54-1.25 7.23-2.22 11.01-2.95 7.11-1.39 14.57-1.97 22.17-2.07h.01c5.27-.08 10.59.08 15.91.35 2.25.11 4.5.24 6.74.39 34.21 2.22 67.44-2.23 103.12-.1 17.79 1.06 38.39 1.4 61.8 1.02Z"/><path class="cls-10" d="m478.25 425.15-.32 48.78c-.03 1.44-1.18 2.59-2.59 2.59H409.2c-1.67 0-2.5-.83-2.5-2.5l.19-73.59a9.52 9.52 0 0 1 1.2-3.1c.49-.89 1.31-1.57 2.45-2.04 21.66-8.98 34.99 7.87 50.26 23.84 2.16 2.25 7.98 4.26 17.45 6.02Z"/><path class="cls-3" d="M220.73 50.55c-16.14-11.64-36.67-17.25-61.6-16.85-43.09.65-85.86.05-128.86 2.22 8.21-14.41 12.58-24.42 13.1-30.04.18-1.97.41-3.93.72-5.88h155.39c3.07 11.96 6.42 21.46 10.05 28.52 4.47 8.73 8.21 16.07 11.2 22.03Z"/><path class="cls-11" d="M30.27 35.92 2.64 82.99c-1.33 8.27-.46 15.71 2.59 22.31.65 1.42 1.74 2.3 3.29 2.64 13.38 2.92 27.58-14.39 37.4-24.95 2.68-2.92 7.22-3.1 10.14-.42.53.49.98 1.05 1.34 1.67l13.42 23.23c2.37 4.09 7.49 5.65 11.71 3.56C92.3 106.22 99.79 90.3 105.12 84c.99-1.16 2.47-1.8 3.98-1.71 12.08.79 24.44 15.5 36.15 27.17 4.77 4.77 12.51 4.77 17.28 0 .38-.38.73-.77 1.05-1.2 8.1-10.55 20.73-29.2 33.97-25.87 2.78.68 6.73 3.59 11.85 8.75 6.63 6.63 11.76 10.71 15.37 12.22 10.86 4.6 17.43.4 19.72-12.59l-23.74-40.22c-16.14-11.63-36.67-17.25-61.6-16.85-43.09.65-85.86.05-128.85 2.22Z"/><path class="cls-3" d="M250.72 123.12a3 3 0 0 0-.18 2.73l3.65 8.65c-24.31-7.25-48.93-9.78-73.87-7.59-15.18 1.36-26.42 1.93-33.74 1.72-15.27-.42-28.41-.88-45.31-.14-14.96.68-35.42.57-61.37-.33-1.4-.05-2.81-.06-4.22-.02-.43 0-.86.02-1.29.03-.27 0-.54.02-.81.04-.54.02-1.09.05-1.64.09-.5.03-1.01.07-1.51.11-.09 0-.17.01-.25.02-.72.06-1.44.13-2.16.22-.57.06-1.14.13-1.7.21-.06.01-.11.01-.16.02-.39.05-.78.11-1.17.17-.53.08-1.07.16-1.6.26-.59.1-1.19.21-1.78.32-.04 0-.07.01-.1.02-.46.09-.92.18-1.37.28-.46.09-.93.19-1.4.3-.74.17-1.49.35-2.23.54-.54.13-1.09.27-1.64.43a100.04 100.04 0 0 0-5.91 1.81c-.63.22-1.27.44-1.9.68-.63.22-1.25.46-1.88.7-.29.11-.57.22-.86.34-.65.26-1.31.52-1.96.8-.79.32-1.57.66-2.36 1.02V86.06c.84-1.03 1.72-2.06 2.64-3.07-1.32 8.27-.46 15.71 2.6 22.31.64 1.42 1.74 2.3 3.28 2.64 13.38 2.91 27.59-14.4 37.4-24.95.14-.15.29-.3.44-.44.07-.07.15-.13.23-.2.09-.08.18-.15.28-.21 0-.01.01-.01.01-.01.08-.07.17-.13.26-.19.04-.03.08-.06.13-.08.03-.03.07-.05.1-.07.07-.05.14-.1.22-.14.02-.01.05-.03.07-.03.01-.01.02-.02.03-.02.01-.01.03-.02.04-.03.17-.09.34-.18.51-.25.07-.04.14-.07.22-.1.19-.08.39-.15.59-.21.23-.08.47-.14.7-.18.24-.05.48-.09.72-.11.24-.03.48-.04.72-.04h.02c.2 0 .41.01.61.03.03 0 .05 0 .08.01.02 0 .05 0 .07.01.18 0 .35.04.52.07.18.03.35.07.52.11.01 0 .03.01.04.01.07.02.14.04.22.07.13.03.27.08.4.13.22.08.43.17.64.27.08.04.17.08.25.13.01 0 .02.01.03.01l.36.21c.13.08.26.16.38.25.03.02.06.05.09.07.1.07.2.15.3.23.13.1.25.21.37.32.12.11.23.22.34.34a6.847 6.847 0 0 1 .68.84c.1.14.2.3.29.45l13.42 23.24c2.37 4.09 7.49 5.64 11.71 3.56 9.76-4.81 17.26-20.74 22.58-27.03 1-1.16 2.47-1.8 3.98-1.71 12.08.78 24.44 15.5 36.15 27.17.21.21.44.41.66.61.02.02.05.04.07.06a15.18 15.18 0 0 0 1.32.97c.15.09.29.18.44.27.29.18.59.33.89.47.16.07.31.14.46.21.16.06.31.13.47.19.31.11.62.22.94.31a14.086 14.086 0 0 0 1.69.36l.49.06c.12 0 .24.02.36.03h.07c.1.01.19.02.29.02.16.01.33.01.5.01h.03c.22 0 .43-.01.65-.02.16-.01.31-.02.47-.04.2-.01.39-.04.59-.07h.01c.14-.02.27-.04.41-.07.09-.01.18-.03.27-.05.1-.02.19-.04.28-.06.22-.05.44-.1.66-.17.22-.06.44-.13.66-.2.21-.07.41-.15.61-.24.13-.05.26-.1.39-.17.41-.17.8-.38 1.18-.6.16-.1.31-.2.47-.3.03 0 .05-.03.08-.06.15-.09.3-.2.45-.31.16-.12.33-.24.49-.38.16-.12.32-.26.47-.41.14-.12.28-.24.41-.38.06-.06.12-.12.17-.18.15-.15.29-.3.43-.46.17-.2.34-.4.5-.61 8.1-10.55 20.73-29.2 33.97-25.87 2.78.68 6.73 3.59 11.85 8.75 6.63 6.63 11.76 10.7 15.37 12.22 10.86 4.59 17.43.4 19.71-12.59 5.96 6.66 9.65 13.81 11.06 21.43.31 1.63.04 3.14-.83 4.53l-3.98 6.39Z"/><path class="cls-11" d="M287.24 191.85c-.09 10.18-10.28 14.72-19.39 10.6-1.73-.8-3.89-2.45-6.48-4.95-9.72-9.4-22.17-17.92-33.79-7.08-9.95 9.25-24.81 25.13-39.9 17.12-.24-.12-11.81-5.69-34.71-16.71-10.61-5.12-19.82-5.09-27.63.09-7.47 4.94-14.92 9.86-22.35 14.77-9.42 6.2-18.43 5.89-27.03-.93-7.44-5.86-12.44-10.15-15-12.86-6.89-7.27-14.13-9.75-21.51-9.42-.22 0-.44.02-.66.04-.26.01-.51.03-.77.06-.06.01-.11.01-.17.02-.37.03-.75.07-1.13.13-.39.05-.77.11-1.16.17a21.793 21.793 0 0 0-1.46.28c-.24.05-.49.1-.74.16-.32.08-.65.16-.98.24-.4.1-.81.21-1.21.33l-.09.03c-.37.1-.74.21-1.11.33-.57.18-1.15.37-1.72.57-.42.15-.84.31-1.26.47-.36.14-.73.28-1.1.43-2.85 1.14-5.7 2.52-8.54 4.02-.44.23-.87.46-1.31.69-1.39.75-2.78 1.53-4.17 2.33-.46.25-.91.51-1.37.78-3.54 2.03-7.05 4.11-10.5 6.02v-63.03c.79-.35 1.57-.69 2.36-1.02.65-.28 1.31-.54 1.96-.8.29-.12.57-.23.86-.34.63-.24 1.25-.48 1.88-.7.63-.24 1.27-.46 1.9-.68a100.04 100.04 0 0 1 5.91-1.81c.55-.16 1.1-.3 1.64-.43.75-.2 1.49-.37 2.23-.54.47-.11.94-.21 1.4-.3.45-.1.91-.19 1.37-.28.03-.01.06-.02.1-.02.59-.12 1.19-.22 1.78-.32.53-.1 1.07-.18 1.6-.26.39-.06.78-.12 1.17-.17.05-.01.1-.01.16-.02.56-.08 1.13-.15 1.7-.21.72-.09 1.44-.16 2.16-.22.08 0 .16-.02.25-.02.5-.04 1.01-.08 1.51-.11.55-.04 1.1-.07 1.64-.09.27-.02.54-.03.81-.04.43-.01.86-.03 1.29-.03 1.41-.04 2.82-.03 4.22.02 25.95.9 46.41 1.01 61.37.33 16.9-.74 30.04-.28 45.31.14 7.32.21 18.56-.36 33.74-1.72 24.94-2.19 49.56.34 73.87 7.59l16.76 23.61c2.74 7.22 6.32 14.1 10.73 20.64 3.74 5.52 5.59 9.89 5.56 13.1Z"/><path class="cls-3" d="M341.73 308.69c-.63-1.72-1.43-3.46-2.38-5.21-5.51-10.16-11.81-21.15-18.88-32.98-.08-.13-.16-.26-.24-.4-5.21-8.7-10.83-17.85-16.88-27.45-1.53-2.43-3.09-4.88-4.67-7.36-3-4.72-6.11-9.54-9.31-14.47-.8-1.26-.54-2.23.78-2.91 10.8-5.59 13.32-14.04 7.55-25.37-6.05-11.84-14.97-23.32-26.75-34.43 2.74 7.22 6.32 14.1 10.73 20.64 3.74 5.52 5.59 9.89 5.56 13.1-.09 10.18-10.28 14.72-19.39 10.6-1.73-.8-3.89-2.45-6.48-4.95-9.72-9.4-22.17-17.92-33.79-7.08-9.95 9.25-24.81 25.13-39.9 17.12-.24-.12-11.81-5.69-34.71-16.71-10.61-5.12-19.82-5.09-27.63.09-7.47 4.94-14.92 9.86-22.35 14.77-9.42 6.2-18.43 5.89-27.03-.93-7.44-5.86-12.44-10.15-15-12.86-6.89-7.27-14.13-9.75-21.51-9.42-.22 0-.44.02-.66.04-.26.01-.51.03-.77.06-.06.01-.11.01-.17.02-.37.03-.75.07-1.13.13-.39.05-.77.11-1.16.17a21.793 21.793 0 0 0-1.46.28c-.24.05-.49.1-.74.16-.32.08-.65.16-.98.24-.4.1-.81.21-1.21.33l-.09.03c-.37.1-.74.21-1.11.33-.57.18-1.15.37-1.72.57-.42.15-.84.31-1.26.47-.36.14-.73.28-1.1.43-2.85 1.14-5.7 2.52-8.54 4.02-.44.23-.87.46-1.31.69-1.39.75-2.78 1.53-4.17 2.33-.46.25-.91.51-1.37.78-3.54 2.03-7.05 4.11-10.5 6.02v133.53c12.77 4.84 21.26-4.28 35.83-15.23 4.44-3.36 9.53-4.98 15.27-4.86 4.04.06 8.43 2.13 13.15 6.2 7.99 6.88 15.3 14.02 21.93 21.43.01 0 .03-.01.04-.01 9.46-1.76 15.25-3.75 17.41-6.01 15.28-15.96 28.61-32.81 50.27-23.83 1.14.46 1.96 1.14 2.45 2.03.59.96.99 1.99 1.2 3.1-.06-.48-.04-.92.05-1.31v-.03c.04-.17.1-.31.18-.46.56-1.23 1.38-1.44 2.46-.6 7.5 5.74 15.01 10.97 22.54 15.69 12.86 8.05 25.44 8.31 37.72.78 13.33-8.17 22.91-14.02 28.74-17.54 9.13-5.51 17.26-6.79 24.91-5.7 6.39.91 12.45 3.47 18.48 6.6 12.68 6.56 25.24 15.62 40.57 17.02 5.23.45 9.85-3.37 10.36-8.57.45-4.27-.16-8.65-1.83-13.12Z"/><path class="cls-11" d="M325.88 307.93c-.01.14-.03.28-.06.41h-.01a4.406 4.406 0 0 1-2.38 3.2c-5.86 2.84-10.69 3.35-14.48 1.53-1.76-.84-3.53-1.74-5.31-2.66-12.3-6.4-25.11-14.41-39.32-18.46-1.35-.39-2.73-.74-4.11-1.05-12.87-2.92-28.28 9.48-37.68 16.33-9.41 6.88-17.04 10.08-22.91 9.58-11.26-.98-19.91-3.87-25.96-8.65-5.32-4.23-10.68-7.94-16.07-10.61-12.78-6.29-25.69-6.71-38.31 5.8-5.5 5.46-11.17 10.83-17.04 16.1a9.208 9.208 0 0 1-8.95 1.98 9.082 9.082 0 0 1-3.13-1.65c-5.98-4.82-10.52-8.81-13.6-11.99-11.8-12.13-27.4-14.26-39.02-1.81-7.34 7.9-14.99 11.17-22.96 9.82-3.91-.65-8.57-3.29-13.97-7.92l-.61-.52v-82.21c4.54-.68 9.35-.92 14.45-.72 39.06 1.61 71.86 1.62 98.39.05 35.69-2.13 68.92 2.31 103.12.09 28.55-1.86 58.46-1.75 77.64 17.89l.19.19c3.16 3.27 6.02 7.08 8.54 11.5 3.43 6.04 6.46 11.35 9.08 15.95.7 1.24 1.38 2.43 2.02 3.56 5.15 9.03 8.43 14.74 9.82 17.14 2.37 4.08 3.25 9.78 2.63 17.13Z"/><path d="M428.98 476.53c-1.23-1.61-2.5-3.17-3.81-4.68-5.48-6.31-11.63-11.7-18.43-16.17-5.89-3.9-12.3-7.1-19.19-9.62-22.05-5.93-42.65-2.88-61.78 9.16-1.59 1-3.23 1.15-4.92.46-13.6-5.79-26.18-9.34-37.74-10.64a85.3 85.3 0 0 0-7-.53c-.24-.01-.47-.02-.7-.02h-.09c-.61-.02-1.21-.03-1.81-.03-.36 0-.73 0-1.09.01-3.58.03-7.06.31-10.42.84-1.5.22-2.97.5-4.42.83h-.01c-.53.12-1.06.24-1.58.38h-.01a60.707 60.707 0 0 0-11.99 4.38c-.76.37-1.52.76-2.27 1.17a69.31 69.31 0 0 0-3.99 2.34h-.01c-.45.31-.89.6-1.33.9a67.795 67.795 0 0 0-9.29 7.66 73.501 73.501 0 0 0-4.71 5.05c-.55.65-1.09 1.31-1.63 1.98-.01.01-.02.03-.03.04-3.33 4.17-6.43 8.85-9.3 14.03-4.52 8.18-8.46 17.62-11.83 28.32h247.95c-4.73-13.95-10.93-25.9-18.57-35.86Z" style="stroke-width:0;fill:#0c9f49"/><path d="M513.39 512.75h-45.03v-.36h-73.52c7.87-18.44 17.98-31.96 30.33-40.54 12.2-8.48 26.59-12.15 43.16-11 6.49.44 13.31 1.62 20.47 3.54 6.81 1.81 13.92 4.31 21.35 7.47.63.25 1.24.39 1.85.41.46.03.92-.02 1.38-.13v40.61Z" style="fill:#5fbb46;stroke-width:0"/><path class="cls-2" d="M200.86 376.66c-13.65 1.59-28.03-.61-43.11-6.58 3.05-3.32 7.65-5.09 13.8-5.31 11.53-.38 21.3 3.59 29.31 11.89Z"/><path d="M239.35 406.51c-1.03.48-2.02.99-2.99 1.51-.84.46-1.65.93-2.45 1.42l-.48.3a45.015 45.015 0 0 0-5.16 3.77c-.32.27-.64.54-.95.82-.24.21-.47.43-.7.65-.76.69-1.47 1.41-2.15 2.16-.28.29-.54.58-.79.88-.17.18-.32.35-.46.53-.25.29-.49.58-.72.88-.63.78-1.22 1.58-1.77 2.41-.17.24-.33.48-.49.73-.44.67-.86 1.36-1.26 2.06-.19.35-.38.69-.57 1.05-.17.31-.34.63-.49.95-.1.2-.2.4-.3.61-.1.21-.2.41-.29.62-.21.46-.42.93-.62 1.4-.4.96-.77 1.94-1.11 2.95-.08.25-.17.5-.25.75-.08.25-.16.5-.24.76-.17.56-.33 1.12-.49 1.7-.16.58-.31 1.16-.46 1.75-.07.25-.14.51-.19.76-.14.51-.26 1.04-.38 1.57-.27 1.16-.52 2.34-.74 3.54-.18.94-.35 1.89-.52 2.85-.03.18-.06.35-.08.53-.13.78-.25 1.57-.36 2.37-.05.27-.09.54-.12.81-.1.71-.19 1.43-.28 2.15-.03.25-.06.51-.09.75-.11.93-.2 1.86-.29 2.8-.02.23-.05.45-.06.68-.07.76-.13 1.52-.18 2.28-.03.23-.04.46-.05.68-.07.89-.12 1.78-.16 2.68-.03.44-.04.88-.05 1.31-.03.56-.05 1.12-.06 1.68-.02.35-.03.69-.02 1.03-.03.96-.04 1.93-.04 2.89 0 .91.01 1.82.03 2.73 0 .42.01.84.03 1.25.01.55.03 1.09.06 1.63.06 1.68.16 3.34.31 4.97.03.55.08 1.09.14 1.63.04.49.09.98.15 1.46.06.63.14 1.25.22 1.87.44 3.44 1.04 6.74 1.8 9.8.2.8.41 1.6.65 2.4.11.4.23.8.36 1.2.12.4.25.8.38 1.2.39 1.21.82 2.41 1.3 3.6.15.38.3.76.46 1.14.31.77.65 1.53 1.01 2.29.18.4.36.78.56 1.17.93 1.9 1.96 3.75 3.1 5.52H0v-89.93c3.21-.05 6.51-.17 9.49-.45 11.96-1.08 23.54-2.21 34.73-3.39 15.69-1.64 30.63-3.38 44.82-5.2l1.39-.18c8.63-1.12 17.51-5.19 26.64-12.2 1.85-1.44 10.18-8.23 24.99-20.39 4.43-3.65 9.66-7.18 15.69-10.57 15.09 5.97 29.46 8.17 43.11 6.58-7.53 5.79-14.27 10.93-20.22 15.43-4.23 3.21-7.69 6.76-10.36 10.64-.72 1.05-.46 2.47.57 3.18l.09.06c2.69 1.68 5.95 2.75 9.77 3.21 9.5 1.15 19.03 1.31 28.6.49 8.95-.77 17.96-1.69 27.05-2.8.99-.11 1.99-.24 2.99-.36Z" style="fill:#6c4616;stroke-width:0"/><path class="cls-2" d="M286.31 456.84c-.98-4.15-2.05-8.08-3.2-11.8-2.07-6.71-4.41-12.72-7.01-18.04-.96-1.99-1.97-3.88-3.01-5.67-4.49-7.73-10.3-12.6-17.44-14.62-4.83-1.37-10.26-1.44-16.3-.2-1.03.48-2.02.99-2.99 1.51-.84.46-1.65.93-2.45 1.42l-.48.3a45.015 45.015 0 0 0-5.16 3.77c-.32.27-.64.54-.95.82-.02.02-.05.04-.07.06-.22.19-.42.39-.63.59-.76.69-1.47 1.41-2.15 2.16-.28.29-.54.58-.79.88-.17.18-.32.35-.46.53-.25.29-.49.58-.72.88-.63.78-1.22 1.58-1.77 2.41-.17.24-.33.48-.49.73-.44.67-.86 1.36-1.26 2.06-.19.35-.38.69-.57 1.05-.17.31-.34.63-.49.95-.1.2-.2.4-.3.61-.1.21-.2.41-.29.62-.21.46-.42.93-.62 1.4-.4.96-.77 1.94-1.11 2.95-.08.25-.17.5-.25.75-.08.25-.16.5-.24.76-.17.56-.33 1.12-.49 1.7-.16.58-.31 1.16-.46 1.75-.07.25-.14.51-.19.76-.14.52-.26 1.04-.38 1.57-.27 1.16-.52 2.34-.74 3.54-.18.94-.35 1.89-.52 2.85-.03.18-.06.35-.08.53-.13.78-.25 1.57-.36 2.37-.05.27-.09.54-.12.81-.1.71-.19 1.43-.28 2.15-.03.25-.06.51-.09.75-.11.93-.2 1.86-.29 2.8-.02.23-.05.45-.06.68-.07.76-.13 1.52-.18 2.28-.03.23-.04.46-.05.68-.07.89-.12 1.78-.16 2.68-.03.44-.04.88-.05 1.31-.03.56-.05 1.12-.06 1.68-.02.35-.03.69-.02 1.03-.03.96-.04 1.93-.04 2.89 0 .91.01 1.82.03 2.73 0 .42.01.84.03 1.25.01.55.03 1.09.06 1.63.06 1.68.16 3.34.31 4.97.03.55.08 1.09.14 1.63.04.49.09.98.15 1.46.06.63.14 1.25.22 1.87.44 3.44 1.04 6.74 1.8 9.8.2.8.41 1.6.65 2.4.11.4.23.8.36 1.2.12.4.25.8.38 1.2.39 1.21.82 2.41 1.3 3.6.15.38.3.76.46 1.14.31.77.65 1.53 1.01 2.29.18.39.36.79.56 1.17.93 1.9 1.96 3.75 3.1 5.52h61.53c2-3.67 3.49-7.88 4.48-12.62.88-4.22 1.27-8.28 1.16-12.18-.16-4.88-.15-8.99.02-12.34.27-5.76-.38-11.89-1.93-18.41Z"/><path class="cls-7" d="M202.34 437.16c-1.04 5.48-8.03 7.02-13.6 7.37-33.23 2.1-66.46 4.21-99.69 6.31-14.94.95-29.87 1.89-44.81 2.84l-36.02 2.28c-2.73.17-5.49.34-8.22.24v-14.28c5.3-.36 10.6-.97 15.87-1.37l28.36-2.22c4.19-.33 8.38-.65 12.57-.98l32.24-2.52 50.3-3.93c15.22-1.18 30.43-2.37 45.64-3.56 3.86-.3 7.88-.58 11.48.86 3.59 1.44 6.6 5.16 5.88 8.96ZM194.34 468.61c-1.04 5.47-8.03 7.01-13.6 7.36-30.56 1.94-61.13 3.87-91.69 5.81-14.93.94-29.87 1.89-44.8 2.83L.22 487.4c-.07 0-.15.01-.22.01v-14.72c2.63-.24 5.25-.5 7.87-.7 12.12-.95 24.26-1.89 36.38-2.84l4.55-.36c13.42-1.05 26.84-2.1 40.25-3.14l42.29-3.3 45.64-3.57c3.86-.3 7.88-.58 11.48.86 3.59 1.44 6.6 5.16 5.88 8.97ZM202.34 500.05c-1.04 5.47-8.03 7.01-13.6 7.36l-78.65 4.98H0v-7.59c5.3-.36 10.6-.96 15.87-1.37l28.39-2.22c4.18-.33 8.36-.65 12.54-.98l32.26-2.52c16.76-1.3 33.52-2.61 50.28-3.92l45.64-3.57c3.86-.3 7.88-.58 11.48.86 3.59 1.44 6.6 5.16 5.88 8.97ZM238.88 451.93c2.64-4.47 7.04-8.05 12.14-9.02s10.83.97 13.77 5.25c2.08 3.03 2.64 6.84 2.96 10.5.71 8.12.52 16.31-.56 24.39-.72 5.38-1.91 10.91-5.14 15.27s-8.96 7.28-14.18 5.75c-4.99-1.47-8.16-6.47-9.56-11.47-1.44-5.15-1.44-10.89 1.05-15.61s7.82-8.12 13.11-7.39c1.33.18 2.67.64 3.66 1.54s1.59 2.32 1.27 3.63c-.49 2.02-2.73 2.97-4.58 3.91-3.74 1.89-7.06 5.14-7.84 9.26s1.79 8.92 5.93 9.58c2.64.42 5.34-.87 7.18-2.81s2.93-4.47 3.78-7c2.99-8.91 3.31-18.7.92-27.79-.97-3.69-2.6-7.53-5.9-9.44-4.3-2.49-10.06-.68-13.56 2.84-1.56 1.56-2.78 3.41-3.8 5.36-.6 1.14-1.49 5.1-3.08 5.14-2.9.07 1.51-10.35 2.42-11.89Z"/><path class="cls-7" d="M252.85 423.28c-3.39-1.65-7.63-.61-10.61 1.71-2.55 1.98-4.35 4.72-5.87 7.6-.25.49-.5.98-.74 1.47a89.752 89.752 0 0 0-8.53 28.91c-.56 4.61-.76 9.25-.59 13.88.3 7.99 1.74 16.12 5.71 23.06 1.16 2.05 2.57 3.98 4.2 5.71 2.74 2.96 6.07 5.35 9.78 6.77h-12.11a30.79 30.79 0 0 1-6.02-6.76c-4.58-7.02-6.17-15.57-6.87-23.93-.33-3.88-.48-7.77-.47-11.66.03-8.72.91-17.43 2.62-25.98 1.23-6.17 2.95-12.35 6.27-17.7 1.77-2.85 4.05-5.47 6.75-7.5 1.31-.98 2.71-1.83 4.21-2.49 7.89-3.52 17.06-.67 22.18 6.17 1.29 1.71 2.71 4.27.05 5.34-3.7 1.49-7.05-3.19-9.96-4.6Z"/><path d="M278.02 504.22c-.19 1.96-.87 3.78-1.9 5.42-.62.98-1.36 1.9-2.19 2.75h-13.1c4.33-1.71 8-4.93 9.69-9.25.7-1.76 1.33-3.94 3.15-4.48.83-.25 1.71-.05 2.45.42.45.28.84.66 1.13 1.11.76 1.17.9 2.64.77 4.03Z" style="fill:#7d3604;stroke-width:0"/><path class="cls-7" d="M267.78 430.44c.89.16 1.44 1.03 1.87 1.82 9.45 17.5 14.16 37.53 13.52 57.41-.05 1.65-.25 3.51-1.57 4.51-1.95 1.47-4.96-.28-5.7-2.61s0-4.84.6-7.21c3.72-14.86 1.52-32.32-7.16-45.16-.75-1.1-6.63-9.64-1.55-8.75Z"/></g></svg>