<svg id="Layer_2" data-name="Layer 2" xmlns="http://www.w3.org/2000/svg" viewBox="0 0 492.07 504.89"><defs><style>.cls-1{stroke:#ad8a83}.cls-1,.cls-10,.cls-11,.cls-2,.cls-3,.cls-5,.cls-6,.cls-7,.cls-9{fill:none;stroke-width:2px}.cls-2{stroke:#c6a098}.cls-3{stroke:#b0662b}.cls-12{fill:#642116}.cls-12,.cls-14,.cls-22,.cls-24,.cls-26,.cls-28,.cls-32,.cls-33,.cls-34,.cls-36{stroke-width:0}.cls-14{fill:#265170}.cls-5{stroke:#e44d5c}.cls-6{stroke:#924534}.cls-22{fill:#9aaab4}.cls-7{stroke:#ed8954}.cls-24{fill:#ccd6dd}.cls-26{fill:#231f20}.cls-9{stroke:#b3c0c9}.cls-10{stroke:#e6d097}.cls-11{stroke:#f6925c}.cls-28{fill:#787680}.cls-32{fill:#898890}.cls-33{fill:#3a8b41}.cls-34{fill:#5d110b}.cls-36{fill:#bf6952}</style></defs><g id="Capa_1" data-name="Capa 1"><path class="cls-10" d="m136.73 350.53 6.09 2.22" vector-effect="non-scaling-stroke"/><path d="M142.83 352.75a27085.1 27085.1 0 0 1-13.47 36.66c-.27.74-.39 1.25-.36 1.55.16 1.51 2.5 2.07 3.09.46 4.61-12.52 9.21-25.04 13.82-37.54" vector-effect="non-scaling-stroke" style="stroke:#bbc2cb;fill:none;stroke-width:2px"/><path class="cls-10" d="m145.91 353.88 6.03 2.23" vector-effect="non-scaling-stroke"/><path d="m142.83 352.75 3.08 1.13" vector-effect="non-scaling-stroke" style="stroke:#d5c088;fill:none;stroke-width:2px"/><path class="cls-7" d="m142.55 344.05 4.14 1.51" vector-effect="non-scaling-stroke"/><path class="cls-11" d="m146.69 345.56 5.04 1.85" vector-effect="non-scaling-stroke"/><path class="cls-5" d="M146.69 345.56a16.71 16.71 0 0 1 6.83-3.09M143.04 342.75c.07.14.19.22.35.25.11.02.24 0 .4-.08 5.25-2.41 8.59-3.86 11.64-5.65M144.62 338.46c3.5-1.5 6.9-3.05 10.2-4.65.43-.21 1.13-.42 2.09-.62M146.25 334a22.56 22.56 0 0 0 7.11-3.28" vector-effect="non-scaling-stroke"/><path class="cls-7" d="M153.36 330.72c1.17.28 2.18.28 3.02.02.81-.26 1.32-.4 1.54-.44" vector-effect="non-scaling-stroke"/><path class="cls-11" d="M153.36 330.72c-2.01-.59-3.5-1.89-4.46-3.9" vector-effect="non-scaling-stroke"/><path d="M121.35 418.55c-.63.02-1.17-.17-1.62-.58l-.33-.71-2.46-11.79c-.08-.37-.05-.75.08-1.1l19.71-53.85 6.09 2.22a27085.1 27085.1 0 0 1-13.47 36.66c-.27.74-.39 1.25-.36 1.55.16 1.51 2.5 2.07 3.09.46 4.61-12.52 9.21-25.04 13.82-37.54l6.03 2.23-19.67 53.69c-.15.41-.41.76-.75 1.03l-9.5 7.41-.67.31Z" style="fill:#ccd1d9;stroke-width:0"/><path d="m142.83 352.75 3.08 1.13c-4.6 12.51-9.21 25.02-13.82 37.54-.59 1.61-2.94 1.05-3.09-.46-.03-.3.09-.81.36-1.55l13.47-36.66Z" style="fill:#aab2bc;stroke-width:0"/><path class="cls-33" d="m151.94 356.11-6.03-2.23-3.08-1.13-6.09-2.22c-1.86-.71-3.78-1.41-5.74-2.1-1.24-.44-1.63-1.27-1.19-2.51.52-1.42 1.04-2.85 1.58-4.29.31-.82 1.22-1.24 2.04-.94l9.12 3.35 4.14 1.51 5.04 1.85 9.06 3.31c.86.32 1.31 1.27.99 2.14-.52 1.42-1.03 2.83-1.55 4.23-.46 1.23-1.3 1.61-2.53 1.14-1.95-.75-3.87-1.45-5.77-2.11Z"/><path class="cls-34" d="M146.69 345.56a16.71 16.71 0 0 1 6.83-3.09l-1.79 4.94-5.04-1.85Z"/><path class="cls-26" d="M153.52 342.46c-2.53.52-4.8 1.55-6.83 3.09l-4.14-1.51.49-1.29c.07.14.19.22.35.25.11.02.24 0 .4-.08 5.25-2.41 8.59-3.86 11.64-5.65l-1.91 5.19Z"/><path class="cls-34" d="m143.04 342.75 1.58-4.29c3.5-1.5 6.9-3.05 10.2-4.65.43-.21 1.13-.42 2.09-.62l-1.48 4.08c-3.05 1.8-6.4 3.24-11.64 5.65-.16.07-.29.1-.4.08a.461.461 0 0 1-.35-.25Z"/><path class="cls-26" d="M156.9 333.19c-.96.21-1.65.41-2.09.62-3.3 1.59-6.7 3.14-10.2 4.65l1.63-4.47a22.56 22.56 0 0 0 7.11-3.28c1.17.28 2.18.28 3.02.02.81-.26 1.32-.4 1.54-.44l-1.02 2.89Z"/><path class="cls-33" d="M157.92 330.3c-.22.03-.74.18-1.54.44-.85.27-1.86.26-3.02-.02-2.01-.59-3.5-1.89-4.46-3.9-1.02-3.44-.04-6.13 2.92-8.08l.79-.37c3.28-1.02 5.94-.1 7.95 2.75l.48 1.03c1 3.43-.04 6.15-3.12 8.15Z"/><path class="cls-34" d="m146.25 334 2.65-7.18c.96 2.01 2.45 3.31 4.46 3.9a22.56 22.56 0 0 1-7.11 3.28Z"/><path d="m103.47 376.42 32.95 48.18 1.38 21.17c.01.14.13.24.27.22.04 0 .08-.02.12-.04l8.57-5.88 19.97 28.74-.78.53c-2.89 1.26-5.49 1.16-7.81-.3-1.02-.64-2.04-1.73-3.05-3.25-1.37-2.06-2.76-4.09-4.17-6.11-.05-.08-.16-.09-.24-.04s-5.12 3.51-5.12 3.51c-.08.05-.1.15-.05.23 1.59 2.34 2.99 4.36 4.19 6.07 1.07 1.53 1.72 2.88 1.95 4.05.53 2.67-.31 5.12-2.51 7.35l-1.64 1.12c-4.37 1.82-7.81.88-10.32-2.84-2.86-4.23-5.8-8.53-8.8-12.88a.682.682 0 0 0-.54-.3l-18.73-.82c-.15 0-.28-.08-.37-.2-1.76-2.57-7.66-11.19-17.68-25.87-7.63-11.17-9.48-25.05-5.56-38.15 2.75-9.19 8.1-16.92 16.04-23.18l1.93-1.32Z" style="fill:#e1e1e6;stroke-width:0"/><path d="M105.34 375.16c7.53-4.53 15.51-6.83 23.94-6.89 14.38-.12 28 6.55 36.33 18.11l18.53 27.05-6.03 18.27c-.03.1-.02.22.04.3 2.99 4.35 5.79 8.43 8.39 12.25 1.1 1.62 1.76 2.96 1.97 4.03.52 2.66-.3 5.1-2.49 7.33l-1.66 1.14c-2.94 1.29-5.57 1.16-7.89-.37-1.03-.68-2.08-1.84-3.16-3.48-1.27-1.94-2.57-3.86-3.9-5.75-.1-.14-.22-.16-.35-.06l-5.06 3.47c-.07.05-.09.15-.05.22 1.84 2.7 3.12 4.56 3.83 5.59 1.29 1.88 2.05 3.38 2.28 4.48.56 2.67-.28 5.14-2.51 7.43l-.81.55-19.97-28.74 9.02-6.17c.1-.07.12-.2.06-.29-.02-.03-.05-.05-.08-.07l-19.34-8.95-32.95-48.18 1.86-1.27Z" style="fill:#d2d2d7;stroke-width:0"/><ellipse cx="112.8" cy="431.71" rx="13.94" ry="13.56" transform="rotate(-34.41 112.78 431.676)" style="fill:#4b5055;stroke-width:0"/><ellipse cx="151.65" cy="405.1" rx="13.94" ry="13.56" transform="rotate(-34.41 151.63 405.076)" style="fill:#373c41;stroke-width:0"/><path d="m146.76 440.07-8.57 5.88c-.12.08-.27.05-.35-.06-.02-.04-.04-.08-.04-.12l-1.38-21.17 19.34 8.95c.1.05.14.17.09.27a.27.27 0 0 1-.07.08l-9.02 6.17Z" style="fill:#919196;stroke-width:0"/><path d="M390.8 408.78v58.68c0 3.23-1.36 6.46-3.4 8.16H239.77c-2.04-2.21-3.4-4.93-3.4-8.16V361.84c0-6.46 4.93-11.74 11.06-11.74h88.27c30.78 0 55.1 26.36 55.1 58.68Z" style="fill:#a59078;stroke-width:0"/><path d="m485.19 344.15-4.25-2.55c-29.08-17.01-51.7-44.73-64.46-77.22-.68-1.7-2.04-3.57-3.74-4.59s-3.74-1.36-5.61-1.02c-32.65 6.12-66.84.68-95.92-16.33l-4.25-2.55c-4.08-2.55-9.35-.68-11.4 3.57l-56.64 109.53c-19.39 37.76-21.09 81.13-6.97 118.71h196.78c1.02-1.7 2.04-3.91 3.06-5.61l56.3-109.53c2.72-4.59 1.02-10.03-2.89-12.42Z" style="fill:#cecece;stroke-width:0"/><path d="m488.42 356.23-56.3 109.53c-1.02 1.7-2.04 3.91-3.06 5.61H303.54l39.63-77.22 58.34-113.44 10.71-20.92c1.7 1.02 3.06 2.55 3.74 4.59 12.76 32.31 35.38 60.38 64.46 77.22l4.25 2.55c4.42 2.38 6.12 7.82 3.74 12.08Z" style="fill:#989898;stroke-width:0"/><path class="cls-14" d="m428.9 444.33-8.67 17.01c-1.7 3.57-3.74 6.8-5.61 10.03H278.73l37.42-72.45 27.04-4.59 29.93-6.8 49.32 28.74 6.46 28.06Z"/><path d="m343.18 394.15-39.63 77.22h-55.62c-16.33-35.21-16.67-75.68 1.02-110.21l8.67-17.01 35.38-3.57 40.65 23.81h.34l9.18 29.76Z" style="fill:#edf5ff;stroke-width:0"/><path d="m428.9 444.33 39.63-77.22c2.38-4.59 1.02-10.71-3.4-13.95-23.64-19.22-43.71-42.01-59.36-68.2-1.02-1.7-2.72-3.23-4.25-4.25l-29.93 10.37-38.44 74.66 10.03 28.4 85.72 50.17Z" style="fill:#d5e8fe;stroke-width:0"/><path class="cls-14" d="M401.52 280.88c-1.7-1.02-3.74-1.36-5.61-1.36-29.08 0-58-5.61-86.23-16.67-4.93-2.21-10.37 0-12.76 4.59l-39.63 77.22 85.89 50.17 58.34-113.95Z"/><path d="M63.7 26.62v415.93h-.83c-3.28-1.26-5.59-4-6.94-8.2-.8-2.51-1.21-6.84-1.22-12.99-.1-133.3-.11-266.69-.03-400.16 3.02 3.25 6.03 5.06 9.02 5.42Z" style="fill:#adb4b9;stroke-width:0"/><path d="m73.38 20.99.18 25.76v319.99c0 16.01 0 31.95.01 47.82 0 9.06-.13 14.38-.38 15.98-.94 6-3.48 10-7.6 12.01H63.7V26.62c2.3-.17 4.15-.79 5.55-1.84.66-.48 2.03-1.74 4.13-3.79Z" style="fill:#8c9397;stroke-width:0"/><path class="cls-14" d="M73.54 229.56V40.28c17.62 5.14 34.98 7.38 52.11 6.7 17.74-.71 35.77-2.75 54.09-6.12 7.81-1.44 22.73-4.06 44.75-7.85 20.61-3.56 39.86-4.88 57.76-3.97 13.02.66 24.16 2.5 33.42 5.51 3.95 1.29 6 4.35 6.15 9.19.12 4.25.15 10.31.09 18.19 0 .33-.17.64-.46.81-4.95 2.99-7.57 4.57-7.84 4.75-2.17 1.49-3.03 3.24-2.56 5.24.23 1 1.22 2.32 2.96 3.95 2.48 2.33 4.98 4.64 7.49 6.93.28.26.42.57.42.95v37.34c0 .51-.29.97-.75 1.19-4.6 2.17-9.18 4.35-13.74 6.56-2.3 1.11-3.7 2.14-4.19 3.07-1.62 3.1.45 5.32 3.07 7.24 6.09 4.45 11.13 8.14 15.11 11.09.32.23.51.61.5 1.01v4.06c0 .36-.18.69-.47.89-1.3.88-3.11 1.69-4.09 2.65-4.68 4.56 1.33 8.42 4.31 11.31.16.15.24.33.24.55v21.91c0 .31-.2.59-.49.7-1.73.66-3.64 1.73-4.34 3.69-1.43 3.98 2.17 5.62 4.65 7.64.11.09.16.3.16.64 0 .12 0 1.76.01 4.93 0 2.11-.19 3.74-.58 4.91-1.02 3.03-2.99 5.03-5.88 5.99-1.7.56-4.15.5-7.36-.18-12.61-2.68-24.39-3.95-35.34-3.82-32.66.4-56.36 5.71-98 13.04a371.778 371.778 0 0 1-44.15 5.09c-19.38 1.07-38.39-1.09-57.05-6.48Z"/><path class="cls-32" d="M225.35 502.27H0l6.91-26.44c.48-1.43.95-3.1 1.43-4.53.48-.95.95-1.91 1.43-3.1.48-1.43.95-3.1 1.91-4.05.48-.95.95-2.38 1.91-3.57.95-1.91 1.91-3.57 2.86-5 .48-.95 1.43-1.91 2.38-3.57l.48-.48c.95-.95 1.43-1.91 2.38-3.1 1.91-2.38 3.81-4.53 5.96-6.43.48-.48 1.43-.95 1.91-1.43s1.43-1.43 1.91-1.43c.95-.48 1.43-1.43 2.38-1.91 2.38-1.91 4.76-3.57 6.91-5 .95-.48 2.38-1.43 3.33-1.91 0 0 .48-.48.95-.48.95-.48 2.38-.95 3.33-1.43 1.43-.48 2.86-.95 3.81-1.43 10.72-4.05 21.92-5 33.59-3.1l114.1 24.77 25.49 53.6Z"/><path class="cls-28" d="M51.45 425.56v76.7H0l6.91-26.44c.48-1.43.95-3.1 1.43-4.53.48-.95.95-1.91 1.43-3.1.48-1.43.95-3.1 1.91-4.05.48-.95.95-2.38 1.91-3.57.95-1.91 1.91-3.57 2.86-5 .48-.95 1.43-1.91 2.38-3.57l.48-.48c.95-.95 1.43-1.91 2.38-3.1 1.91-2.38 3.81-4.53 5.96-6.43.48-.48 1.43-.95 1.91-1.43s1.43-1.43 1.91-1.43c.95-.48 1.43-1.43 2.38-1.91 2.38-1.43 4.76-3.57 6.91-5 .95-.48 2.38-1.43 3.33-1.91 0 0 .48-.48.95-.48.95-.48 2.38-.95 3.33-1.43.71-1.67 2.14-2.38 3.1-2.86Z"/><path class="cls-32" d="M491.91 501.31c-.48-.48-.95-.95-1.43-1.91-.95-.95-1.43-2.38-2.38-3.57-.95-.95-1.91-2.38-2.86-3.57-1.91-1.91-3.81-4.53-5.72-6.43-2.38-2.38-4.76-4.53-7.38-6.43-1.43-.95-3.33-2.38-4.76-3.57-.48-.48-.95-.95-1.91-.95l-2.86-1.43c-.95-.48-1.91-.95-2.38-1.43-.48 0-.48-.48-.95-.48h-.48c-.95-.48-2.38-.95-3.33-1.43-1.43-.48-2.86-1.43-4.29-1.43-2.86-.95-5.96-1.91-9.29-2.38-2.86-.48-5.72-.95-8.34-.95h-1.91c-4.29-.48-8.81 0-13.58.48l-25.73 3.57-55.98-45.74c-1.43-.95-2.38-1.91-3.81-2.38-.48-.48-.95-.95-1.43-.95-.48-.48-.95-.95-1.91-.95-.95-.48-1.91-1.43-3.33-1.91-1.43-.95-3.33-1.43-4.76-2.38-6.91-3.57-14.53-5.96-21.92-6.43h-1.91c-15.48-1.91-30.73 1.43-44.78 9.53l-53.84 31.92 16.44 54.79h276.57c.71-3.1.24-3.1.24-3.57Z"/><path class="cls-28" d="m491.91 501.31-1.91.95H302.53l-4.29-95.52c.48 0 .95 0 1.91.48 7.38.95 15.01 3.1 21.92 6.43 1.43.95 3.33 1.43 4.76 2.38.95.48 1.91.95 3.33 1.91.48.48 1.43.48 1.91.95s.95.48 1.43.95c1.43.95 2.38 1.43 3.81 2.38l55.98 45.74 25.73-3.57c4.76-.48 9.29-.95 13.58-.48h1.91c2.86 0 5.72.48 8.34.95 3.33.48 5.96 1.43 9.29 2.38l4.29 1.43c1.43.48 2.38.95 3.33 1.43h.48c.48 0 .48.48.95.48.95.48 1.91.95 2.38 1.43l2.86 1.43c.48.48 1.43.48 1.91.95 1.43.95 3.33 1.91 4.76 3.57 2.38 1.91 5.24 4.05 7.38 6.43 1.91 1.91 3.81 4.05 5.72 6.43.48.95 1.43 1.43 1.91 2.38l.95.95c.48 3.57 1.43 5.24 2.86 7.15Z"/><path d="m491.91 501.31-1.91.95H367.8l24.77-33.83 25.73-3.57c4.76-.48 9.29-.95 13.58-.48h1.91c2.86 0 5.72.48 8.34.95 3.33.48 5.96 1.43 9.29 2.38l4.29 1.43c1.43.48 2.38.95 3.33 1.43h.48c.48 0 .48.48.95.48.95.48 1.91.95 2.38 1.43l2.86 1.43c.48.48 1.43.48 1.91.95 1.43.95 3.33 1.91 4.76 3.57 2.38 1.91 5.24 4.05 7.38 6.43 1.91 1.91 3.81 4.05 5.72 6.43.48.95 1.43 1.43 1.91 2.38l.95.95c1.19 3.1 2.14 4.76 3.57 6.67Z" style="fill:#57565c;stroke-width:0"/><path d="M65.69 0c5.32.94 8.99 3.54 11 7.81 2.98 6.29 1.87 12.04-3.31 17.23-2.09 1.21-3.47 1.95-4.13 2.24-1.4.62-3.26.98-5.55 1.09-2.99-.21-6-1.28-9.02-3.2-.58-.84-1.2-1.69-1.85-2.55-3.47-4.51-3.74-10.71-1.01-15.51C54.02 3.24 57.57.87 62.47 0h3.24Z" style="fill:#787f82;stroke-width:0"/><path class="cls-9" d="M253.43 64.89c-.52.1-.83.22-.95.36-12.77 14.55-40.2 46.04-82.27 94.45" vector-effect="non-scaling-stroke"/><path class="cls-2" d="m170.21 159.7-9.66-8.56" vector-effect="non-scaling-stroke"/><path class="cls-9" d="m176.81 132.42 8.27-9.48c.27-.31.25-.61-.06-.89a57256.05 57256.05 0 0 0-55.27-48.09c-.28-.24-.67-.38-1.19-.41M213.68 129.9l-8.19 9.34c-.2.23-.18.43.04.63l18.39 16.06" vector-effect="non-scaling-stroke"/><path class="cls-1" d="m223.93 155.93-8.63 9.98M180.2 168.32l-9.99-8.62" vector-effect="non-scaling-stroke"/><path class="cls-2" d="m232.34 146.22-8.41 9.7" vector-effect="non-scaling-stroke"/><path class="cls-6" d="m168.52 172.75-10.99-9.56M237.12 157.75l-9.61 11.01" vector-effect="non-scaling-stroke"/><path class="cls-3" d="m150.01 190.86-7.72-6.61M255.11 176.25l-6.87 7.85" vector-effect="non-scaling-stroke"/><path class="cls-24" d="M253.43 64.89c-.52.1-.83.22-.95.36-12.77 14.55-40.2 46.04-82.27 94.45l-9.66-8.56 16.26-18.73 8.27-9.48c.27-.31.25-.61-.06-.89a57256.05 57256.05 0 0 0-55.27-48.09c-.28-.24-.67-.38-1.19-.41.04-.19.11-.36.22-.49.08-.11.21-.18.36-.19l17-1.18c.47-.03.88.1 1.24.41l46.45 40.44c.09.08.18.08.26 0l40.61-46.65c.18-.21.44-.34.72-.36l17.51-1.21c.19-.01.34.07.43.24.06.11.08.23.07.35Z"/><path class="cls-22" d="M128.56 73.54c.52.04.91.17 1.19.41 18.53 16.11 36.96 32.14 55.27 48.09.31.28.33.58.06.89l-8.27 9.48-46.67-40.72c-.23-.2-.35-.44-.37-.74l-1.21-17.43ZM253.43 64.89l1.18 17.53c.02.29-.07.55-.26.78l-40.66 46.7-8.19 9.34c-.2.23-.18.43.04.63l18.39 16.06-8.63 9.98-18.48-16.08a.366.366 0 0 0-.52.03l-16.08 18.47-9.99-8.62c42.07-48.42 69.49-79.9 82.27-94.45.11-.14.43-.26.95-.36Z"/><path class="cls-24" d="m213.68 129.9 18.66 16.32-8.41 9.7-18.39-16.06c-.23-.19-.24-.4-.04-.63l8.19-9.34Z"/><path class="cls-36" d="m160.55 151.14 9.66 8.56 9.99 8.62c2.34 1.8 3.33 3.79 2.95 5.99-.32 1.93-1.37 3.32-3.14 4.18-1.92.92-3.92.55-6.01-1.13-2.02-1.62-3.85-3.16-5.49-4.61l-10.99-9.56a899.91 899.91 0 0 1-3.7-3.15c-1.74-1.48-2.83-2.66-3.26-3.54-1.36-2.78-.09-5.96 2.67-7.27 2.44-1.15 4.88-.52 7.31 1.91ZM237.12 157.75l-9.61 11.01c-1.5 1.66-3.1 3.42-4.8 5.28-1.6 1.76-3.35 2.46-5.26 2.08-1.75-.34-3.06-1.34-3.92-2.99-1.2-2.29-.61-4.7 1.78-7.22l8.63-9.98 8.41-9.7c2.66-3.31 5.37-4.12 8.12-2.42 1.49.92 2.36 2.17 2.61 3.75.27 1.72-.23 3.34-1.51 4.87-1.57 1.88-3.06 3.66-4.44 5.33Z"/><path class="cls-12" d="m157.53 163.19 10.99 9.56-18.51 18.11-7.72-6.61 15.24-21.06ZM237.12 157.75l18 18.5-6.87 7.85-20.73-15.33 9.61-11.01Z"/><path class="cls-26" d="m142.29 184.25 7.72 6.61c2.36 2.27 2.82 4.6 1.38 6.98-1.72 2.84-5.16 3.91-7.95 1.83-3.33-2.48-6.83-5.72-10.49-9.71l-.17-2.5c.59-2.69 1.95-4.32 4.09-4.89 2.28-.62 4.09-.06 5.43 1.68ZM264.89 178.43l.16 2.25c-3.04 4.69-5.94 8.32-8.7 10.89-2.67 2.49-5.19 2.68-7.56.58-2.59-2.27-2.85-5.46-.55-8.06l6.87-7.85c1.35-1.82 3.07-2.55 5.17-2.18 2.17.39 3.71 1.84 4.61 4.36Z"/></g></svg>