<svg id="Layer_2" data-name="Layer 2" xmlns="http://www.w3.org/2000/svg" viewBox="0 0 512.6 513"><defs><style>.cls-1{stroke:#ad8a83}.cls-1,.cls-10,.cls-11,.cls-12,.cls-2,.cls-3,.cls-5,.cls-6,.cls-7,.cls-8{fill:none}.cls-1,.cls-10,.cls-11,.cls-12,.cls-2,.cls-3,.cls-5,.cls-7,.cls-8{stroke-width:2px}.cls-14,.cls-16,.cls-18,.cls-25,.cls-26,.cls-28,.cls-31,.cls-32,.cls-35,.cls-41,.cls-42,.cls-43,.cls-45,.cls-6{stroke-width:0}.cls-14{fill:#188026}.cls-2{stroke:#c6a098}.cls-3{stroke:#b0662b}.cls-16{fill:#642116}.cls-18{fill:#265170}.cls-5{stroke:#e44d5c}.cls-25{fill:#fff}.cls-7{stroke:#924534}.cls-26{fill:#5a5e62}.cls-28{fill:#9aaab4}.cls-8{stroke:#ed8954}.cls-31{fill:#ccd6dd}.cls-32{fill:#dfebff}.cls-35{fill:#231f20}.cls-10{stroke:#b3c0c9}.cls-11{stroke:#e6d097}.cls-12{stroke:#f6925c}.cls-41{fill:#898890}.cls-42{fill:#3a8b41}.cls-43{fill:#5d110b}.cls-45{fill:#bf6952}</style></defs><g id="Capa_1" data-name="Capa 1"><path style="fill:#161a3c;stroke-width:0" d="M512.6 0v512.5l-146.17.5H.6V0h512z"/><path d="M40.54 35.04v201.73h-.4c-1.59-.61-2.71-1.94-3.37-3.98-.39-1.22-.59-3.32-.59-6.3-.05-64.65-.05-129.35-.01-194.08 1.46 1.58 2.92 2.45 4.37 2.63Z" style="fill:#adb4b9;stroke-width:0"/><path d="m45.23 32.31.09 12.49v178.39c0 4.39-.06 6.97-.18 7.75-.46 2.91-1.69 4.85-3.69 5.82h-.92V35.04c1.12-.08 2.01-.38 2.69-.89.32-.23.98-.84 2-1.84Z" style="fill:#8c9397;stroke-width:0"/><path d="M45.31 133.47V41.66c8.55 2.49 16.97 3.58 25.27 3.25 8.6-.34 17.35-1.33 26.23-2.97 3.79-.7 11.02-1.97 21.7-3.81 10-1.73 19.33-2.37 28.01-1.93 6.31.32 11.72 1.21 16.21 2.67 1.92.63 2.91 2.11 2.98 4.46.06 2.06.07 5 .04 8.82 0 .16-.08.31-.22.39-2.4 1.45-3.67 2.22-3.8 2.3-1.05.72-1.47 1.57-1.24 2.54.11.49.59 1.13 1.44 1.92 1.2 1.13 2.42 2.25 3.63 3.36.14.13.2.28.2.46v18.11c0 .25-.14.47-.36.58-2.23 1.05-4.45 2.11-6.66 3.18-1.12.54-1.79 1.04-2.03 1.49-.79 1.5.22 2.58 1.49 3.51 2.95 2.16 5.4 3.95 7.33 5.38.16.11.25.3.24.49v1.97c0 .17-.09.33-.23.43-.63.43-1.51.82-1.98 1.29-2.27 2.21.65 4.08 2.09 5.49.08.07.12.16.12.27v10.63c0 .15-.1.29-.24.34-.84.32-1.77.84-2.1 1.79-.69 1.93 1.05 2.73 2.26 3.71.05.04.08.15.08.31v2.39c0 1.02-.09 1.81-.28 2.38-.49 1.47-1.45 2.44-2.85 2.91-.82.27-2.01.24-3.57-.09-6.12-1.3-11.83-1.92-17.14-1.85-15.84.19-27.33 2.77-47.53 6.32-7.09 1.25-14.23 2.07-21.41 2.47-9.4.52-18.62-.53-27.67-3.14Z" style="stroke-width:0;fill:#89171a"/><path d="M41.5 22.13c2.58.46 4.36 1.72 5.34 3.79 1.45 3.05.91 5.84-1.61 8.36-1.01.59-1.68.95-2 1.09-.68.3-1.58.48-2.69.53-1.45-.1-2.91-.62-4.37-1.55-.28-.41-.58-.82-.9-1.24-1.68-2.19-1.81-5.19-.49-7.52 1.07-1.88 2.79-3.03 5.17-3.45h1.57Z" style="fill:#787f82;stroke-width:0"/><path class="cls-10" d="M132.56 53.6c-.25.05-.4.11-.46.17-6.19 7.06-19.5 22.33-39.9 45.81" vector-effect="non-scaling-stroke"/><path class="cls-2" d="m92.2 99.58-4.69-4.15" vector-effect="non-scaling-stroke"/><path class="cls-10" d="m95.4 86.35 4.01-4.6c.13-.15.12-.3-.03-.43C90.5 73.58 81.56 65.8 72.57 58c-.14-.12-.32-.18-.58-.2M113.28 85.13l-3.97 4.53c-.1.11-.09.21.02.31l8.92 7.79" vector-effect="non-scaling-stroke"/><path class="cls-1" d="m118.25 97.75-4.19 4.84M97.04 103.76l-4.85-4.18" vector-effect="non-scaling-stroke"/><path class="cls-2" d="m122.33 93.05-4.08 4.7" vector-effect="non-scaling-stroke"/><path class="cls-7" d="m91.38 105.91-5.33-4.64M124.65 98.64l-4.66 5.34" vector-effect="non-scaling-stroke"/><path class="cls-3" d="m82.4 114.7-3.74-3.21M133.37 107.61l-3.33 3.81" vector-effect="non-scaling-stroke"/><path class="cls-31" d="M132.56 53.6c-.25.05-.4.11-.46.17-6.19 7.06-19.5 22.33-39.9 45.81l-4.69-4.15 7.89-9.08 4.01-4.6c.13-.15.12-.3-.03-.43C90.5 73.58 81.56 65.8 72.57 58c-.14-.12-.32-.18-.58-.2.02-.09.05-.17.11-.24.04-.05.1-.09.17-.09l8.25-.57c.23-.01.43.05.6.2l22.53 19.61s.09.04.13 0l19.7-22.63c.09-.1.21-.16.35-.17l8.49-.59c.09 0 .16.03.21.12.03.05.04.11.03.17Z"/><path class="cls-28" d="M72 57.8c.25.02.44.08.58.2 8.99 7.81 17.93 15.59 26.81 23.32.15.14.16.28.03.43l-4.01 4.6L72.77 66.6a.504.504 0 0 1-.18-.36L72 57.79ZM132.56 53.6l.57 8.5c0 .14-.03.27-.13.38l-19.72 22.65-3.97 4.53c-.1.11-.09.21.02.31l8.92 7.79-4.19 4.84-8.96-7.8a.175.175 0 0 0-.25.01l-7.8 8.96-4.85-4.18c20.4-23.48 33.7-38.75 39.9-45.81.05-.07.21-.13.46-.17Z"/><path class="cls-31" d="m113.28 85.13 9.05 7.92-4.08 4.7-8.92-7.79c-.11-.09-.12-.19-.02-.31l3.97-4.53Z"/><path class="cls-45" d="m87.51 95.43 4.69 4.15 4.85 4.18c1.13.87 1.62 1.84 1.43 2.91-.16.94-.66 1.61-1.52 2.03-.93.45-1.9.27-2.91-.55-.98-.79-1.87-1.53-2.66-2.24l-5.33-4.64c-.6-.5-1.19-1.01-1.79-1.53-.84-.72-1.37-1.29-1.58-1.72-.66-1.35-.04-2.89 1.29-3.53 1.18-.56 2.37-.25 3.55.93ZM124.65 98.64l-4.66 5.34c-.73.81-1.5 1.66-2.33 2.56-.78.85-1.62 1.19-2.55 1.01-.85-.16-1.48-.65-1.9-1.45-.58-1.11-.3-2.28.86-3.5l4.19-4.84 4.08-4.7c1.29-1.61 2.6-2 3.94-1.17.72.45 1.14 1.05 1.27 1.82.13.83-.11 1.62-.73 2.36-.76.91-1.48 1.78-2.15 2.59Z"/><path class="cls-16" d="m86.05 101.28 5.33 4.64-8.98 8.78-3.74-3.21 7.39-10.21ZM124.65 98.64l8.73 8.97-3.33 3.81-10.05-7.44 4.66-5.34Z"/><path class="cls-35" d="m78.66 111.49 3.74 3.21c1.14 1.1 1.37 2.23.67 3.39-.83 1.38-2.5 1.9-3.86.89-1.62-1.2-3.31-2.77-5.09-4.71l-.08-1.21c.29-1.3.95-2.1 1.98-2.37 1.11-.3 1.98-.03 2.63.81ZM138.12 108.67l.08 1.09c-1.47 2.27-2.88 4.04-4.22 5.28-1.29 1.21-2.52 1.3-3.67.28-1.26-1.1-1.38-2.65-.27-3.91l3.33-3.81c.65-.88 1.49-1.24 2.51-1.06 1.05.19 1.8.89 2.24 2.11Z"/><path d="m480.7 245.24-22.16-26.01H270.42c.03.07.06.15.09.22.24.62.5 1.24.77 1.86a73.566 73.566 0 0 0 3.05 6.17c.27.48.53.96.81 1.43.02.05.04.09.07.12.2.36.41.71.63 1.06.42.72.85 1.42 1.3 2.11.13.23.28.45.43.68.15.23.29.46.45.68.37.58.75 1.15 1.14 1.71.21.41.41.41.62.41l3.19-1.54c.2 0 .61 0 .61.21.21.2 0 .61-.2.82-.36.37-.73.74-1.1 1.1l-19.79-1.19-16.99-1.01-9.11-.55-7.3-14.29h-61.44l-16.86 7.99-8.96-7.99h-21.36L91.66 237.9l-17.83 17.93-1.8-21.16-19.77-15.44H0V512.5h512.6V243.29l-31.9 1.95Z" style="fill:#666a6e;stroke-width:0"/><path class="cls-6" d="M512.6 499.89v-256.6l-31.9 1.95-22.16-26.01H270.42c.03.07.06.15.09.22.24.62.5 1.24.77 1.86a73.566 73.566 0 0 0 3.05 6.17c.27.48.53.96.81 1.43.02.05.04.09.07.12.2.36.41.71.63 1.06.42.72.85 1.42 1.3 2.11.13.23.28.45.43.68.52.81 1.05 1.61 1.59 2.39.21.41.41.41.62.41l3.19-1.54c.2 0 .61 0 .61.21.21.2 0 .61-.2.82-.36.37-.73.74-1.1 1.1l-19.79-1.19-16.99-1.01-9.11-.55-7.3-14.29h-61.44l-16.86 7.99-8.96-7.99h-21.36L91.66 237.9l-17.83 17.93-1.8-21.16-19.77-15.44H0V512.5h512.6"/><path class="cls-6" d="M512.6 499.89v-256.6l-31.9 1.95-22.16-26.01H270.42c.03.07.06.15.09.22.24.62.5 1.24.77 1.86a73.566 73.566 0 0 0 3.05 6.17c.27.48.53.96.81 1.43.02.05.04.09.07.12.2.36.41.71.63 1.06.42.72.85 1.42 1.3 2.11.13.23.28.45.43.68.52.81 1.05 1.61 1.59 2.39.21.41.41.41.62.41l3.19-1.54c.2 0 .61 0 .61.21.21.2 0 .61-.2.82-.36.37-.73.74-1.1 1.1l-19.79-1.19-16.99-1.01-9.11-.55-7.3-14.29h-61.44l-16.86 7.99-8.96-7.99h-21.36L91.66 237.9l-17.83 17.93-1.8-21.16-19.77-15.44H0V512.5h512.6"/><path class="cls-6" d="M512.6 499.89v-256.6l-31.9 1.95-22.16-26.01H270.42c.03.07.06.15.09.22.24.62.5 1.24.77 1.86a73.566 73.566 0 0 0 3.05 6.17c.27.48.53.96.81 1.43.02.05.04.09.07.12.2.36.41.71.63 1.06.42.72.85 1.42 1.3 2.11.13.23.28.45.43.68.52.81 1.05 1.61 1.59 2.39.21.41.41.41.62.41l3.19-1.54c.2 0 .61 0 .61.21.21.2 0 .61-.2.82-.36.37-.73.74-1.1 1.1l-19.79-1.19-16.99-1.01-9.11-.55-7.3-14.29h-61.44l-16.86 7.99-8.96-7.99h-21.36L91.66 237.9l-17.83 17.93-1.8-21.16-19.77-15.44H0V512.5h512.6"/><path class="cls-6" d="M512.6 499.89v-256.6l-31.9 1.95-22.16-26.01H270.42c.03.07.06.15.09.22.24.62.5 1.24.77 1.86a73.566 73.566 0 0 0 3.05 6.17c.27.48.53.96.81 1.43.02.05.04.09.07.12.2.36.41.71.63 1.06.42.72.85 1.42 1.3 2.11.13.23.28.45.43.68.52.81 1.05 1.61 1.59 2.39.21.41.41.41.62.41l3.19-1.54c.2 0 .61 0 .61.21.21.2 0 .61-.2.82-.36.37-.73.74-1.1 1.1l-19.79-1.19-16.99-1.01-9.11-.55-7.3-14.29h-61.44l-16.86 7.99-8.96-7.99h-21.36L91.66 237.9l-17.83 17.93-1.8-21.16-19.77-15.44H0V512.5h512.6"/><path class="cls-6" d="M512.6 499.89v-256.6l-31.9 1.95-22.16-26.01H270.42c.03.07.06.15.09.22.24.62.5 1.24.77 1.86a73.566 73.566 0 0 0 3.05 6.17c.27.48.53.96.81 1.43.02.05.04.09.07.12.2.36.41.71.63 1.06.42.72.85 1.42 1.3 2.11.13.23.28.45.43.68.52.81 1.05 1.61 1.59 2.39.21.41.41.41.62.41l3.19-1.54c.2 0 .61 0 .61.21.21.2 0 .61-.2.82-.36.37-.73.74-1.1 1.1l-19.79-1.19-16.99-1.01-9.11-.55-7.3-14.29h-61.44l-16.86 7.99-8.96-7.99h-21.36L91.66 237.9l-17.83 17.93-1.8-21.16-19.77-15.44H0V512.5h512.6"/><path class="cls-6" d="M512.6 499.89v-256.6l-31.9 1.95-22.16-26.01H270.42c.03.07.06.15.09.22.24.62.5 1.24.77 1.86a73.566 73.566 0 0 0 3.05 6.17c.27.48.53.96.81 1.43.02.05.04.09.07.12.2.36.41.71.63 1.06.42.72.85 1.42 1.3 2.11.13.23.28.45.43.68.52.81 1.05 1.61 1.59 2.39.21.41.41.41.62.41l3.19-1.54c.2 0 .61 0 .61.21.21.2 0 .61-.2.82-.36.37-.73.74-1.1 1.1l-19.79-1.19-16.99-1.01-9.11-.55-7.3-14.29h-61.44l-16.86 7.99-8.96-7.99h-21.36L91.66 237.9l-17.83 17.93-1.8-21.16-19.77-15.44H0V512.5h512.6"/><path class="cls-6" d="M512.6 499.89v-256.6l-31.9 1.95-22.16-26.01H270.42c.03.07.06.15.09.22.24.62.5 1.24.77 1.86a73.566 73.566 0 0 0 3.05 6.17c.27.48.53.96.81 1.43.02.05.04.09.07.12.2.36.41.71.63 1.06.42.72.85 1.42 1.3 2.11.13.23.28.45.43.68.52.81 1.05 1.61 1.59 2.39.21.41.41.41.62.41l3.19-1.54c.2 0 .61 0 .61.21.21.2 0 .61-.2.82-.36.37-.73.74-1.1 1.1l-19.79-1.19-16.99-1.01-9.11-.55-7.3-14.29h-61.44l-16.86 7.99-8.96-7.99h-21.36L91.66 237.9l-17.83 17.93-1.8-21.16-19.77-15.44H0V512.5h512.6"/><path class="cls-6" d="M512.6 499.89v-256.6l-31.9 1.95-22.16-26.01H270.42c.03.07.06.15.09.22.24.62.5 1.24.77 1.86a73.566 73.566 0 0 0 3.05 6.17c.27.48.53.96.81 1.43.02.05.04.09.07.12.2.36.41.71.63 1.06.42.72.85 1.42 1.3 2.11.13.23.28.45.43.68.52.81 1.05 1.61 1.59 2.39.21.41.41.41.62.41l3.19-1.54c.2 0 .61 0 .61.21.21.2 0 .61-.2.82-.36.37-.73.74-1.1 1.1l-19.79-1.19-16.99-1.01-9.11-.55-7.3-14.29h-61.44l-16.86 7.99-8.96-7.99h-21.36L91.66 237.9l-17.83 17.93-1.8-21.16-19.77-15.44H0V512.5h512.6"/><path class="cls-6" d="M512.6 499.89v-256.6l-31.9 1.95-22.16-26.01H270.42c.03.07.06.15.09.22.24.62.5 1.24.77 1.86a73.566 73.566 0 0 0 3.05 6.17c.27.48.53.96.81 1.43.02.05.04.09.07.12.2.36.41.71.63 1.06.42.72.85 1.42 1.3 2.11.13.23.28.45.43.68.52.81 1.05 1.61 1.59 2.39.21.41.41.41.62.41l3.19-1.54c.2 0 .61 0 .61.21.21.2 0 .61-.2.82-.36.37-.73.74-1.1 1.1l-19.79-1.19-16.99-1.01-9.11-.55-7.3-14.29h-61.44l-16.86 7.99-8.96-7.99h-21.36L91.66 237.9l-17.83 17.93-1.8-21.16-19.77-15.44H0V512.5h512.6"/><path class="cls-6" d="M512.6 499.89v-256.6l-31.9 1.95-22.16-26.01H270.42c.03.07.06.15.09.22.24.62.5 1.24.77 1.86a73.566 73.566 0 0 0 3.05 6.17c.27.48.53.96.81 1.43.02.05.04.09.07.12.2.36.41.71.63 1.06.42.72.85 1.42 1.3 2.11.13.23.28.45.43.68.52.81 1.05 1.61 1.59 2.39.21.41.41.41.62.41l3.19-1.54c.2 0 .61 0 .61.21.21.2 0 .61-.2.82-.36.37-.73.74-1.1 1.1l-19.79-1.19-16.99-1.01-9.11-.55-7.3-14.29h-61.44l-16.86 7.99-8.96-7.99h-21.36L91.66 237.9l-17.83 17.93-1.8-21.16-19.77-15.44H0V512.5h512.6"/><path class="cls-6" d="M512.6 499.89v-256.6l-31.9 1.95-22.16-26.01H270.42c.03.07.06.15.09.22.24.62.5 1.24.77 1.86a73.566 73.566 0 0 0 3.05 6.17c.27.48.53.96.81 1.43.02.05.04.09.07.12.2.36.41.71.63 1.06.42.72.85 1.42 1.3 2.11.13.23.28.45.43.68.52.81 1.05 1.61 1.59 2.39.21.41.41.41.62.41l3.19-1.54c.2 0 .61 0 .61.21.21.2 0 .61-.2.82-.36.37-.73.74-1.1 1.1l-19.79-1.19-16.99-1.01-9.11-.55-7.3-14.29h-61.44l-16.86 7.99-8.96-7.99h-21.36L91.66 237.9l-17.83 17.93-1.8-21.16-19.77-15.44H0V512.5h512.6"/><path class="cls-6" d="M512.6 499.89v-256.6l-31.9 1.95-22.16-26.01H270.42c.03.07.06.15.09.22.24.62.5 1.24.77 1.86a73.566 73.566 0 0 0 3.05 6.17c.27.48.53.96.81 1.43.02.05.04.09.07.12.2.36.41.71.63 1.06.42.72.85 1.42 1.3 2.11.13.23.28.45.43.68.52.81 1.05 1.61 1.59 2.39.21.41.41.41.62.41l3.19-1.54c.2 0 .61 0 .61.21.21.2 0 .61-.2.82-.36.37-.73.74-1.1 1.1l-19.79-1.19-16.99-1.01-9.11-.55-7.3-14.29h-61.44l-16.86 7.99-8.96-7.99h-21.36L91.66 237.9l-17.83 17.93-1.8-21.16-19.77-15.44H0V512.5h512.6"/><path class="cls-6" d="M512.6 499.89v-256.6l-31.9 1.95-22.16-26.01H270.42c.03.07.06.15.09.22.24.62.5 1.24.77 1.86a73.566 73.566 0 0 0 3.05 6.17c.27.48.53.96.81 1.43.02.05.04.09.07.12.2.36.41.71.63 1.06.42.72.85 1.42 1.3 2.11.13.23.28.45.43.68.52.81 1.05 1.61 1.59 2.39.21.41.41.41.62.41l3.19-1.54c.2 0 .61 0 .61.21.21.2 0 .61-.2.82-.36.37-.73.74-1.1 1.1l-19.79-1.19-16.99-1.01-9.11-.55-7.3-14.29h-61.44l-16.86 7.99-8.96-7.99h-21.36L91.66 237.9l-17.83 17.93-1.8-21.16-19.77-15.44H0V512.5h512.6"/><path class="cls-6" d="M512.6 499.89v-256.6l-31.9 1.95-22.16-26.01H270.42c.03.07.06.15.09.22.24.62.5 1.24.77 1.86a73.566 73.566 0 0 0 3.05 6.17c.27.48.53.96.81 1.43.02.05.04.09.07.12.2.36.41.71.63 1.06.42.72.85 1.42 1.3 2.11.13.23.28.45.43.68.52.81 1.05 1.61 1.59 2.39.21.41.41.41.62.41l3.19-1.54c.2 0 .61 0 .61.21.21.2 0 .61-.2.82-.36.37-.73.74-1.1 1.1l-19.79-1.19-16.99-1.01-9.11-.55-7.3-14.29h-61.44l-16.86 7.99-8.96-7.99h-21.36L91.66 237.9l-17.83 17.93-1.8-21.16-19.77-15.44H0V512.5h512.6"/><path class="cls-6" d="M512.6 499.89v-256.6l-31.9 1.95-22.16-26.01H270.42c.03.07.06.15.09.22.24.62.5 1.24.77 1.86a73.566 73.566 0 0 0 3.05 6.17c.27.48.53.96.81 1.43.02.05.04.09.07.12.2.36.41.71.63 1.06.42.72.85 1.42 1.3 2.11.13.23.28.45.43.68.52.81 1.05 1.61 1.59 2.39.21.41.41.41.62.41l3.19-1.54c.2 0 .61 0 .61.21.21.2 0 .61-.2.82-.36.37-.73.74-1.1 1.1l-19.79-1.19-16.99-1.01-9.11-.55-7.3-14.29h-61.44l-16.86 7.99-8.96-7.99h-21.36L91.66 237.9l-17.83 17.93-1.8-21.16-19.77-15.44H0V512.5h512.6"/><path class="cls-6" d="M512.6 499.89v-256.6l-31.9 1.95-22.16-26.01H270.42c.03.07.06.15.09.22.24.62.5 1.24.77 1.86a73.566 73.566 0 0 0 3.05 6.17c.27.48.53.96.81 1.43.02.05.04.09.07.12.2.36.41.71.63 1.06.42.72.85 1.42 1.3 2.11.13.23.28.45.43.68.52.81 1.05 1.61 1.59 2.39.21.41.41.41.62.41l3.19-1.54c.2 0 .61 0 .61.21.21.2 0 .61-.2.82-.36.37-.73.74-1.1 1.1l-19.79-1.19-16.99-1.01-9.11-.55-7.3-14.29h-61.44l-16.86 7.99-8.96-7.99h-21.36L91.66 237.9l-17.83 17.93-1.8-21.16-19.77-15.44H0V512.5h512.6"/><path class="cls-6" d="M512.6 499.89v-256.6l-31.9 1.95-22.16-26.01H270.42c.03.07.06.15.09.22.24.62.5 1.24.77 1.86a73.566 73.566 0 0 0 3.05 6.17c.27.48.53.96.81 1.43.02.05.04.09.07.12.2.36.41.71.63 1.06.42.72.85 1.42 1.3 2.11.13.23.28.45.43.68.52.81 1.05 1.61 1.59 2.39.21.41.41.41.62.41l3.19-1.54c.2 0 .61 0 .61.21.21.2 0 .61-.2.82-.36.37-.73.74-1.1 1.1l-19.79-1.19-16.99-1.01-9.11-.55-7.3-14.29h-61.44l-16.86 7.99-8.96-7.99h-21.36L91.66 237.9l-17.83 17.93-1.8-21.16-19.77-15.44H0V512.5h512.6"/><path class="cls-6" d="M512.6 499.89v-256.6l-31.9 1.95-22.16-26.01H270.42c.03.07.06.15.09.22.24.62.5 1.24.77 1.86a73.566 73.566 0 0 0 3.05 6.17c.27.48.53.96.81 1.43.02.05.04.09.07.12.2.36.41.71.63 1.06.42.72.85 1.42 1.3 2.11.13.23.28.45.43.68.52.81 1.05 1.61 1.59 2.39.21.41.41.41.62.41l3.19-1.54c.2 0 .61 0 .61.21.21.2 0 .61-.2.82-.36.37-.73.74-1.1 1.1l-19.79-1.19-16.99-1.01-9.11-.55-7.3-14.29h-61.44l-16.86 7.99-8.96-7.99h-21.36L91.66 237.9l-17.83 17.93-1.8-21.16-19.77-15.44H0V512.5h512.6"/><path class="cls-6" d="M512.6 499.89v-256.6l-31.9 1.95-22.16-26.01H270.42c.03.07.06.15.09.22.24.62.5 1.24.77 1.86a73.566 73.566 0 0 0 3.05 6.17c.27.48.53.96.81 1.43.02.05.04.09.07.12.2.36.41.71.63 1.06.42.72.85 1.42 1.3 2.11.13.23.28.45.43.68.52.81 1.05 1.61 1.59 2.39.21.41.41.41.62.41l3.19-1.54c.2 0 .61 0 .61.21.21.2 0 .61-.2.82-.36.37-.73.74-1.1 1.1l-19.79-1.19-16.99-1.01-9.11-.55-7.3-14.29h-61.44l-16.86 7.99-8.96-7.99h-21.36L91.66 237.9l-17.83 17.93-1.8-21.16-19.77-15.44H0V512.5h512.6"/><path class="cls-6" d="M512.6 499.89v-256.6l-31.9 1.95-22.16-26.01H270.42c.03.07.06.15.09.22.24.62.5 1.24.77 1.86a73.566 73.566 0 0 0 3.05 6.17c.27.48.53.96.81 1.43.02.05.04.09.07.12.2.36.41.71.63 1.06.42.72.85 1.42 1.3 2.11.13.23.28.45.43.68.52.81 1.05 1.61 1.59 2.39.21.41.41.41.62.41l3.19-1.54c.2 0 .61 0 .61.21.21.2 0 .61-.2.82-.36.37-.73.74-1.1 1.1l-19.79-1.19-16.99-1.01-9.11-.55-7.3-14.29h-61.44l-16.86 7.99-8.96-7.99h-21.36L91.66 237.9l-17.83 17.93-1.8-21.16-19.77-15.44H0V512.5h512.6"/><path class="cls-6" d="M512.6 499.89v-256.6l-31.9 1.95-22.16-26.01H270.42c.03.07.06.15.09.22.24.62.5 1.24.77 1.86a73.566 73.566 0 0 0 3.05 6.17c.27.48.53.96.81 1.43.02.05.04.09.07.12.2.36.41.71.63 1.06.42.72.85 1.42 1.3 2.11.13.23.28.45.43.68.52.81 1.05 1.61 1.59 2.39.21.41.41.41.62.41l3.19-1.54c.2 0 .61 0 .61.21.21.2 0 .61-.2.82-.36.37-.73.74-1.1 1.1l-19.79-1.19-16.99-1.01-9.11-.55-7.3-14.29h-61.44l-16.86 7.99-8.96-7.99h-21.36L91.66 237.9l-17.83 17.93-1.8-21.16-19.77-15.44H0V512.5h512.6"/><path class="cls-6" d="M512.6 499.89v-256.6l-31.9 1.95-22.16-26.01H270.42c.03.07.06.15.09.22.24.62.5 1.24.77 1.86a73.566 73.566 0 0 0 3.05 6.17c.27.48.53.96.81 1.43.02.05.04.09.07.12.2.36.41.71.63 1.06.42.72.85 1.42 1.3 2.11.13.23.28.45.43.68.52.81 1.05 1.61 1.59 2.39.21.41.41.41.62.41l3.19-1.54c.2 0 .61 0 .61.21.21.2 0 .61-.2.82-.36.37-.73.74-1.1 1.1l-19.79-1.19-16.99-1.01-9.11-.55-7.3-14.29h-61.44l-16.86 7.99-8.96-7.99h-21.36L91.66 237.9l-17.83 17.93-1.8-21.16-19.77-15.44H0V512.5h512.6"/><path class="cls-6" d="M512.6 499.89v-256.6l-31.9 1.95-22.16-26.01H270.42c.03.07.06.15.09.22.24.62.5 1.24.77 1.86a73.566 73.566 0 0 0 3.05 6.17c.27.48.53.96.81 1.43.02.05.04.09.07.12.2.36.41.71.63 1.06.42.72.85 1.42 1.3 2.11.13.23.28.45.43.68.52.81 1.05 1.61 1.59 2.39.21.41.41.41.62.41l3.19-1.54c.2 0 .61 0 .61.21.21.2 0 .61-.2.82-.36.37-.73.74-1.1 1.1l-19.79-1.19-16.99-1.01-9.11-.55-7.3-14.29h-61.44l-16.86 7.99-8.96-7.99h-21.36L91.66 237.9l-17.83 17.93-1.8-21.16-19.77-15.44H0V512.5h512.6"/><path class="cls-6" d="M512.6 499.89v-256.6l-31.9 1.95-22.16-26.01H270.42c.03.07.06.15.09.22.24.62.5 1.24.77 1.86a73.566 73.566 0 0 0 3.05 6.17c.27.48.53.96.81 1.43.02.05.04.09.07.12.2.36.41.71.63 1.06.42.72.85 1.42 1.3 2.11.13.23.28.45.43.68.52.81 1.05 1.61 1.59 2.39.21.41.41.41.62.41l3.19-1.54c.2 0 .61 0 .61.21.21.2 0 .61-.2.82-.36.37-.73.74-1.1 1.1l-19.79-1.19-16.99-1.01-9.11-.55-7.3-14.29h-61.44l-16.86 7.99-8.96-7.99h-21.36L91.66 237.9l-17.83 17.93-1.8-21.16-19.77-15.44H0V512.5h512.6"/><path class="cls-6" d="M512.6 499.89v-256.6l-31.9 1.95-22.16-26.01H270.42c.03.07.06.15.09.22.24.62.5 1.24.77 1.86a73.566 73.566 0 0 0 3.05 6.17c.27.48.53.96.81 1.43.02.05.04.09.07.12.2.36.41.71.63 1.06.42.72.85 1.42 1.3 2.11.13.23.28.45.43.68.52.81 1.05 1.61 1.59 2.39.21.41.41.41.62.41l3.19-1.54c.2 0 .61 0 .61.21.21.2 0 .61-.2.82-.36.37-.73.74-1.1 1.1l-19.79-1.19-16.99-1.01-9.11-.55-7.3-14.29h-61.44l-16.86 7.99-8.96-7.99h-21.36L91.66 237.9l-17.83 17.93-1.8-21.16-19.77-15.44H0V512.5h512.6"/><path class="cls-6" d="M512.6 499.89v-256.6l-31.9 1.95-22.16-26.01H270.42c.03.07.06.15.09.22.24.62.5 1.24.77 1.86a73.566 73.566 0 0 0 3.05 6.17c.27.48.53.96.81 1.43.02.05.04.09.07.12.2.36.41.71.63 1.06.42.72.85 1.42 1.3 2.11.13.23.28.45.43.68.52.81 1.05 1.61 1.59 2.39.21.41.41.41.62.41l3.19-1.54c.2 0 .61 0 .61.21.21.2 0 .61-.2.82-.36.37-.73.74-1.1 1.1l-19.79-1.19-16.99-1.01-9.11-.55-7.3-14.29h-61.44l-16.86 7.99-8.96-7.99h-21.36L91.66 237.9l-17.83 17.93-1.8-21.16-19.77-15.44H0V512.5h512.6"/><path class="cls-6" d="M512.6 499.89v-256.6l-31.9 1.95-22.16-26.01H270.42c.03.07.06.15.09.22.24.62.5 1.24.77 1.86a73.566 73.566 0 0 0 3.05 6.17c.27.48.53.96.81 1.43.02.05.04.09.07.12.2.36.41.71.63 1.06.42.72.85 1.42 1.3 2.11.13.23.28.45.43.68.52.81 1.05 1.61 1.59 2.39.21.41.41.41.62.41l3.19-1.54c.2 0 .61 0 .61.21.21.2 0 .61-.2.82-.36.37-.73.74-1.1 1.1l-19.79-1.19-16.99-1.01-9.11-.55-7.3-14.29h-61.44l-16.86 7.99-8.96-7.99h-21.36L91.66 237.9l-17.83 17.93-1.8-21.16-19.77-15.44H0V512.5h512.6"/><path class="cls-6" d="M512.6 499.89v-256.6l-31.9 1.95-22.16-26.01H270.42c.03.07.06.15.09.22.24.62.5 1.24.77 1.86a73.566 73.566 0 0 0 3.05 6.17c.27.48.53.96.81 1.43.02.05.04.09.07.12.2.36.41.71.63 1.06.42.72.85 1.42 1.3 2.11.13.23.28.45.43.68.52.81 1.05 1.61 1.59 2.39.21.41.41.41.62.41l3.19-1.54c.2 0 .61 0 .61.21.21.2 0 .61-.2.82-.36.37-.73.74-1.1 1.1l-19.79-1.19-16.99-1.01-9.11-.55-7.3-14.29h-61.44l-16.86 7.99-8.96-7.99h-21.36L91.66 237.9l-17.83 17.93-1.8-21.16-19.77-15.44H0V512.5h512.6"/><path class="cls-6" d="M512.6 499.89v-256.6l-31.9 1.95-22.16-26.01H270.42c.03.07.06.15.09.22.24.62.5 1.24.77 1.86a73.566 73.566 0 0 0 3.05 6.17c.27.48.53.96.81 1.43.02.05.04.09.07.12.2.36.41.71.63 1.06.42.72.85 1.42 1.3 2.11.13.23.28.45.43.68.52.81 1.05 1.61 1.59 2.39.21.41.41.41.62.41l3.19-1.54c.2 0 .61 0 .61.21.21.2 0 .61-.2.82-.36.37-.73.74-1.1 1.1l-19.79-1.19-16.99-1.01-9.11-.55-7.3-14.29h-61.44l-16.86 7.99-8.96-7.99h-21.36L91.66 237.9l-17.83 17.93-1.8-21.16-19.77-15.44H0V512.5h512.6"/><path class="cls-26" d="M511.02 255.83c.54 0 1.06.04 1.58.12v40.7c-.52.07-1.05.11-1.58.11h-39.79c-7.4 0-13.47-6.48-13.47-14.4v-12.13c0-2.47.58-4.79 1.6-6.83.09-.17.18-.34.27-.5 2.33-4.23 6.62-7.07 11.6-7.07h39.79Z"/><path class="cls-6" d="M512.6 499.89v-256.6l-31.9 1.95-22.16-26.01H270.42c.03.07.06.15.09.22.24.62.5 1.24.77 1.86a73.566 73.566 0 0 0 3.05 6.17c.27.48.53.96.81 1.43.02.05.04.09.07.12.2.36.41.71.63 1.06.42.72.85 1.42 1.3 2.11.13.23.28.45.43.68.52.81 1.05 1.61 1.59 2.39.21.41.41.41.62.41l3.19-1.54c.2 0 .61 0 .61.21.21.2 0 .61-.2.82-.36.37-.73.74-1.1 1.1l-19.79-1.19-16.99-1.01-9.11-.55-7.3-14.29h-61.44l-16.86 7.99-8.96-7.99h-21.36L91.66 237.9l-17.83 17.93-1.8-21.16-19.77-15.44H0V512.5h512.6"/><path class="cls-26" d="M512.6 311.77v49.35h-9.8a13.879 13.879 0 0 1-4.79-.85c-5.66-2.07-9.71-7.74-9.71-14.57v-18.51c0-2.42.52-4.71 1.46-6.74 2.34-5.14 7.29-8.68 13.04-8.68h9.8Z"/><path class="cls-6" d="M512.6 499.89v-256.6l-31.9 1.95-22.16-26.01H270.42c.03.07.06.15.09.22.24.62.5 1.24.77 1.86a73.566 73.566 0 0 0 3.05 6.17c.27.48.53.96.81 1.43.02.05.04.09.07.12.2.36.41.71.63 1.06.42.72.85 1.42 1.3 2.11.13.23.28.45.43.68.52.81 1.05 1.61 1.59 2.39.21.41.41.41.62.41l3.19-1.54c.2 0 .61 0 .61.21.21.2 0 .61-.2.82-.36.37-.73.74-1.1 1.1l-19.79-1.19-16.99-1.01-9.11-.55-7.3-14.29h-61.44l-16.86 7.99-8.96-7.99h-21.36L91.66 237.9l-17.83 17.93-1.8-21.16-19.77-15.44H0V512.5h512.6"/><path class="cls-26" d="M506.09 396.18c0-10.08-7.71-18.1-17.17-18.1l-45.24.21c-9.46 0-16.97 8.12-16.97 18.3v13.78c0 10.08 7.71 18.1 17.17 18.1l45.24-.21c9.46 0 16.97-8.12 16.97-18.3v-13.78Z"/><path class="cls-6" d="M512.6 499.89v-256.6l-31.9 1.95-22.16-26.01H270.42c.03.07.06.15.09.22.24.62.5 1.24.77 1.86a73.566 73.566 0 0 0 3.05 6.17c.27.48.53.96.81 1.43.02.05.04.09.07.12.2.36.41.71.63 1.06.42.72.85 1.42 1.3 2.11.13.23.28.45.43.68.52.81 1.05 1.61 1.59 2.39.21.41.41.41.62.41l3.19-1.54c.2 0 .61 0 .61.21.21.2 0 .61-.2.82-.36.37-.73.74-1.1 1.1l-19.79-1.19-16.99-1.01-9.11-.55-7.3-14.29h-61.44l-16.86 7.99-8.96-7.99h-21.36L91.66 237.9l-17.83 17.93-1.8-21.16-19.77-15.44H0V512.5h512.6"/><path class="cls-6" d="M512.6 499.89v-256.6l-31.9 1.95-22.16-26.01H270.42c.03.07.06.15.09.22.24.62.5 1.24.77 1.86a73.566 73.566 0 0 0 3.05 6.17c.27.48.53.96.81 1.43.02.05.04.09.07.12.2.36.41.71.63 1.06.42.72.85 1.42 1.3 2.11.13.23.28.45.43.68.52.81 1.05 1.61 1.59 2.39.21.41.41.41.62.41l3.19-1.54c.2 0 .61 0 .61.21.21.2 0 .61-.2.82-.36.37-.73.74-1.1 1.1l-19.79-1.19-16.99-1.01-9.11-.55-7.3-14.29h-61.44l-16.86 7.99-8.96-7.99h-21.36L91.66 237.9l-17.83 17.93-1.8-21.16-19.77-15.44H0V512.5h512.6"/><path class="cls-6" d="M512.6 499.89v-256.6l-31.9 1.95-22.16-26.01H270.42c.03.07.06.15.09.22.24.62.5 1.24.77 1.86a73.566 73.566 0 0 0 3.05 6.17c.27.48.53.96.81 1.43.02.05.04.09.07.12.2.36.41.71.63 1.06.42.72.85 1.42 1.3 2.11.13.23.28.45.43.68.52.81 1.05 1.61 1.59 2.39.21.41.41.41.62.41l3.19-1.54c.2 0 .61 0 .61.21.21.2 0 .61-.2.82-.36.37-.73.74-1.1 1.1l-19.79-1.19-16.99-1.01-9.11-.55-7.3-14.29h-61.44l-16.86 7.99-8.96-7.99h-21.36L91.66 237.9l-17.83 17.93-1.8-21.16-19.77-15.44H0V512.5h512.6"/><path class="cls-6" d="M512.6 499.89v-256.6l-31.9 1.95-22.16-26.01H270.42c.03.07.06.15.09.22.24.62.5 1.24.77 1.86a73.566 73.566 0 0 0 3.05 6.17c.27.48.53.96.81 1.43.02.05.04.09.07.12.2.36.41.71.63 1.06.42.72.85 1.42 1.3 2.11.13.23.28.45.43.68.52.81 1.05 1.61 1.59 2.39.21.41.41.41.62.41l3.19-1.54c.2 0 .61 0 .61.21.21.2 0 .61-.2.82-.36.37-.73.74-1.1 1.1l-19.79-1.19-16.99-1.01-9.11-.55-7.3-14.29h-61.44l-16.86 7.99-8.96-7.99h-21.36L91.66 237.9l-17.83 17.93-1.8-21.16-19.77-15.44H0V512.5h512.6"/><path class="cls-6" d="M512.6 499.89v-256.6l-31.9 1.95-22.16-26.01H270.42c.03.07.06.15.09.22.24.62.5 1.24.77 1.86a73.566 73.566 0 0 0 3.05 6.17c.27.48.53.96.81 1.43.02.05.04.09.07.12.2.36.41.71.63 1.06.42.72.85 1.42 1.3 2.11.13.23.28.45.43.68.52.81 1.05 1.61 1.59 2.39.21.41.41.41.62.41l3.19-1.54c.2 0 .61 0 .61.21.21.2 0 .61-.2.82-.36.37-.73.74-1.1 1.1l-19.79-1.19-16.99-1.01-9.11-.55-7.3-14.29h-61.44l-16.86 7.99-8.96-7.99h-21.36L91.66 237.9l-17.83 17.93-1.8-21.16-19.77-15.44H0V512.5h512.6"/><path class="cls-26" d="M512.6 448.73v40.71c-4.91-1.91-8.36-6.93-8.36-12.75v-15.21c0-5.82 3.45-10.84 8.36-12.75Z"/><path class="cls-6" d="M512.6 499.89v-256.6l-31.9 1.95-22.16-26.01H270.42c.03.07.06.15.09.22.24.62.5 1.24.77 1.86a73.566 73.566 0 0 0 3.05 6.17c.27.48.53.96.81 1.43.02.05.04.09.07.12.2.36.41.71.63 1.06.42.72.85 1.42 1.3 2.11.13.23.28.45.43.68.52.81 1.05 1.61 1.59 2.39.21.41.41.41.62.41l3.19-1.54c.2 0 .61 0 .61.21.21.2 0 .61-.2.82-.36.37-.73.74-1.1 1.1l-19.79-1.19-16.99-1.01-9.11-.55-7.3-14.29h-61.44l-16.86 7.99-8.96-7.99h-21.36L91.66 237.9l-17.83 17.93-1.8-21.16-19.77-15.44H0V512.5h512.6"/><path class="cls-6" d="M512.6 499.89v-256.6l-31.9 1.95-22.16-26.01H270.42c.03.07.06.15.09.22.24.62.5 1.24.77 1.86a73.566 73.566 0 0 0 3.05 6.17c.27.48.53.96.81 1.43.02.05.04.09.07.12.2.36.41.71.63 1.06.42.72.85 1.42 1.3 2.11.13.23.28.45.43.68.52.81 1.05 1.61 1.59 2.39.21.41.41.41.62.41l3.19-1.54c.2 0 .61 0 .61.21.21.2 0 .61-.2.82-.36.37-.73.74-1.1 1.1l-19.79-1.19-16.99-1.01-9.11-.55-7.3-14.29h-61.44l-16.86 7.99-8.96-7.99h-21.36L91.66 237.9l-17.83 17.93-1.8-21.16-19.77-15.44H0V512.5h512.6"/><path class="cls-26" d="M56.14 276.3v12.03c0 7.91-5.86 14.39-13.05 14.39H4.73a12.04 12.04 0 0 1-4.73-.97v-38.91c.2-.09.4-.16.6-.23 1.27-.46 2.62-.71 4.03-.71h38.46c7.3 0 13.05 6.48 13.05 14.4Z"/><path class="cls-6" d="M512.6 499.89v-256.6l-31.9 1.95-22.16-26.01H270.42c.03.07.06.15.09.22.24.62.5 1.24.77 1.86a73.566 73.566 0 0 0 3.05 6.17c.27.48.53.96.81 1.43.02.05.04.09.07.12.2.36.41.71.63 1.06.42.72.85 1.42 1.3 2.11.13.23.28.45.43.68.52.81 1.05 1.61 1.59 2.39.21.41.41.41.62.41l3.19-1.54c.2 0 .61 0 .61.21.21.2 0 .61-.2.82-.36.37-.73.74-1.1 1.1l-19.79-1.19-16.99-1.01-9.11-.55-7.3-14.29h-61.44l-16.86 7.99-8.96-7.99h-21.36L91.66 237.9l-17.83 17.93-1.8-21.16-19.77-15.44H0V512.5h512.6"/><path class="cls-26" d="M26.53 334.9v18.51c0 8.64-6.27 15.42-13.88 15.42H0v-49.35h12.55c7.71 0 13.98 6.89 13.98 15.42Z"/><path class="cls-6" d="M512.6 499.89v-256.6l-31.9 1.95-22.16-26.01H270.42c.03.07.06.15.09.22.24.62.5 1.24.77 1.86a73.566 73.566 0 0 0 3.05 6.17c.27.48.53.96.81 1.43.02.05.04.09.07.12.2.36.41.71.63 1.06.42.72.85 1.42 1.3 2.11.13.23.28.45.43.68.52.81 1.05 1.61 1.59 2.39.21.41.41.41.62.41l3.19-1.54c.2 0 .61 0 .61.21.21.2 0 .61-.2.82-.36.37-.73.74-1.1 1.1l-19.79-1.19-16.99-1.01-9.11-.55-7.3-14.29h-61.44l-16.86 7.99-8.96-7.99h-21.36L91.66 237.9l-17.83 17.93-1.8-21.16-19.77-15.44H0V512.5h512.6"/><path class="cls-26" d="M9.15 403.9c0-10.08 7.51-18.1 16.55-18.1l43.9.21c9.05 0 16.55 8.12 16.55 18.3v13.78c0 10.08-7.51 18.1-16.55 18.1l-43.9-.21c-9.05 0-16.55-8.12-16.55-18.3V403.9Z"/><path class="cls-6" d="M512.6 499.89v-256.6l-31.9 1.95-22.16-26.01H270.42c.03.07.06.15.09.22.24.62.5 1.24.77 1.86a73.566 73.566 0 0 0 3.05 6.17c.27.48.53.96.81 1.43.02.05.04.09.07.12.2.36.41.71.63 1.06.42.72.85 1.42 1.3 2.11.13.23.28.45.43.68.52.81 1.05 1.61 1.59 2.39.21.41.41.41.62.41l3.19-1.54c.2 0 .61 0 .61.21.21.2 0 .61-.2.82-.36.37-.73.74-1.1 1.1l-19.79-1.19-16.99-1.01-9.11-.55-7.3-14.29h-61.44l-16.86 7.99-8.96-7.99h-21.36L91.66 237.9l-17.83 17.93-1.8-21.16-19.77-15.44H0V512.5h512.6"/><path class="cls-6" d="M512.6 499.89v-256.6l-31.9 1.95-22.16-26.01H270.42c.03.07.06.15.09.22.24.62.5 1.24.77 1.86a73.566 73.566 0 0 0 3.05 6.17c.27.48.53.96.81 1.43.02.05.04.09.07.12.2.36.41.71.63 1.06.42.72.85 1.42 1.3 2.11.13.23.28.45.43.68.52.81 1.05 1.61 1.59 2.39.21.41.41.41.62.41l3.19-1.54c.2 0 .61 0 .61.21.21.2 0 .61-.2.82-.36.37-.73.74-1.1 1.1l-19.79-1.19-16.99-1.01-9.11-.55-7.3-14.29h-61.44l-16.86 7.99-8.96-7.99h-21.36L91.66 237.9l-17.83 17.93-1.8-21.16-19.77-15.44H0V512.5h512.6"/><path class="cls-6" d="M512.6 499.89v-256.6l-31.9 1.95-22.16-26.01H270.42c.03.07.06.15.09.22.24.62.5 1.24.77 1.86a73.566 73.566 0 0 0 3.05 6.17c.27.48.53.96.81 1.43.02.05.04.09.07.12.2.36.41.71.63 1.06.42.72.85 1.42 1.3 2.11.13.23.28.45.43.68.52.81 1.05 1.61 1.59 2.39.21.41.41.41.62.41l3.19-1.54c.2 0 .61 0 .61.21.21.2 0 .61-.2.82-.36.37-.73.74-1.1 1.1l-19.79-1.19-16.99-1.01-9.11-.55-7.3-14.29h-61.44l-16.86 7.99-8.96-7.99h-21.36L91.66 237.9l-17.83 17.93-1.8-21.16-19.77-15.44H0V512.5h512.6"/><path class="cls-6" d="M512.6 499.89v-256.6l-31.9 1.95-22.16-26.01H270.42c.03.07.06.15.09.22.24.62.5 1.24.77 1.86a73.566 73.566 0 0 0 3.05 6.17c.27.48.53.96.81 1.43.02.05.04.09.07.12.2.36.41.71.63 1.06.42.72.85 1.42 1.3 2.11.13.23.28.45.43.68.52.81 1.05 1.61 1.59 2.39.21.41.41.41.62.41l3.19-1.54c.2 0 .61 0 .61.21.21.2 0 .61-.2.82-.36.37-.73.74-1.1 1.1l-19.79-1.19-16.99-1.01-9.11-.55-7.3-14.29h-61.44l-16.86 7.99-8.96-7.99h-21.36L91.66 237.9l-17.83 17.93-1.8-21.16-19.77-15.44H0V512.5h512.6"/><path class="cls-26" d="M11.21 467.54v15.22c0 6.87-4.56 12.53-10.61 13.43-.2.04-.4.07-.6.08v-42.24c.2 0 .4.04.6.08 6.05.9 10.61 6.57 10.61 13.43Z"/><path class="cls-6" d="M512.6 499.89v-256.6l-31.9 1.95-22.16-26.01H270.42c.03.07.06.15.09.22.24.62.5 1.24.77 1.86a73.566 73.566 0 0 0 3.05 6.17c.27.48.53.96.81 1.43.02.05.04.09.07.12.2.36.41.71.63 1.06.42.72.85 1.42 1.3 2.11.13.23.28.45.43.68.52.81 1.05 1.61 1.59 2.39.21.41.41.41.62.41l3.19-1.54c.2 0 .61 0 .61.21.21.2 0 .61-.2.82-.36.37-.73.74-1.1 1.1l-19.79-1.19-16.99-1.01-9.11-.55-7.3-14.29h-61.44l-16.86 7.99-8.96-7.99h-21.36L91.66 237.9l-17.83 17.93-1.8-21.16-19.77-15.44H0V512.5h512.6"/><path class="cls-6" d="M512.6 499.89v-256.6l-31.9 1.95-22.16-26.01H270.42c.03.07.06.15.09.22.24.62.5 1.24.77 1.86a73.566 73.566 0 0 0 3.05 6.17c.27.48.53.96.81 1.43.02.05.04.09.07.12.2.36.41.71.63 1.06.42.72.85 1.42 1.3 2.11.13.23.28.45.43.68.52.81 1.05 1.61 1.59 2.39.21.41.41.41.62.41l3.19-1.54c.2 0 .61 0 .61.21.21.2 0 .61-.2.82-.36.37-.73.74-1.1 1.1l-19.79-1.19-16.99-1.01-9.11-.55-7.3-14.29h-61.44l-16.86 7.99-8.96-7.99h-21.36L91.66 237.9l-17.83 17.93-1.8-21.16-19.77-15.44H0V512.5h512.6"/><path class="cls-6" d="M512.6 499.89v-256.6l-31.9 1.95-22.16-26.01H270.42c.03.07.06.15.09.22.24.62.5 1.24.77 1.86a73.566 73.566 0 0 0 3.05 6.17c.27.48.53.96.81 1.43.02.05.04.09.07.12.2.36.41.71.63 1.06.42.72.85 1.42 1.3 2.11.13.23.28.45.43.68.52.81 1.05 1.61 1.59 2.39.21.41.41.41.62.41l3.19-1.54c.2 0 .61 0 .61.21.21.2 0 .61-.2.82-.36.37-.73.74-1.1 1.1l-19.79-1.19-16.99-1.01-9.11-.55-7.3-14.29h-61.44l-16.86 7.99-8.96-7.99h-21.36L91.66 237.9l-17.83 17.93-1.8-21.16-19.77-15.44H0V512.5h512.6"/><path class="cls-6" d="M512.6 499.89v-256.6l-31.9 1.95-22.16-26.01H270.42c.03.07.06.15.09.22.24.62.5 1.24.77 1.86a73.566 73.566 0 0 0 3.05 6.17c.27.48.53.96.81 1.43.02.05.04.09.07.12.2.36.41.71.63 1.06.42.72.85 1.42 1.3 2.11.13.23.28.45.43.68.52.81 1.05 1.61 1.59 2.39.21.41.41.41.62.41l3.19-1.54c.2 0 .61 0 .61.21.21.2 0 .61-.2.82-.36.37-.73.74-1.1 1.1l-19.79-1.19-16.99-1.01-9.11-.55-7.3-14.29h-61.44l-16.86 7.99-8.96-7.99h-21.36L91.66 237.9l-17.83 17.93-1.8-21.16-19.77-15.44H0V512.5h512.6"/><path class="cls-6" d="M512.6 499.89v-256.6l-31.9 1.95-22.16-26.01H270.42c.03.07.06.15.09.22.24.62.5 1.24.77 1.86a73.566 73.566 0 0 0 3.05 6.17c.27.48.53.96.81 1.43.02.05.04.09.07.12.2.36.41.71.63 1.06.42.72.85 1.42 1.3 2.11.13.23.28.45.43.68.52.81 1.05 1.61 1.59 2.39.21.41.41.41.62.41l3.19-1.54c.2 0 .61 0 .61.21.21.2 0 .61-.2.82-.36.37-.73.74-1.1 1.1l-19.79-1.19-16.99-1.01-9.11-.55-7.3-14.29h-61.44l-16.86 7.99-8.96-7.99h-21.36L91.66 237.9l-17.83 17.93-1.8-21.16-19.77-15.44H0V512.5h512.6"/><path class="cls-6" d="M512.6 499.89v-256.6l-31.9 1.95-22.16-26.01H270.42c.03.07.06.15.09.22.24.62.5 1.24.77 1.86a73.566 73.566 0 0 0 3.05 6.17c.27.48.53.96.81 1.43.02.05.04.09.07.12.2.36.41.71.63 1.06.42.72.85 1.42 1.3 2.11.13.23.28.45.43.68.52.81 1.05 1.61 1.59 2.39.21.41.41.41.62.41l3.19-1.54c.2 0 .61 0 .61.21.21.2 0 .61-.2.82-.36.37-.73.74-1.1 1.1l-19.79-1.19-16.99-1.01-9.11-.55-7.3-14.29h-61.44l-16.86 7.99-8.96-7.99h-21.36L91.66 237.9l-17.83 17.93-1.8-21.16-19.77-15.44H0V512.5h512.6"/><path class="cls-6" d="M512.6 499.89v-256.6l-31.9 1.95-22.16-26.01H270.42c.03.07.06.15.09.22.24.62.5 1.24.77 1.86a73.566 73.566 0 0 0 3.05 6.17c.27.48.53.96.81 1.43.02.05.04.09.07.12.2.36.41.71.63 1.06.42.72.85 1.42 1.3 2.11.13.23.28.45.43.68.52.81 1.05 1.61 1.59 2.39.21.41.41.41.62.41l3.19-1.54c.2 0 .61 0 .61.21.21.2 0 .61-.2.82-.36.37-.73.74-1.1 1.1l-19.79-1.19-16.99-1.01-9.11-.55-7.3-14.29h-61.44l-16.86 7.99-8.96-7.99h-21.36L91.66 237.9l-17.83 17.93-1.8-21.16-19.77-15.44H0V512.5h512.6"/><path class="cls-6" d="M512.6 499.89v-256.6l-31.9 1.95-22.16-26.01H270.42c.03.07.06.15.09.22.24.62.5 1.24.77 1.86a73.566 73.566 0 0 0 3.05 6.17c.27.48.53.96.81 1.43.02.05.04.09.07.12.2.36.41.71.63 1.06.42.72.85 1.42 1.3 2.11.13.23.28.45.43.68.52.81 1.05 1.61 1.59 2.39.21.41.41.41.62.41l3.19-1.54c.2 0 .61 0 .61.21.21.2 0 .61-.2.82-.36.37-.73.74-1.1 1.1l-19.79-1.19-16.99-1.01-9.11-.55-7.3-14.29h-61.44l-16.86 7.99-8.96-7.99h-21.36L91.66 237.9l-17.83 17.93-1.8-21.16-19.77-15.44H0V512.5h512.6"/><path class="cls-6" d="M512.6 499.89v-256.6l-31.9 1.95-22.16-26.01H270.42c.03.07.06.15.09.22.24.62.5 1.24.77 1.86a73.566 73.566 0 0 0 3.05 6.17c.27.48.53.96.81 1.43.02.05.04.09.07.12.2.36.41.71.63 1.06.42.72.85 1.42 1.3 2.11.13.23.28.45.43.68.52.81 1.05 1.61 1.59 2.39.21.41.41.41.62.41l3.19-1.54c.2 0 .61 0 .61.21.21.2 0 .61-.2.82-.36.37-.73.74-1.1 1.1l-19.79-1.19-16.99-1.01-9.11-.55-7.3-14.29h-61.44l-16.86 7.99-8.96-7.99h-21.36L91.66 237.9l-17.83 17.93-1.8-21.16-19.77-15.44H0V512.5h512.6"/><path class="cls-6" d="M512.6 499.89v-256.6l-31.9 1.95-22.16-26.01H270.42c.03.07.06.15.09.22.24.62.5 1.24.77 1.86a73.566 73.566 0 0 0 3.05 6.17c.27.48.53.96.81 1.43.02.05.04.09.07.12.2.36.41.71.63 1.06.42.72.85 1.42 1.3 2.11.13.23.28.45.43.68.52.81 1.05 1.61 1.59 2.39.21.41.41.41.62.41l3.19-1.54c.2 0 .61 0 .61.21.21.2 0 .61-.2.82-.36.37-.73.74-1.1 1.1l-19.79-1.19-16.99-1.01-9.11-.55-7.3-14.29h-61.44l-16.86 7.99-8.96-7.99h-21.36L91.66 237.9l-17.83 17.93-1.8-21.16-19.77-15.44H0V512.5h512.6"/><path class="cls-6" d="M512.6 499.89v-256.6l-31.9 1.95-22.16-26.01H270.42c.03.07.06.15.09.22.24.62.5 1.24.77 1.86a73.566 73.566 0 0 0 3.05 6.17c.27.48.53.96.81 1.43.02.05.04.09.07.12.2.36.41.71.63 1.06.42.72.85 1.42 1.3 2.11.13.23.28.45.43.68.52.81 1.05 1.61 1.59 2.39.21.41.41.41.62.41l3.19-1.54c.2 0 .61 0 .61.21.21.2 0 .61-.2.82-.36.37-.73.74-1.1 1.1l-19.79-1.19-16.99-1.01-9.11-.55-7.3-14.29h-61.44l-16.86 7.99-8.96-7.99h-21.36L91.66 237.9l-17.83 17.93-1.8-21.16-19.77-15.44H0V512.5h512.6"/><path class="cls-6" d="M512.6 499.89v-256.6l-31.9 1.95-22.16-26.01H270.42c.03.07.06.15.09.22.24.62.5 1.24.77 1.86a73.566 73.566 0 0 0 3.05 6.17c.27.48.53.96.81 1.43.02.05.04.09.07.12.2.36.41.71.63 1.06.42.72.85 1.42 1.3 2.11.13.23.28.45.43.68.52.81 1.05 1.61 1.59 2.39.21.41.41.41.62.41l3.19-1.54c.2 0 .61 0 .61.21.21.2 0 .61-.2.82-.36.37-.73.74-1.1 1.1l-19.79-1.19-16.99-1.01-9.11-.55-7.3-14.29h-61.44l-16.86 7.99-8.96-7.99h-21.36L91.66 237.9l-17.83 17.93-1.8-21.16-19.77-15.44H0V512.5h512.6"/><path class="cls-6" d="M512.6 499.89v-256.6l-31.9 1.95-22.16-26.01H270.42c.03.07.06.15.09.22.24.62.5 1.24.77 1.86a73.566 73.566 0 0 0 3.05 6.17c.27.48.53.96.81 1.43.02.05.04.09.07.12.2.36.41.71.63 1.06.42.72.85 1.42 1.3 2.11.13.23.28.45.43.68.52.81 1.05 1.61 1.59 2.39.21.41.41.41.62.41l3.19-1.54c.2 0 .61 0 .61.21.21.2 0 .61-.2.82-.36.37-.73.74-1.1 1.1l-19.79-1.19-16.99-1.01-9.11-.55-7.3-14.29h-61.44l-16.86 7.99-8.96-7.99h-21.36L91.66 237.9l-17.83 17.93-1.8-21.16-19.77-15.44H0V512.5h512.6"/><path class="cls-6" d="M512.6 499.89v-256.6l-31.9 1.95-22.16-26.01H270.42c.03.07.06.15.09.22.24.62.5 1.24.77 1.86a73.566 73.566 0 0 0 3.05 6.17c.27.48.53.96.81 1.43.02.05.04.09.07.12.2.36.41.71.63 1.06.42.72.85 1.42 1.3 2.11.13.23.28.45.43.68.52.81 1.05 1.61 1.59 2.39.21.41.41.41.62.41l3.19-1.54c.2 0 .61 0 .61.21.21.2 0 .61-.2.82-.36.37-.73.74-1.1 1.1l-19.79-1.19-16.99-1.01-9.11-.55-7.3-14.29h-61.44l-16.86 7.99-8.96-7.99h-21.36L91.66 237.9l-17.83 17.93-1.8-21.16-19.77-15.44H0V512.5h512.6"/><path class="cls-26" d="M424.55 277.32c-3.81-1.95-6.89-3.18-11.52-4.73-12.34-3.9-21.59-13.05-31.67-22.31-1.64-1.54-3.39-1.54-4.83.21-5.24 6.06-20.36 11.62-27.04 7.3-2.78-1.44-4.22-3.6-6.07-5.25-1.64-1.54-2.77-1.33-4.01.62l-5.24 9.05c-1.23 1.95-2.26 1.95-3.39 0-1.85-2.98-4.22-5.55-7.1-8.12-8.22-7.3-7.3 15.21-15.11 4.93-6.69-8.63-7.1-2.57-9.67 3.19-.82 1.75-2.05 2.16-3.6 1.34-6.06-2.99-18.5-9.46-24.98-4.12-14.09 11.42-31.05 21.7-43.91 29.41-7.3 4.52-9.04-1.54-14.49-4.73-1.03-.62-1.85-.41-2.57.62-4.22 6.27-4.84 14.6-14.91 12.03-1.65-.41-2.78-.62-4.01-.41-11.93 1.33-22.83 4.11-30.23-.83-7.1-4.52-8.64 8.85-9.46 13.37-.41 2.57-1.85 4.11-4.42 4.32-9.05.41-22.01 1.95-24.17-.41-.2-.21-.2-.41.21-.41 5.24-1.03 10.28-1.96 15.53-2.78 6.68-1.03 10.28-2.57 11.1-10.08.62-6.89 1.03-11.62 1.23-14.19 0-.41.21-.61.21-.82.82-.82 1.65-1.03 2.57-.2 10.28 8.84 19.74 6.27 33.11 3.7 2.26-.41 4.83.2 6.48 0 8.02-.62 9.25-6.89 12.75-12.85 2.46-4.12 4.83-2.58 7.81-.42 4.63 3.4 8.43 6.07 13.68 2.57 19.51-12.37 38.74-24.35 55.45-41.05.37-.36.74-.73 1.1-1.1.2-.21.41-.62.2-.82 0-.21-.41-.21-.61-.21l-3.19 1.54c-.21 0-.41 0-.62-.41-3.39-4.93-6.58-10.49-8.74-16.04h13.06c1.44 3.09 2.98 6.07 4.52 9.05.21.2.42.2.62.2 0 0 .21 0 .21-.2 1.85-2.98 2.98-5.86 3.9-9.05h7.41c-1.03 5.86-2.27 10.18-4.63 15.22-.21.41-.21.82 0 1.33.29.46.59.91.92 1.34 3.67 5.07 9.37 8.83 14.19 12.24.42.2 1.03.2 1.24-.21 2.26-2.57 3.6-5.35 4.42-8.84.23-1.13.69-1.72 1.26-1.92h.01c.4-.14.85-.1 1.31.08h.01c.61.22 1.25.68 1.83 1.22 2.98 2.78 6.07 5.35 9.25 7.71 1.86 1.34 2.99 1.03 3.81-.61 1.02-2.44 1.85-4.83 2.42-7.29.36-1.48.62-2.99.77-4.54.41-2.57 1.85-3.39 3.39-1.33 1.59 2.22 3.15 4.34 4.72 6.41 1.78 2.36 3.55 4.65 5.36 6.95a5.45 5.45 0 0 0 3.39 1.96c6.07.61 11.51-1.03 16.35-4.73 1.85-1.55 2.77-3.4 4.01-5.56.61-1.02 1.64-1.54 2.57-.82 1.44.82 2.98 1.75 4.21 2.78 12.14 11.2 21.8 24.26 37.33 30.54 2.77 1.02 4.83 2.98 6.47 5.75.62.62.42.62-.2.41Z"/><path class="cls-25" d="M185.57 157.41v-.34c0-19.21 14.55-34.9 32.4-34.9 4.21 0 8.3.91 12.05 2.5 7.16-13.87 20.92-23.19 36.72-23.19 20.46 0 37.51 15.8 41.26 36.72 1.14-.11 2.27-.23 3.41-.23 11.14 0 20.46 8.3 22.96 19.44h-148.8Z"/><path class="cls-32" d="M217.17 157.41v-.11c0-11.14 8.41-20.01 18.64-20.01 2.5 0 4.77.45 6.93 1.48 4.09-7.96 12.05-13.3 21.14-13.3 11.82 0 21.6 9.09 23.64 21.14.68-.11 1.25-.11 1.93-.11 6.37 0 11.82 4.77 13.19 11.14l-85.48-.23Z"/><path class="cls-25" d="M497.27 84.91v-.33c0-23.07-18.77-41.84-41.84-41.84-5.41 0-10.71 1.1-15.57 2.98-9.27-16.67-27.05-27.82-47.36-27.82-26.5 0-48.57 18.99-53.32 44.05a28.81 28.81 0 0 0-4.42-.33c-14.35 0-26.38 9.94-29.7 23.4l192.2-.11Z"/><path class="cls-32" d="M456.42 84.91v-.22c0-13.36-10.82-24.07-24.07-24.07-3.2 0-6.18.55-8.94 1.77-5.41-9.6-15.57-16.01-27.27-16.01-15.23 0-27.82 10.93-30.69 25.39-.88-.11-1.66-.22-2.54-.22-8.28 0-15.23 5.74-17 13.36h110.51Z"/><path id="rect24" d="M348.24 259.54c0-7.97 5.69-14.3 12.78-14.3h19.99c7.09 0 12.78 6.45 12.78 14.3v2.02c0 7.97-5.69 14.3-12.78 14.3h-19.99c-7.09 0-12.78-6.45-12.78-14.3v-2.02Z" style="fill:#1fa330;stroke-width:0"/><path id="path18" class="cls-14" d="M466.57 382.55c6.96-8.1 6.71-21.01-.38-28.85-.38-.38-.76-.89-1.27-1.27l-23.54-21.26c-7.72-7.09-19.11-5.69-25.44 3.16-.38.51-.63 1.01-1.01 1.52l-1.27 2.28c-5.19 8.73-3.54 20.5 3.8 27.08l23.16 21.01c7.21 6.58 17.84 5.82 24.3-1.65l1.65-2.02Z"/><path class="cls-14" d="M18.21 462.4v2.91c0 6.55-2.74 12.37-7 16.09-2.94 2.58-6.61 4.15-10.61 4.26-.16.02-.33.02-.49.02H0v-43.66h.11c.16 0 .33 0 .49.02 9.77.28 17.61 9.28 17.61 20.36Z"/><path class="cls-11" d="m72.42 315.58 7.71 2.81" vector-effect="non-scaling-stroke"/><path d="M80.14 318.39c-5.67 15.46-11.35 30.93-17.05 46.39-.34.94-.49 1.58-.46 1.96.2 1.91 3.16 2.62 3.91.58 5.83-15.84 11.65-31.69 17.49-47.51" vector-effect="non-scaling-stroke" style="stroke:#bbc2cb;stroke-width:2px;fill:none"/><path class="cls-11" d="m84.04 319.82 7.63 2.82" vector-effect="non-scaling-stroke"/><path d="m80.14 318.39 3.9 1.43" vector-effect="non-scaling-stroke" style="stroke:#d5c088;stroke-width:2px;fill:none"/><path class="cls-8" d="m79.79 307.38 5.24 1.91" vector-effect="non-scaling-stroke"/><path class="cls-12" d="m85.03 309.29 6.38 2.34" vector-effect="non-scaling-stroke"/><path class="cls-5" d="M85.03 309.29c2.57-1.95 5.44-3.25 8.64-3.91M80.41 305.73c.09.18.24.28.44.32.14.03.3 0 .51-.1 6.64-3.05 10.87-4.88 14.73-7.15M82.41 300.3c4.43-1.9 8.73-3.86 12.91-5.88.54-.27 1.43-.53 2.64-.78M84.47 294.66c3.24-.86 6.24-2.24 9-4.15" vector-effect="non-scaling-stroke"/><path class="cls-8" d="M93.47 290.51c1.48.35 2.76.35 3.82.03 1.03-.33 1.67-.51 1.95-.56" vector-effect="non-scaling-stroke"/><path class="cls-12" d="M93.47 290.51c-2.54-.75-4.43-2.39-5.64-4.94" vector-effect="non-scaling-stroke"/><path d="M52.96 401.65c-.8.03-1.48-.22-2.05-.73l-.42-.9-3.11-14.92c-.1-.47-.06-.95.1-1.39l24.94-68.15 7.71 2.81c-5.67 15.46-11.35 30.93-17.05 46.39-.34.94-.49 1.58-.46 1.96.2 1.91 3.16 2.62 3.91.58 5.83-15.84 11.65-31.69 17.49-47.51l7.63 2.82-24.89 67.94c-.19.52-.52.96-.95 1.3l-12.02 9.38-.85.39h.01Z" style="fill:#ccd1d9;stroke-width:0"/><path d="m80.14 318.39 3.9 1.43c-5.82 15.83-11.65 31.66-17.49 47.51-.75 2.04-3.72 1.33-3.91-.58-.04-.38.11-1.03.46-1.96 5.68-15.46 11.36-30.93 17.05-46.39Z" style="fill:#aab2bc;stroke-width:0"/><path class="cls-42" d="m91.67 322.64-7.63-2.82-3.9-1.43-7.71-2.81c-2.35-.9-4.78-1.78-7.26-2.66-1.57-.56-2.06-1.61-1.51-3.18.66-1.8 1.32-3.61 2-5.43a2.016 2.016 0 0 1 2.58-1.19l11.54 4.24 5.24 1.91 6.38 2.34 11.47 4.19c1.09.4 1.66 1.61 1.25 2.71-.66 1.8-1.3 3.58-1.96 5.35-.58 1.56-1.65 2.04-3.2 1.44-2.47-.95-4.9-1.83-7.3-2.67h.01Z"/><path class="cls-43" d="M85.03 309.29c2.57-1.95 5.44-3.25 8.64-3.91l-2.27 6.25-6.38-2.34Z"/><path class="cls-35" d="M93.67 305.36c-3.2.66-6.07 1.96-8.64 3.91l-5.24-1.91.62-1.63c.09.18.24.28.44.32.14.03.3 0 .51-.1 6.64-3.05 10.87-4.88 14.73-7.15l-2.42 6.57Z"/><path class="cls-43" d="m80.41 305.73 2-5.43c4.43-1.9 8.73-3.86 12.91-5.88.54-.27 1.43-.53 2.64-.78l-1.87 5.16c-3.86 2.28-8.1 4.1-14.73 7.15-.2.09-.37.13-.51.1a.588.588 0 0 1-.44-.32Z"/><path class="cls-35" d="M97.95 293.63c-1.21.27-2.09.52-2.64.78-4.18 2.01-8.48 3.97-12.91 5.88l2.06-5.66c3.24-.86 6.24-2.24 9-4.15 1.48.35 2.76.35 3.82.03 1.03-.33 1.67-.51 1.95-.56l-1.29 3.66h.01Z"/><path class="cls-42" d="M99.24 289.98c-.28.04-.94.23-1.95.56-1.08.34-2.35.33-3.82-.03-2.54-.75-4.43-2.39-5.64-4.94-1.29-4.35-.05-7.76 3.7-10.22l1-.47c4.15-1.29 7.52-.13 10.06 3.48l.61 1.3c1.27 4.34-.05 7.78-3.95 10.31Z"/><path class="cls-43" d="m84.47 294.66 3.35-9.09c1.21 2.54 3.1 4.19 5.64 4.94a28.576 28.576 0 0 1-9 4.15Z"/><path d="m30.33 348.34 41.7 60.97 1.75 26.79c.01.18.16.3.34.28.05 0 .1-.03.15-.05l10.85-7.44 25.27 36.37-.99.67c-3.66 1.59-6.95 1.47-9.88-.38-1.29-.81-2.58-2.19-3.86-4.11-1.73-2.61-3.49-5.18-5.28-7.73-.06-.1-.2-.11-.3-.05l-6.48 4.44a.2.2 0 0 0-.06.29c2.01 2.96 3.78 5.52 5.3 7.68 1.35 1.94 2.18 3.64 2.47 5.13.67 3.38-.39 6.48-3.18 9.3l-2.08 1.42c-5.53 2.3-9.88 1.11-13.06-3.59-3.62-5.35-7.34-10.79-11.14-16.3a.84.84 0 0 0-.68-.38l-23.7-1.04c-.19 0-.35-.1-.47-.25-2.23-3.25-9.69-14.16-22.37-32.74-9.66-14.14-12-31.7-7.04-48.28 3.48-11.63 10.25-21.41 20.3-29.33l2.44-1.67Z" style="fill:#e1e1e6;stroke-width:0"/><path d="M32.7 346.75c9.53-5.73 19.63-8.64 30.3-8.72 18.2-.15 35.43 8.29 45.97 22.92l23.45 34.23-7.63 23.12c-.04.13-.03.28.05.38 3.78 5.5 7.33 10.67 10.62 15.5 1.39 2.05 2.23 3.75 2.49 5.1.66 3.37-.38 6.45-3.15 9.28l-2.1 1.44c-3.72 1.63-7.05 1.47-9.98-.47-1.3-.86-2.63-2.33-4-4.4-1.61-2.46-3.25-4.88-4.94-7.28-.13-.18-.28-.2-.44-.08l-6.4 4.39c-.09.06-.11.19-.06.28 2.33 3.42 3.95 5.77 4.85 7.07 1.63 2.38 2.59 4.28 2.89 5.67.71 3.38-.35 6.5-3.18 9.4l-1.03.7-25.27-36.37 11.41-7.81c.13-.09.15-.25.08-.37-.03-.04-.06-.06-.1-.09l-24.47-11.33-41.7-60.97 2.35-1.61Z" style="fill:#d2d2d7;stroke-width:0"/><ellipse cx="42.16" cy="418.29" rx="17.64" ry="17.16" transform="rotate(-34.41 42.162 418.285)" style="fill:#4b5055;stroke-width:0"/><ellipse cx="91.32" cy="384.61" rx="17.64" ry="17.16" transform="rotate(-34.41 91.324 384.615)" style="fill:#373c41;stroke-width:0"/><path d="m85.12 428.89-10.85 7.44c-.15.1-.34.06-.44-.08a.298.298 0 0 1-.05-.15l-1.75-26.79 24.47 11.33c.13.06.18.22.11.34-.03.04-.05.08-.09.1l-11.41 7.81Z" style="fill:#919196;stroke-width:0"/><path d="M393.94 389.29v74.26c0 4.09-1.72 8.17-4.3 10.33H202.82c-2.58-2.8-4.3-6.24-4.3-10.33V329.89c0-8.17 6.24-14.86 14-14.86h111.7c38.95 0 69.73 33.36 69.73 74.26Z" style="fill:#a59078;stroke-width:0"/><path d="M508.01 304.28a175.7 175.7 0 0 1-11.74-7.52c-13.62-9.5-25.92-20.94-36.64-33.86-.51-.6-1.01-1.2-1.5-1.81-10.32-12.7-19.14-26.79-26.22-41.86-1.96-4.15-3.79-8.38-5.47-12.67-.86-2.15-2.58-4.52-4.73-5.81-2.16-1.29-4.74-1.72-7.1-1.29-29.92 5.6-60.86 3.54-89.63-6.19a172.818 172.818 0 0 1-31.76-14.48l-5.38-3.22c-5.16-3.23-11.83-.87-14.42 4.51l-27.92 53.99-23.21 44.88-4.95 9.57-15.6 30.17c-18.08 35.2-24.01 74.26-18.73 111.39 1.89 13.29 5.2 26.31 9.91 38.83h249.02c.08-.13.16-.27.24-.41.05-.08.1-.17.15-.26.22-.39.44-.79.67-1.2.1-.21.22-.42.32-.63.83-1.57 1.66-3.21 2.49-4.6l17.18-33.43 25.86-50.29 9.16-17.82 14.59-28.38v-24.86l-4.59-2.75Z" style="fill:#cecece;stroke-width:0"/><path d="M512.6 307.42v24.86l-14.42 28.05-9.13 17.76-25.85 50.29-16.97 33.02c-.9 1.51-1.81 3.33-2.71 5.02-.11.21-.23.42-.34.63-.22.41-.45.82-.68 1.2-.04.08-.09.17-.14.25H283.52l30.51-59.45.99-1.93 18.31-35.68.21-.41.13-.25v-.02l24.03-46.71 24.82-48.28 8.57-16.66 2.07-4.03.81-1.56 13.44-26.14.08-.15 4.09-8 9.47-18.48c2.15 1.29 3.87 3.23 4.73 5.81 1.69 4.29 3.53 8.52 5.5 12.67 7.5 15.93 16.96 30.85 28.08 44.17 10.62 12.74 22.76 24.02 36.17 33.36 3.84 2.67 7.78 5.18 11.82 7.52l5.25 3.14Z" style="fill:#989898;stroke-width:0"/><path class="cls-18" d="m442.16 434.28-10.97 21.53c-2.15 4.52-4.73 8.61-7.1 12.69H252.13l47.35-91.68 34.22-5.81 37.88-8.61 62.41 36.37 8.17 35.51Z"/><path d="m333.68 370.78-50.15 97.72h-70.39c-20.67-44.56-21.1-95.77 1.29-139.47l10.97-21.53 44.77-4.52 51.44 30.13h.43l11.62 37.66h.01Z" style="fill:#edf5ff;stroke-width:0"/><path d="m442.16 434.28 50.15-97.72c3.01-5.81 1.29-13.55-4.3-17.65-29.92-24.32-55.31-53.16-75.12-86.31-1.29-2.15-3.44-4.09-5.38-5.38l-37.88 13.12-48.64 94.48 12.69 35.94 108.48 63.49v.03Z" style="fill:#d5e8fe;stroke-width:0"/><path class="cls-18" d="M407.51 227.44c-2.15-1.29-4.73-1.72-7.1-1.72-36.8 0-73.4-7.1-109.12-21.1-6.24-2.8-13.12 0-16.15 5.81l-50.15 97.72 108.69 63.49 73.83-144.2Z"/><path class="cls-41" d="m183.31 512.5-30.64-64.42-.35-.74-14.68-3.19-22.95-4.98-2.58-.56-23.83-5.17h-.01l-7.42-1.62-.39-.08-7.07-1.54-16.16-3.51-32.54-7.06-15.54-3.38-.49-.1-.73-.16c-2.46-.4-4.9-.7-7.33-.9-.2-.02-.4-.03-.6-.04v97.45h.6v.5h182.95l-.24-.5Z"/><path class="cls-41" d="M506.21 494.39c2.14 2.12 4.26 4.95 6.39 7.25v10.86l-146.17.5H169.94l-.15-.5-19-63.31 1.88-1.11 30.34-17.99 15.5-9.19.57-.34 19.85-11.77c17.78-10.25 37.07-14.48 56.66-12.06h2.42c3.43.22 6.9.77 10.35 1.6 5.96 1.42 11.86 3.68 17.39 6.54 1.81 1.2 4.21 1.81 6.02 3.01.87.29 1.6.72 2.26 1.17h.01c.71.46 1.33.94 1.95 1.25 1.21 0 1.81.59 2.41 1.2.61 0 1.21.59 1.81 1.2 1.81.6 3.02 1.81 4.83 3.01l64.6 52.79.5.41 2.06 1.69 3.3 2.69.38.31 32.56-4.52c.57-.06 1.13-.11 1.69-.17 1.51-.15 3-.3 4.47-.41 2.64-.21 5.22-.34 7.73-.26.06 0 .11.01.17.01 1.05.03 2.09.1 3.12.22h2.42c3.31 0 6.93.6 10.55 1.2 4.22.6 8.14 1.81 11.76 3.01 1.81 0 3.62 1.21 5.43 1.81 1.2.61 3.01 1.21 4.21 1.81h.61c.59 0 .59.61 1.2.61.6.61 1.81 1.2 3.01 1.81l3.62 1.81c1.22 0 1.81.6 2.42 1.2 1.81 1.51 4.21 3.32 6.02 4.52 3.32 2.41 6.33 5.13 9.34 8.14Z"/><path d="M507.43 492.57c1.73 1.72 3.45 3.6 5.17 5.63v14.3l-146.17.5h-84.29l-.02-.5-1.74-38.63-.22-4.96-.02-.41-2.24-49.92-.98-21.85-.11-2.43c.61 0 1.2 0 2.42.61 3.29.42 6.63 1.04 9.94 1.84 6.09 1.46 12.13 3.57 17.79 6.3 1.81 1.2 4.22 1.81 6.03 3.01.64.33 1.29.65 2.03 1.06h.01c.64.37 1.34.8 2.17 1.36.61.6 1.81.6 2.42 1.2.61.59 1.2.6 1.81 1.2 1.81 1.2 3.01 1.81 4.82 3.01l66.84 54.61.02.02.48.39 3.5 2.86 20.65-2.86 2.96-.41 3.68-.51 5.27-.73c4.74-.48 9.3-.95 13.67-.85.07.01.14.01.2.01 1.12.03 2.23.11 3.32.23h2.41c3.62 0 7.24.61 10.56 1.2 4.21.61 7.54 1.81 11.75 3.01l5.43 1.81c1.81.61 3.02 1.2 4.22 1.81h.6c.61 0 .61.61 1.21.61 1.2.61 2.41 1.2 3.01 1.81l3.62 1.81c.61.61 1.81.61 2.42 1.2 1.8 1.2 4.21 2.42 6.02 4.52 3.01 2.42 6.63 5.12 9.34 8.14Z" style="fill:#787680;stroke-width:0"/><path d="M506.52 493.16c2.03 2.04 4.06 4.28 6.08 6.73v12.61l-146.17.5.36-.5 28.71-39.21.68-.92 24.92-3.46 2.96-.41h.02l4.66-.65c4.95-.5 9.71-.99 14.26-.81.06 0 .12 0 .18.01.93.03 1.85.09 2.75.19h2.41c3.62 0 7.24.61 10.56 1.21 4.21.6 7.54 1.81 11.75 3.01l5.43 1.81c1.81.6 3.01 1.2 4.22 1.81h.6c.61 0 .61.6 1.21.6 1.2.61 2.41 1.21 3.01 1.81l3.62 1.81c.6.61 1.81.61 2.41 1.21 1.81 1.2 4.22 2.41 6.03 4.51 3.01 2.42 6.63 5.13 9.34 8.14Z" style="fill:#57565c;stroke-width:0"/></g></svg>