<svg id="Layer_2" data-name="Layer 2" xmlns="http://www.w3.org/2000/svg" viewBox="0 0 512.74 514.26"><defs><style>.cls-1{stroke:#677980}.cls-1,.cls-2,.cls-3,.cls-7,.cls-8{fill:none;stroke-width:2px}.cls-2{stroke:#d8dde8}.cls-11,.cls-14,.cls-17,.cls-18,.cls-21,.cls-22{stroke-width:0}.cls-11{fill:#f1f5fe}.cls-3{stroke:#bac4cc}.cls-14{fill:#dde9ed}.cls-17{fill:#f0f5f7}.cls-18{fill:#829399}.cls-7{stroke:#86929c}.cls-8{stroke:#a1acb6}.cls-21{fill:#41abb5}.cls-22{fill:#bfc5d2}</style></defs><g id="Capa_1" data-name="Capa 1"><path style="fill:#bce5f1;stroke-width:0" d="M0 0h511.77v511.77H0z"/><path class="cls-3" d="m285.69 182.07-41.64 38.76" vector-effect="non-scaling-stroke"/><path d="M244.05 220.83c-.17-.33-.63-.65-1.36-.94" vector-effect="non-scaling-stroke" style="stroke:#9faab2;fill:none;stroke-width:2px"/><path class="cls-2" d="M242.69 219.89c.6-1 .91-1.86.94-2.58.83-29.92 1.3-49.52 1.42-58.8.01-.66-.52-1.21-1.18-1.22h-25.06c-.54 0-1-.43-1.04-.98-4.05-52.6-7.83-101.61-11.34-147.04-.08-1.04-.67-2.39-1.76-4.06" vector-effect="non-scaling-stroke"/><path class="cls-7" d="m242.69 219.89-50.02-36.02c-.5-.36-1.2-.26-1.58.22l-45.68 57.86a.523.523 0 0 1-.92-.24l-10.98-72.5" vector-effect="non-scaling-stroke"/><path class="cls-3" d="m453.55 339.41-33.94-14.42c-.61-.27-1.13-.14-1.56.38l-17.84 20.96" vector-effect="non-scaling-stroke"/><path class="cls-2" d="M400.21 346.33c-.32.21-.53.31-.64.3-.61-.1-1.09-.65-1.2-1.36l-6.06-41.02c-.09-.64-.46-.96-1.1-.96h-25.02c-.79 0-1.18-.39-1.18-1.18-.48-62.88-.8-105.43-.96-127.66-.02-1.9-.8-3-1.42-4.72" vector-effect="non-scaling-stroke"/><path class="cls-1" d="m244.05 220.83-.9 49.68c0 .64.27.8.82.48l29.5-17.04c.4-.23.92-.09 1.15.31.03.05.06.11.07.17l20.28 64.72" vector-effect="non-scaling-stroke"/><path class="cls-7" d="m294.97 319.15-12.58 27.62c-.64 1.39-.25 1.8 1.16 1.24l62.18-24.82c.65-.27 1.29-.25 1.92.06l51.26 24.64" vector-effect="non-scaling-stroke"/><path class="cls-1" d="m398.91 347.89 8.64 58.46" vector-effect="non-scaling-stroke"/><path d="M407.55 406.35c-16.37-16.43-36.29-23.33-59.74-20.7-14.51 1.61-27.11 7.04-37.82 16.28-16.68 14.39-25.25 32.35-25.72 53.88-.01.6-.29.77-.82.5-31.26-15.14-70.24-13.86-91.36 17.3-3.41 5.04-5.42 10.67-6.02 16.88-.03.35-.34.61-.7.57a.713.713 0 0 1-.48-.27c-15.6-22.56-36.75-29.68-63.46-21.36-.68.21-1.12-.02-1.32-.7-3.27-10.67-8.31-19.59-15.14-26.76-21.82-22.88-59.34-26.4-83.82-4.4a97.7 97.7 0 0 1-6.48 5.34" vector-effect="non-scaling-stroke" style="stroke:#6c9445;fill:none;stroke-width:2px"/><path class="cls-8" d="M400.21 346.33c-.29.6-.73 1.12-1.3 1.56M294.97 319.15l26.28-58.24" vector-effect="non-scaling-stroke"/><path d="M502.13 433.79c-9.52-8.92-18.33-14.05-26.42-15.38-19.43-3.2-35.99 1.84-49.68 15.12-.43.43-1.13.43-1.56 0-.12-.12-.21-.26-.26-.42-3.53-10.09-9.09-19.01-16.66-26.76" vector-effect="non-scaling-stroke" style="stroke:#87ae5e;fill:none;stroke-width:2px"/><path d="M.97 496.69c4.83-15.04 12.66-26.64 23.5-34.82 23.82-17.94 55.14-15.18 77.54 4.4 7.89 6.88 13.93 16.67 18.1 29.36.19.54.55.72 1.08.54 23.91-7.83 43.92-2.63 60.02 15.6.2.22.4.45.6.68.08.1.17.19.27.26.36.31.8.49 1.25.54.35.04.71 0 1.03-.12.02-.01.03-.02.04-.02.1-.03.19-.07.28-.13.05-.02.1-.05.15-.09.09-.05.19-.12.27-.2l.02-.01.03-.03c.08-.07.16-.14.23-.23.11-.13.21-.27.29-.43.04-.08.08-.15.11-.22 3.73-7.15 5.43-11.35 9.57-16.06 22.62-25.82 58.54-27.02 87.86-12.4.06.03.12.05.17.06.06.02.11.02.17.02.07 0 .14 0 .2-.03.04 0 .08-.02.12-.04l.09-.06s.08-.05.11-.09c.04-.03.07-.07.09-.11.03-.03.05-.07.07-.11 0-.04.03-.08.04-.12.01-.06.02-.12.02-.18.4-19.41 7.33-35.94 20.78-49.58 25.54-25.9 65.76-29.2 94.92-6.8 11.52 8.86 19.59 20.16 24.22 33.92.02.07.06.14.1.2.02.04.04.07.08.1.01.03.03.05.05.07h.01c.17.17.41.27.65.27.06 0 .12-.01.18-.02l.12-.03s.08-.03.12-.05c.04-.01.07-.03.1-.06.06-.03.11-.07.15-.12 16.8-17.16 43.34-21.94 64.34-9.64 10.56 6.19 17.78 16.85 21.66 31.98" style="stroke:#85bf1c;fill:none;stroke-width:2px"/><path class="cls-11" d="m285.69 182.07-41.64 38.76c-.17-.33-.63-.65-1.36-.94.6-1 .91-1.86.94-2.58.83-29.92 1.3-49.52 1.42-58.8.01-.66-.52-1.21-1.18-1.22h-25.06c-.54 0-1-.43-1.04-.98-4.05-52.6-7.83-101.61-11.34-147.04-.08-1.04-.67-2.39-1.76-4.06.2-.84.51-1.44.92-1.8.59-.51 1.03-.41 1.34.3l78.76 178.36Z"/><path class="cls-22" d="M204.67 5.21c1.09 1.67 1.68 3.02 1.76 4.06 3.51 45.43 7.29 94.44 11.34 147.04.04.55.5.98 1.04.98h25.04c.66 0 1.2.54 1.2 1.2v.02c-.12 9.28-.59 28.88-1.42 58.8-.03.72-.34 1.58-.94 2.58l-50.02-36.02c-.5-.36-1.2-.26-1.58.22l-45.68 57.86a.523.523 0 0 1-.92-.24l-10.98-72.5 71.16-164Z"/><path class="cls-11" d="m453.55 339.41-33.94-14.42c-.61-.27-1.13-.14-1.56.38l-17.84 20.96c-.32.21-.53.31-.64.3-.61-.1-1.09-.65-1.2-1.36l-6.06-41.02c-.09-.64-.46-.96-1.1-.96h-25.02c-.79 0-1.18-.39-1.18-1.18-.48-62.88-.8-105.43-.96-127.66-.02-1.9-.8-3-1.42-4.72.31-.77.69-1.37 1.16-1.8.55-.48.98-.4 1.3.24l88.46 171.24Z"/><path d="m133.51 169.21 10.98 72.5a.522.522 0 0 0 .92.24l45.68-57.86c.38-.48 1.08-.58 1.58-.22l50.02 36.02c.73.29 1.19.61 1.36.94l-.9 49.68c0 .64.27.8.82.48l29.5-17.04c.4-.23.92-.09 1.15.31.03.05.06.11.07.17l20.28 64.72-12.58 27.62c-.64 1.39-.25 1.8 1.16 1.24l62.18-24.82c.65-.27 1.29-.25 1.92.06l51.26 24.64 8.64 58.46c-16.37-16.43-36.29-23.33-59.74-20.7-14.51 1.61-27.11 7.04-37.82 16.28-16.68 14.39-25.25 32.35-25.72 53.88-.01.6-.29.77-.82.5-31.26-15.14-70.24-13.86-91.36 17.3-3.41 5.04-5.42 10.67-6.02 16.88-.03.35-.34.61-.7.57a.713.713 0 0 1-.48-.27c-15.6-22.56-36.75-29.68-63.46-21.36-.68.21-1.12-.02-1.32-.7-3.27-10.67-8.31-19.59-15.14-26.76-21.82-22.88-59.34-26.4-83.82-4.4a97.7 97.7 0 0 1-6.48 5.34l118.84-273.7Z" style="fill:#4c5e66;stroke-width:0"/><path class="cls-22" d="M362.63 169.73c.62 1.72 1.4 2.82 1.42 4.72.16 22.23.48 64.78.96 127.66 0 .79.39 1.18 1.18 1.18h25.02c.64 0 1.01.32 1.1.96l6.06 41.02c.11.71.59 1.26 1.2 1.36.11.01.32-.09.64-.3-.29.6-.73 1.12-1.3 1.56l-51.26-24.64c-.63-.31-1.27-.33-1.92-.06l-62.18 24.82c-1.41.56-1.8.15-1.16-1.24l12.58-27.62 26.28-58.24 41.38-91.18Z"/><path class="cls-18" d="m285.69 182.07 35.56 78.84-26.28 58.24-20.28-64.72a.84.84 0 0 0-1.05-.55c-.06.02-.12.04-.17.07l-29.5 17.04c-.55.32-.82.16-.82-.48l.9-49.68 41.64-38.76ZM453.55 339.41l48.58 94.38c-9.52-8.92-18.33-14.05-26.42-15.38-19.43-3.2-35.99 1.84-49.68 15.12-.43.43-1.13.43-1.56 0-.12-.12-.21-.26-.26-.42-3.53-10.09-9.09-19.01-16.66-26.76l-8.64-58.46c.57-.44 1.01-.96 1.3-1.56l17.84-20.96c.43-.52.95-.65 1.56-.38l33.94 14.42Z"/><path d="M511.77 461.13v21.76c-3.88-15.13-11.1-25.79-21.66-31.98-21-12.3-47.54-7.52-64.34 9.64-.04.05-.09.09-.15.12-.03.03-.06.05-.1.06-.04.02-.08.04-.12.05-.04 0-.08.02-.12.03-.06.01-.12.02-.18.02-.24 0-.48-.1-.65-.27h-.01s-.04-.04-.05-.07a.254.254 0 0 1-.08-.1.75.75 0 0 1-.1-.2c-4.63-13.76-12.7-25.06-24.22-33.92-29.16-22.4-69.38-19.1-94.92 6.8-13.45 13.64-20.38 30.17-20.78 49.58 0 .06-.01.12-.02.18-.01.04-.03.08-.04.12-.02.04-.04.08-.07.11-.02.04-.05.08-.09.11-.03.04-.07.07-.11.09l-.09.06c-.04.02-.08.04-.12.04-.07.02-.13.03-.2.03-.06 0-.11 0-.17-.02a.578.578 0 0 1-.17-.06c-29.32-14.62-65.24-13.42-87.86 12.4-4.14 4.71-5.84 8.91-9.57 16.06-.03.07-.07.14-.11.22a2.16 2.16 0 0 1-.52.66l-.03.03s0 .01-.02.01c-.09.08-.18.15-.27.2-.05.04-.1.07-.15.09-.09.05-.18.09-.28.13-.01 0-.02.01-.04.02-.32.12-.68.16-1.03.12-.45-.05-.89-.23-1.25-.54-.1-.07-.19-.16-.27-.26-.2-.23-.4-.46-.6-.68-16.1-18.23-36.11-23.43-60.02-15.6-.53.18-.89 0-1.08-.54-4.17-12.69-10.21-22.48-18.1-29.36-22.4-19.58-53.72-22.34-77.54-4.4-10.84 8.18-18.67 19.78-23.5 34.82-.65-4.6-.97-8.91-.97-12.92 0-4.72.45-9.03 1.35-12.92 2.29-9.86 6.73-19.18 13.32-27.94a97.7 97.7 0 0 0 6.48-5.34c24.48-22 62-18.48 83.82 4.4 6.83 7.18 11.87 16.1 15.14 26.76.2.68.64.92 1.32.7 26.71-8.32 47.86-1.2 63.46 21.36.03.05.07.09.11.12.08.07.18.12.28.14.05.01.1.02.15.02h.02c.06 0 .12-.01.18-.03a.62.62 0 0 0 .44-.55c.6-6.21 2.61-11.84 6.02-16.88 21.12-31.16 60.1-32.44 91.36-17.3.53.27.81.1.82-.5.47-21.53 9.04-39.49 25.72-53.88 10.71-9.24 23.31-14.66 37.82-16.28 23.45-2.62 43.37 4.28 59.74 20.7 7.57 7.75 13.13 16.67 16.66 26.76.04.12.1.22.17.31.03.05.07.09.11.13s.09.07.13.11a1.093 1.093 0 0 0 .22.11c.19.08.41.11.62.06.05 0 .1-.01.15-.03.02-.01.04-.01.05-.03.07-.02.13-.05.19-.1.06-.04.12-.08.18-.14 13.69-13.28 30.25-18.32 49.68-15.12 8.09 1.34 16.9 6.46 26.42 15.38 5.11 7.55 8.32 16.66 9.64 27.34Z" style="fill:#53bbc9;stroke-width:0"/><path class="cls-21" d="M181.21 511.77H0v-16c.32.32.65.62.97.92 4.83-15.04 12.66-26.64 23.5-34.82 23.82-17.94 55.14-15.18 77.54 4.4 7.89 6.88 13.93 16.67 18.1 29.36.19.54.55.72 1.08.54 23.91-7.83 43.92-2.63 60.02 15.6ZM183.33 513.25c.34.03.7-.01 1.03-.12-.32.12-.68.16-1.03.12ZM511.77 482.89v28.88H185.78c3.73-7.15 5.43-11.35 9.57-16.06 22.62-25.82 58.54-27.02 87.86-12.4.06.03.11.05.17.06.06.02.11.02.17.02.07 0 .13-.01.2-.03.04 0 .08-.02.12-.04.03-.02.07-.03.09-.06.04-.02.08-.05.11-.09.04-.03.07-.07.09-.11.02-.02.04-.05.05-.07.01-.01.01-.03.02-.04 0-.04.03-.08.04-.12.01-.06.02-.12.02-.18.4-19.41 7.33-35.94 20.78-49.58 25.54-25.9 65.76-29.2 94.92-6.8 11.52 8.86 19.59 20.16 24.22 33.92.03.07.06.14.1.2.02.04.04.07.08.1.01.03.04.05.06.07.17.17.41.27.65.27.06 0 .12-.01.18-.02l.12-.03c.04-.01.08-.03.12-.05.04-.01.07-.03.1-.06.06-.03.11-.07.15-.12 16.8-17.16 43.34-21.94 64.34-9.64 10.56 6.19 17.78 16.85 21.66 31.98Z"/><path d="M511.77 43.05v76.3c-4.52 3.23-10.09 6.06-14.76 9.68l-11.8.12c4.36-7.77 6.97-12.69 7.84-14.77.3-.73.58-1.47.83-2.22.14-.4.27-.8.39-1.2.13-.43.25-.86.37-1.29.09-.29.16-.59.23-.89.08-.28.14-.56.2-.84.05-.23.1-.45.15-.67.11-.53.21-1.07.3-1.6.06-.33.11-.67.16-1.01l.12-.86a25.375 25.375 0 0 0 .18-1.54 50.116 50.116 0 0 0 .19-2.94v-.23c.02-.53.03-1.06.03-1.6v-.14c0-1.36-.06-2.72-.18-4.08-.04-.45-.08-.9-.13-1.35-.11-1.05-.26-2.09-.44-3.13-.12-.73-.27-1.45-.42-2.17-.13-.61-.28-1.21-.44-1.81-.01-.07-.03-.14-.05-.21-.04-.14-.07-.28-.11-.41a40.121 40.121 0 0 0-.93-3.01c-.08-.26-.17-.51-.27-.76-.42-1.19-.9-2.36-1.43-3.5-7.6-16.49-21.3-25.89-41.11-28.18-1.07-.12-1.98-.8-2.38-1.78-10.3-24.08-28.39-38.63-54.27-43.67-3.27-.64-9.99-1.23-20.14-1.78.58-.52 1.16-1.03 1.75-1.51h84.01c1.1.76 2.19 1.55 3.28 2.37 8.63 8.66 15.49 18.52 20.56 29.58.29.62.87 1.06 1.54 1.16 4.84.76 9.6 1.46 14.19 3.16 4.66 1.72 8.84 4.02 12.53 6.78Z" style="stroke-width:0;fill:#c4ebed"/><path d="M373.91 1.51c10.15.55 16.87 1.14 20.15 1.78 25.88 5.04 43.96 19.59 54.26 43.67.41.98 1.32 1.66 2.38 1.78 19.81 2.29 33.52 11.69 41.11 28.18 5.3 11.47 5.94 26.04 1.24 37.46-.87 2.08-3.48 7-7.83 14.77-45.1-.16-90.25-.17-135.43-.02-7.02.02-16.89-2.02-23-6.44-10.63-7.69-16.28-17.81-16.95-30.36-.4-7.66 1.78-15.02 6.54-22.07 6.58-9.74 16.06-15.24 28.44-16.51.65-.07 1.04-.42 1.16-1.06l3.18-17.21c1.52-3.82 3.27-7.58 5.26-11.27 5-9.25 11.5-16.82 19.51-22.71Z" style="fill:#d6f4f7;stroke-width:0"/><path class="cls-14" d="M214.04 107.78a49.887 49.887 0 0 1-3.61 3.5c-4.83 4.25-11.93 7.51-17.66 11.95l-11.8.12c4.36-7.77 6.97-12.69 7.84-14.77 4.7-11.42 4.06-25.99-1.24-37.46-1.88-4.07-4.13-7.72-6.75-10.93-7.99-9.77-19.45-15.53-34.36-17.25-1.06-.12-1.97-.8-2.38-1.78C135.14 20.27 120.34 6.55 99.67 0h62.32c7.1 7.81 12.87 16.53 17.29 26.15.28.62.86 1.06 1.53 1.16 4.44.7 8.82 1.34 13.07 2.76.38.13.75.26 1.13.4 5.14 1.89 9.7 4.5 13.65 7.64h.01c21.12 16.79 24.74 48.89 5.37 69.67Z"/><path class="cls-17" d="M188.81 108.58c-.87 2.08-3.48 7-7.84 14.77-9.17-.03-18.35-.06-27.53-.07-17.99-.05-35.99-.06-54.01-.05-17.28 0-34.57.04-51.87.09-.67.01-1.35.01-2.02.01-7.01.02-16.88-2.02-23-6.44a47.26 47.26 0 0 1-5.07-4.22c-2.7-2.58-4.95-5.39-6.72-8.42-3.09-5.24-4.81-11.14-5.16-17.72-.4-7.66 1.78-15.01 6.54-22.06 6.58-9.74 16.06-15.25 28.44-16.51.65-.07 1.04-.42 1.16-1.06l3.17-17.21c1.52-3.82 3.28-7.58 5.26-11.27C54.02 11.27 58.78 5.13 64.44 0h35.23c20.67 6.55 35.47 20.27 44.41 41.16.41.98 1.32 1.66 2.38 1.78 14.91 1.72 26.37 7.48 34.36 17.25 2.62 3.21 4.87 6.86 6.75 10.93 5.3 11.47 5.94 26.04 1.24 37.46Z"/><path d="M89.95 112.28c8.63 8.66 15.49 18.52 20.57 29.58.29.62.87 1.06 1.54 1.16 4.84.76 9.59 1.46 14.19 3.16 34.22 12.61 42.89 56.68 15.43 80.81-4.84 4.26-11.93 7.52-17.67 11.95l-11.79.12c4.36-7.77 6.97-12.69 7.83-14.77 4.7-11.41 4.06-25.98-1.24-37.46-7.59-16.5-21.3-25.89-41.11-28.18-1.06-.12-1.97-.8-2.38-1.78-10.3-24.08-28.39-38.63-54.26-43.67-3.28-.64-9.99-1.23-20.15-1.78 5.6-5.02 11.45-8.57 17.57-10.65 25.94-8.78 49.77-4.94 71.47 11.51Z" style="fill:#c1edec;stroke-width:0"/><path d="M120.05 224.29c-.87 2.08-3.48 7-7.84 14.77l-9.02-.03c-34.37-.11-68.77-.13-103.19-.05V112.1c.3-.23.6-.46.9-.68 7.3.4 12.82.81 16.57 1.25 1.46.17 2.66.35 3.58.53 10 1.95 18.83 5.31 26.5 10.12 12.18 7.59 21.43 18.78 27.75 33.55.41.98 1.32 1.66 2.38 1.78 19.82 2.29 33.52 11.69 41.12 28.18 1.32 2.88 2.36 5.95 3.09 9.12 2.19 9.47 1.66 19.79-1.85 28.34Z" style="fill:#d2f7f7;stroke-width:0"/><path class="cls-14" d="M511.77 83.21v16.84a89.51 89.51 0 0 0-7.13-1.69c-1.78-.35-4.59-.69-8.43-1.01-3.19-.26-7.1-.52-11.71-.77 3.55-3.19 7.2-5.79 10.96-7.79a44.19 44.19 0 0 1 6.6-2.86c3.27-1.11 6.51-2.02 9.71-2.72Z"/><path class="cls-17" d="M511.77 100.05V224.1c-17.13 0-34.26.04-51.4.09-7.01.02-16.89-2.01-23-6.43-10.64-7.69-16.29-17.81-16.95-30.36-.4-7.66 1.78-15.02 6.53-22.07 6.59-9.74 16.07-15.24 28.45-16.51.65-.06 1.03-.42 1.15-1.06l3.18-17.2c.2-.49.39-.98.6-1.47 1.37-3.33 2.93-6.59 4.66-9.81 5-9.24 11.5-16.81 19.51-22.7 4.61.25 8.52.51 11.71.77 3.84.32 6.65.66 8.43 1.01 2.45.48 4.83 1.04 7.13 1.69Z"/></g></svg>