<svg id="Layer_2" data-name="Layer 2" xmlns="http://www.w3.org/2000/svg" viewBox="0 0 439.51 463.81"><defs><style>.cls-1,.cls-4{fill:#996d58;stroke-width:0}.cls-4{fill:#f6b545}</style></defs><g id="Layer_1-2" data-name="Layer 1"><path d="M247.72 335.8c-.47-3.54-.38-7.8 2.18-10.53 26.05-27.83 52.07-55.81 78.07-83.93 12.92-13.97 20.06-21.75 21.41-23.34 1.42-1.67 2.17-3.64 2.25-5.89.19-5.75.19-12.24 0-19.47 0-.24-.21-.42-.44-.42a.44.44 0 0 0-.22.07L249.13 255c-.92.57-1.39.31-1.4-.76-.12-8.22-.14-17.13-.06-26.72.02-1.87.28-3.41.78-4.61.31-.73 1.17-2.06 2.59-4 1.23-1.68 7.91-11.33 20.06-28.94 15.8-22.92 31.33-45.3 46.6-67.15 1.33-1.91 2-3.83 2-5.76 0-8.27.01-14.81.06-19.61 0-1.11-.4-1.29-1.22-.54l-86.05 78.27c-.45.41-1.14.42-1.61.02L128.42 88.35c-.32-.27-.49-.2-.52.22-.43 7.69-.46 14.11-.11 19.24.22 3.24.74 5.43 1.55 6.56 4.22 5.89 10.28 14.49 18.19 25.82 11.74 16.8 23.69 33.85 35.84 51.16-.61 1.23-1.54 2.46-2.8 3.71-.76.75-1.21 1.36-1.34 1.85-.23.87-.01 1.68.66 2.44.81.9 1.96 2.04 3.46 3.42.47 15.87.46 32.04-.01 48.52-1.99-.58-4.12.34-6.41 2.75-.27.29-.55.5-.86.64-.3.13-.64.27-1.01.42l-94.4-94.29c-.19-.19-.51-.18-.72.02-.01.01-.03.03-.04.05-.1.13-.16.37-.17.71-.18 6.23-.22 14.74-.12 25.54.03 2.47.5 4.53 1.41 6.16.67 1.21 2.13 3.21 4.37 6 1.8 2.25 3.32 4.19 4.55 5.81 30.56 40.01 61.14 80 91.73 119.99 1.97 2.58 2.63 6.16 1.96 10.73l-47.34-.03c-.39 0-.72.14-.99.41l-31.24 31.25c-.09.08-.23.09-.31 0a.22.22 0 0 1-.06-.15v-31.24c0-.14-.11-.25-.24-.25H40.21c-.12 0-.21-.11-.21-.23 0-.05.02-.1.06-.14l55.12-55.12a.299.299 0 0 0-.22-.51H24.62c-.61 0-.7-.22-.27-.66l46.84-46.83c.12-.13.11-.32-.02-.44a.318.318 0 0 0-.2-.08H8.42c-.17 0-.3-.13-.31-.29 0-.08.03-.16.09-.22l31.02-31.01c.26-.26.26-.67 0-.93L8.09 168.22a.567.567 0 0 1 0-.8l31.23-31.23c.2-.2.21-.53 0-.74L.21 96.33c-.35-.35-.27-.52.22-.52h46.51c.5 0 .75-.25.75-.75V16.54c0-.49.17-.56.52-.22l46.91 46.91c.38.39.57.31.57-.23V16.54c0-.49.17-.56.52-.22l23.23 23.23c.14.14.36.14.49 0l31.36-31.36c.26-.25.52-.25.78 0l27.25 27.25c.2.2.52.2.73 0L215.31.18c.25-.25.51-.25.76 0l31.25 31.25c.25.25.5.25.75 0l23.12-23.12c.33-.33.67-.33 1 0l31.25 31.24c.17.17.33.17.5 0l31.23-31.23c.35-.34.52-.27.52.22v31.03c0 .13.11.24.24.24h47.25c.28 0 .51.23.51.51v47.24c0 .14.11.25.25.25h47.23c.12 0 .21.11.21.23 0 .05-.02.1-.06.14l-35.19 35.2c-.24.24-.24.63 0 .87l43.19 43.18c.25.25.25.51 0 .76l-23.12 23.12c-.33.33-.51.77-.51 1.23v46.77c0 .33-.17.49-.5.49h-31c-.28 0-.5.23-.5.51v55c0 .33-.17.5-.5.5h-47c-.28 0-.5.22-.5.5v62.77c0 .49-.17.56-.52.21l-22.77-22.77c-.47-.47-1.1-.73-1.76-.73h-62.92Z" style="fill:#2b9546;stroke-width:0"/><path d="m247.72 335.8-.08 4.48-28.46 28.48c-.76.76-.76 2 0 2.76l9.57 9.56c.4.4 1.05.4 1.45 0s17.46-17.6 17.46-17.6l.04 67.81c0 .35.15.63.45.83l46.69 31.11c.57.39.51.58-.18.58H136.7c-.69 0-.74-.19-.17-.57l46.58-31.04c.37-.25.6-.67.6-1.12l.02-35.53c5.09 4.49 9.89 9.09 14.4 13.82 1.01 1.06 1.51 1.9 1.51 2.53.01 6.73.03 15.86.05 27.37 0 .3.24.55.54.55h14.95c.24 0 .44-.2.44-.44.05-10.31.04-20.66-.03-31.04-.02-2.58-.56-4.44-1.61-5.57-5.59-6.03-15.67-16.02-30.24-29.97l-.11-36.98c.67-4.57.01-8.15-1.96-10.73-30.59-39.99-61.17-79.98-91.73-119.99a298.68 298.68 0 0 0-4.55-5.81c-2.24-2.79-3.7-4.79-4.37-6-.91-1.63-1.38-3.69-1.41-6.16-.1-10.8-.06-19.31.12-25.54.01-.34.07-.58.17-.71.18-.23.5-.28.72-.11.02.01.03.03.04.04l94.4 94.29c.11 1.65-1.14 3.31-3.75 5a1.693 1.693 0 0 0-.27 2.62l30.04 30.05c.51.51 1.35.51 1.86 0l9.4-9.41c.82-.81.83-1.63.02-2.46l-29.02-29.61c.47-16.48.48-32.65.01-48.52l25.54 25.58c.68.69 1.8.7 2.49.01l.01-.01 8.99-8.98c.65-.66.65-1.71 0-2.37l-30.34-30.33a1.068 1.068 0 0 0-1.61.13c-1.59 2.22-3.27 3.74-5.06 4.55-12.15-17.31-24.1-34.36-35.84-51.16-7.91-11.33-13.97-19.93-18.19-25.82-.81-1.13-1.33-3.32-1.55-6.56-.35-5.13-.32-11.55.11-19.24.03-.42.2-.49.52-.22l102.46 86.85c.47.4 1.16.39 1.61-.02l86.05-78.27c.82-.75 1.23-.57 1.22.54-.05 4.8-.07 11.34-.06 19.61 0 1.93-.67 3.85-2 5.76-15.27 21.85-30.8 44.23-46.6 67.15-12.15 17.61-18.83 27.26-20.06 28.94-1.42 1.94-2.28 3.27-2.59 4-.5 1.2-.76 2.74-.78 4.61-.08 9.59-.06 18.5.06 26.72.01 1.07.48 1.33 1.4.76l101.84-62.71c.2-.13.47-.07.59.13.04.07.06.14.07.22.19 7.23.19 13.72 0 19.47-.08 2.25-.83 4.22-2.25 5.89-1.35 1.59-8.49 9.37-21.41 23.34-26 28.12-52.02 56.1-78.07 83.93-2.56 2.73-2.65 6.99-2.18 10.53Z" style="fill:#65422b;stroke-width:0"/><path class="cls-1" d="M183.35 202.78c-1.5-1.38-2.65-2.52-3.46-3.42-.67-.76-.89-1.57-.66-2.44.13-.49.58-1.1 1.34-1.85 1.26-1.25 2.19-2.48 2.8-3.71 1.79-.81 3.47-2.33 5.06-4.55.34-.48 1-.58 1.48-.24.05.03.09.07.13.11l30.34 30.33c.65.66.65 1.71 0 2.37l-8.99 8.98c-.68.69-1.8.7-2.49.01l-.01-.01-25.54-25.58ZM183.34 251.3l29.02 29.61c.81.83.8 1.65-.02 2.46l-9.4 9.41c-.51.51-1.35.51-1.86 0l-30.04-30.05a1.69 1.69 0 0 1 .27-2.62c2.61-1.69 3.86-3.35 3.75-5 .37-.15.71-.29 1.01-.42.31-.14.59-.35.86-.64 2.29-2.41 4.42-3.33 6.41-2.75Z"/><rect class="cls-1" x="228.07" y="255.82" width="22.92" height="16.32" rx="1.65" ry="1.65" transform="rotate(-44.3 239.53 263.97)"/><path class="cls-1" d="m247.64 340.28.02 23.2-17.46 17.6c-.4.4-1.05.4-1.45 0l-9.57-9.56c-.76-.76-.76-2 0-2.76l28.46-28.48ZM183.73 395.55V372.8c14.58 13.95 24.66 23.94 30.25 29.97 1.05 1.13 1.59 2.99 1.61 5.57.07 10.38.08 20.73.03 31.04 0 .24-.2.44-.44.44h-14.95c-.3 0-.54-.25-.54-.55-.02-11.51-.04-20.64-.05-27.37 0-.63-.5-1.47-1.51-2.53a231.11 231.11 0 0 0-14.4-13.82Z"/><circle class="cls-4" cx="122.4" cy="299.46" r="16.94"/><circle class="cls-4" cx="73.54" cy="123.31" r="14.46"/><circle class="cls-4" cx="241.32" cy="118.57" r="18.34"/><circle class="cls-4" cx="179.14" cy="62.92" r="12.04"/><circle class="cls-4" cx="351.78" cy="71.26" r="16.94"/><circle class="cls-4" cx="385.65" cy="203.3" r="16.94"/><circle class="cls-4" cx="310.15" cy="304.69" r="16.94"/><circle class="cls-4" cx="300.44" cy="224.56" r="16.94"/><circle class="cls-4" cx="161.06" cy="173.32" r="16.94"/><path d="m190.42 361.94 31.56.1c1.06 1.32 1.33 2.73.8 4.24-.67 1.94-2.07 2.1-3.93 2.12-8.42 0-18.77.02-31.05.02-3.42 0-4.6-1.99-3.53-5.98 1.44-.51 3.49-.67 6.14-.51Z" style="fill:#ffe27a;stroke-width:0"/><path d="M242.54 361.96c.72 4.94-.15 9.23-2.62 12.84l-14.79.22H178c-1.46-5.91.64-10.11 6.29-12.58-1.07 3.99.11 5.98 3.53 5.98 12.27 0 22.62-.02 31.05-.02 1.86-.01 3.27-.17 3.93-2.12.52-1.51.25-2.92-.8-4.24l2.68-.06 17.87-.02Z" style="fill:#ffcb5b;stroke-width:0"/><path class="cls-4" d="M249.08 381.11c.23-1.5.22-2.78-.03-3.82a2.91 2.91 0 0 0-2.7-2.21l-6.43-.28c2.47-3.62 3.34-7.9 2.62-12.84.39.05.73.05 1.01-.01 12.66-1.62 17.26 14.44 5.53 19.16Z"/><path d="m249.07 381.1-5.03.69h-34.2v-.06l14.17-.04c.26 0 .47-.21.47-.47 0-.12-.04-.24-.12-.33-1.83-2.12-1.58-4.08.76-5.87l14.79-.22 6.43.28c1.28.05 2.38.95 2.7 2.2.25 1.05.26 2.32.03 3.82Z" style="fill:#f19920;stroke-width:0"/><path class="cls-4" d="M225.13 375.02c-2.34 1.79-2.59 3.75-.76 5.88.17.2.15.51-.04.68-.09.08-.2.12-.31.11l-14.17.05-19.72.03c-6.16.28-10.21-1.96-12.13-6.74h47.13Z"/></g></svg>