<svg id="Layer_2" data-name="Layer 2" xmlns="http://www.w3.org/2000/svg" viewBox="0 0 47.72 61.54"><defs><style>.cls-1{fill:#a86a42}.cls-1,.cls-2,.cls-3,.cls-5,.cls-6{stroke-width:0}.cls-2{fill:#dfd2cf}.cls-3{fill:#c33b28}.cls-5{fill:#d0483a}.cls-6{fill:#e2e0df}</style></defs><g id="Layer_1-2" data-name="Layer 1"><path class="cls-1" d="M4.18 17.18H9v36.76H4.18zM37.9 18.4h4.82v36.76H37.9z"/><rect y="35.23" width="47.72" height="26.32" rx="2.23" ry="2.23" style="fill:#cb8352;stroke-width:0"/><path class="cls-5" d="M.98 12.58h7.63v5.29c0 1.29-1.04 2.33-2.33 2.33H3.32c-1.29 0-2.33-1.04-2.33-2.33v-5.29Z"/><path class="cls-6" d="M8.61 12.58h7.63v5.29c0 1.29-1.04 2.33-2.33 2.33h-2.96c-1.29 0-2.33-1.04-2.33-2.33v-5.29Z"/><path class="cls-5" d="M16.23 12.58h7.63v5.29c0 1.29-1.04 2.33-2.33 2.33h-2.96c-1.29 0-2.33-1.04-2.33-2.33v-5.29Z"/><path class="cls-6" d="M23.86 12.58h7.63v5.29c0 1.29-1.04 2.33-2.33 2.33H26.2c-1.29 0-2.33-1.04-2.33-2.33v-5.29Z"/><path class="cls-5" d="M31.49 12.58h7.63v5.29c0 1.29-1.04 2.33-2.33 2.33h-2.96c-1.29 0-2.33-1.04-2.33-2.33v-5.29Z"/><path class="cls-6" d="M39.11 12.58h7.63v5.29c0 1.29-1.04 2.33-2.33 2.33h-2.96c-1.29 0-2.33-1.04-2.33-2.33v-5.29Z"/><path class="cls-3" d="m11.35 0-.92 4.22-1.83 8.37H.98L5.12 0h6.23z"/><path class="cls-2" d="m17.93 0-.87 6.46-.83 6.13H8.6l1.83-8.37.92-4.22h6.58z"/><path class="cls-3" d="M23.86 12.59h-7.63l.83-6.13.87-6.46h5.82l.07 7.11.04 5.48z"/><path class="cls-2" d="M31.49 12.59h-7.63l-.04-5.48L23.75 0h5.98l1.5 10.72.26 1.87z"/><path class="cls-3" d="M39.12 12.59h-7.63l-.26-1.87L29.73 0h6.12l3.27 12.59z"/><path class="cls-2" d="M46.74 12.59h-7.62L35.85 0h6.76l4.13 12.59z"/><path d="M23.86 50.21c-.59 0-1.18-.01-1.77-.04-1.68-.07-3.16-.93-3.93-2.41-1.61-3.06.36-6.88 3.93-6.97.1 0 .19-.07.21-.17.2-.86.62-1.33 1.26-1.39 1.09-.12 1.71.33 1.87 1.35.02.1.08.15.18.16.6.03.97.04 1.13.04 1.23-.04 1.84.5 1.83 1.65-.01.95-.56 1.44-1.63 1.48-.37.01-1.84.01-4.41-.01-1.32-.01-2.17 1.1-1.62 2.3.5 1.09 1.78.86 3 .86.59 0 1.19 0 1.78.03 1.68.07 3.15.93 3.93 2.41 1.61 3.06-.36 6.88-3.93 6.97-.1 0-.19.07-.21.17-.2.86-.62 1.33-1.26 1.39-1.09.12-1.71-.33-1.87-1.35-.02-.1-.08-.15-.18-.16-.6-.03-.97-.04-1.13-.04-1.23.04-1.84-.5-1.83-1.65.01-.95.56-1.44 1.63-1.48.37-.01 1.84-.01 4.41.01 1.32.01 2.17-1.1 1.62-2.3-.5-1.09-1.78-.86-3-.86Z" style="opacity:.14;stroke-width:0"/></g></svg>