<svg id="Layer_2" data-name="Layer 2" xmlns="http://www.w3.org/2000/svg" viewBox="0 0 215.05 234.6"><defs><style>.cls-1{fill:#fc9842}.cls-1,.cls-10,.cls-2,.cls-3,.cls-4,.cls-5,.cls-7,.cls-8,.cls-9{stroke-width:0}.cls-2{fill:#feba80}.cls-11{stroke:#f5deb0}.cls-11,.cls-12,.cls-13,.cls-14,.cls-15,.cls-18,.cls-20,.cls-21,.cls-22,.cls-23{fill:none;stroke-width:2px}.cls-3{fill:#ffa314}.cls-12{stroke:#ffd672}.cls-13{stroke:#fff47b}.cls-14{stroke:#fed07a}.cls-15{stroke:#fec553}.cls-4{fill:#ffb543}.cls-5{fill:#ffcb5b}.cls-18{stroke:#feb271}.cls-20{stroke:#fec76a}.cls-21{stroke:#f8c080}.cls-7{fill:#f7e5c1}.cls-8{fill:#f6b545}.cls-22{stroke:#fbec92}.cls-9{fill:#fda961}.cls-23{stroke:#fece62}.cls-10{fill:#f19920}</style></defs><g id="Layer_1-2" data-name="Layer 1"><path class="cls-13" d="M23.81 0c.04 5.79.06 11.57.05 17.36 0 6.26-5.1 5.61-9.52 5.57" vector-effect="non-scaling-stroke"/><path class="cls-20" d="M14.12 21.38c.52-4.79.57-9.53.16-14.23" vector-effect="non-scaling-stroke"/><path class="cls-12" d="m29.75 4.75-.09 11.92" vector-effect="non-scaling-stroke"/><path class="cls-23" d="M29.66 16.66v6.24c0 .25.21.45.46.45l24.75.03" vector-effect="non-scaling-stroke"/><path class="cls-22" d="m54.86 23.38-24.19.09c-.33 0-.57.14-.73.42-.29.51-.36 1.23-.23 2.18" vector-effect="non-scaling-stroke"/><path class="cls-13" d="M194.86 0c.03 5.87.02 11.75-.04 17.61-.02 2.11-.5 3.53-1.44 4.25-.84.66-2.06 1-3.66 1.02-.93.02-2.22.03-3.88.05-.12 0-.21-.03-.28-.08a.38.38 0 0 1-.13-.3" vector-effect="non-scaling-stroke"/><path class="cls-14" d="m185.44 22.56.07-19.67" vector-effect="non-scaling-stroke"/><path class="cls-23" d="M200.69 3.09v2.98" vector-effect="non-scaling-stroke"/><path class="cls-15" d="M200.75 7.16v14.37" vector-effect="non-scaling-stroke"/><path class="cls-23" d="M200.7 22.77v2.59" vector-effect="non-scaling-stroke"/><path d="m185.49 26.3-.18-3.03" vector-effect="non-scaling-stroke" style="stroke:#f9e481;fill:none;stroke-width:2px"/><path class="cls-23" d="m185.31 23.27.13-.71" vector-effect="non-scaling-stroke"/><path class="cls-21" d="m185.31 23.27-8.55.1" vector-effect="non-scaling-stroke"/><path d="M176.76 23.37H54.86" vector-effect="non-scaling-stroke" style="stroke:#fac791;fill:none;stroke-width:2px"/><path class="cls-18" d="M29.66 16.66c47.65.16 95.3.16 142.95.02 2.02 0 4.15.19 5.34-1.51.53-.77.78-2.13.73-4.07-.04-1.95-.05-3.55-.02-4.79.02-.69-.53-1.27-1.23-1.29h-.02l-22.85-.23M39.39 4.82h4.27M150.11 4.8h1.9" vector-effect="non-scaling-stroke"/><path d="M185.51 208.39c.33.31.35 1.06.05 2.25" vector-effect="non-scaling-stroke" style="stroke:#f9e698;fill:none;stroke-width:2px"/><path class="cls-21" d="m185.55 210.65-6.86-.07" vector-effect="non-scaling-stroke"/><path d="m178.69 210.58-129.93-.03" vector-effect="non-scaling-stroke" style="stroke:#f9c88f;fill:none;stroke-width:2px"/><path class="cls-11" d="M48.76 210.55h127.8c.14 0 .25-.12.25-.26v-29.41c0-2.2.08-4.53-1.42-5.59-2.28-1.61-4.95-.11-6.88-1.6-1.18-.92-1.71-2.06-1.61-3.42.06-.68.57-1.69 1.54-3.02.74-1.02 3.44-4.9 8.11-11.64.16-.23.15-.46-.04-.68a950.01 950.01 0 0 0-3.34-3.78c-5.75-6.5-1.44-9.92 3.24-15.07.23-.26.35-.56.35-.9V23.37" vector-effect="non-scaling-stroke"/><path d="m48.76 210.55-19.14-.1" vector-effect="non-scaling-stroke" style="stroke:#fbd0a1;fill:none;stroke-width:2px"/><path class="cls-22" d="M29.62 210.45c.2-.98.23-1.72.08-2.22" vector-effect="non-scaling-stroke"/><path class="cls-11" d="M29.73 180.45V94.56" vector-effect="non-scaling-stroke"/><path class="cls-12" d="m29.62 210.45-.05 12.22" vector-effect="non-scaling-stroke"/><path class="cls-23" d="m29.57 222.67.12 8.4" vector-effect="non-scaling-stroke"/><path class="cls-13" d="M14.4 228.63c2.2.38 4.11.39 5.73.04 2.65-.59 3.95-2.36 3.89-5.33-.11-5.76-.17-11.53-.2-17.32" vector-effect="non-scaling-stroke"/><path class="cls-23" d="M200.7 209.02v3.1" vector-effect="non-scaling-stroke"/><path class="cls-15" d="m200.75 213.11.03 14.38" vector-effect="non-scaling-stroke"/><path class="cls-23" d="M200.7 228.26v3.11M185.3 230.35l.31-1.39" vector-effect="non-scaling-stroke"/><path class="cls-13" d="M185.61 228.96c2.95 0 4.86-.09 5.73-.28 2.36-.52 3.55-2.14 3.55-4.87V206" vector-effect="non-scaling-stroke"/><path class="cls-20" d="M13.87 227.38c.14-.24.27-.46.38-.66.14-.23.21-.46.23-.7.23-4.35.21-8.66-.07-12.9" vector-effect="non-scaling-stroke"/><path class="cls-14" d="m185.61 228.96-.06-18.32" vector-effect="non-scaling-stroke"/><path class="cls-18" d="m178.69 210.58-.08 8.44a3.67 3.67 0 0 1-3.67 3.63l-145.37.02" vector-effect="non-scaling-stroke"/><path class="cls-4" d="M23.81 0c.04 5.79.06 11.57.05 17.36 0 6.26-5.1 5.61-9.52 5.57.08-.93 0-1.45-.22-1.56.52-4.79.57-9.53.16-14.23 0-3.33-.25-5.86 2.86-7.15h6.67Z"/><path class="cls-3" d="M26.93 0c2.05.83 2.99 2.41 2.82 4.74l-.09 11.92v6.24c0 .25.21.45.46.45l24.75.03-24.19.09c-.33 0-.57.14-.73.42-.29.51-.36 1.23-.23 2.18-.96 1.78-2.1 2.67-3.41 2.67-2.36.01-4.72.03-7.07.07-3.8.06-5.44-1.9-4.91-5.86 4.43.04 9.52.69 9.52-5.57.01-5.79 0-11.57-.05-17.36h3.12Z"/><path class="cls-4" d="M194.86 0c.03 5.87.02 11.75-.04 17.61-.02 2.11-.5 3.53-1.44 4.25-.84.66-2.06 1-3.66 1.02-.93.02-2.22.03-3.88.05-.12 0-.21-.03-.28-.08a.38.38 0 0 1-.13-.3l.07-19.67c.59-1.35 1.51-2.31 2.78-2.88h6.58Z"/><path class="cls-3" d="M198.12 0c1.36.65 2.21 1.68 2.57 3.08v2.98l.07 1.09v14.37l-.06 1.25v2.59c-.44 2.24-1.63 3.37-3.58 3.38-2.63.03-5.27.03-7.92.03-1.48 0-2.72-.83-3.71-2.47l-.18-3.03.13-.71c0 .13.04.23.13.3.07.06.16.08.28.08 1.65-.01 2.94-.03 3.88-.05 1.6-.03 2.82-.37 3.66-1.02.94-.72 1.42-2.14 1.44-4.25.06-5.87.07-11.74.04-17.61h3.26Z"/><path class="cls-9" d="m185.51 2.89-.07 19.67-.13.71-8.55.1H54.86l-24.75-.02c-.25 0-.45-.2-.45-.45v-6.24c47.64.16 95.29.16 142.94.02 2.02 0 4.15.19 5.34-1.51.53-.77.78-2.13.73-4.07-.04-1.95-.05-3.55-.02-4.79.02-.69-.53-1.27-1.23-1.29h-.02l-22.85-.23 30.26-.16c.34 0 .52-.17.55-.51l.12-1.25ZM200.7 6.07V3.09v2.98Z"/><path class="cls-2" d="M39.39 4.82h4.27l106.45-.02h4.46l22.85.23c.69 0 1.25.57 1.25 1.27v.02c-.03 1.24-.03 2.83.02 4.79.04 1.95-.2 3.3-.73 4.07-1.19 1.7-3.32 1.5-5.34 1.51-47.65.14-95.3.14-142.95-.02l.09-11.92 9.64.08Z"/><path class="cls-1" d="M14.28 7.16c.41 4.69.36 9.43-.16 14.23l-10.62.02c-1.82 0-3.33-1.43-3.41-3.26-.1-2.29-.1-4.65 0-7.1.1-2.65 1.56-3.96 4.38-3.91 3.24.04 6.51.04 9.81.02ZM200.75 21.52V7.16c3.36.02 6.66 0 9.89-.06 1.48-.03 2.65.46 3.5 1.48.6.72.9 1.81.9 3.27 0 3.01-.03 5.04-.08 6.09-.1 2-1.74 3.57-3.74 3.57h-10.47Z"/><path d="m185.31 23.27.18 3.03c.03 35.67.03 71.32.02 106.96 0 1.58-.39 2.81-1.16 3.69-2.1 2.38-3.84 4.33-5.23 5.85a3.7 3.7 0 0 0-.1 4.88l4.58 5.47a3.711 3.711 0 0 1 .21 4.51c-1.11 1.6-3.46 4.96-7.03 10.09-1.38 1.98-1.68 3.88.03 5.58.48.49 1.28.8 2.39.94.08.01.94.1 2.61.25 2.31.21 3.48 1.5 3.51 3.85.13 9.98.19 19.99.2 30.03.33.31.35 1.06.05 2.25l-6.86-.07-129.93-.03h127.8c.14 0 .25-.12.25-.26v-29.41c0-2.2.08-4.53-1.42-5.59-2.28-1.61-4.95-.11-6.88-1.6-1.18-.92-1.71-2.06-1.61-3.42.06-.68.57-1.69 1.54-3.02.74-1.02 3.44-4.9 8.11-11.64.16-.23.15-.46-.04-.68a950.01 950.01 0 0 0-3.34-3.78c-5.75-6.5-1.44-9.92 3.24-15.07.23-.26.35-.56.35-.9V23.37l8.54-.1Z" style="fill:#f3d69e;stroke-width:0"/><path class="cls-7" d="M54.86 23.38h121.9v111.8c0 .34-.12.64-.35.9-4.67 5.15-8.99 8.57-3.24 15.07.9 1.01 2.01 2.27 3.34 3.78.19.22.2.44.04.68-4.67 6.74-7.37 10.62-8.11 11.64-.97 1.33-1.48 2.34-1.54 3.02-.1 1.36.44 2.5 1.61 3.42 1.92 1.49 4.6 0 6.88 1.6 1.49 1.06 1.42 3.4 1.42 5.59-.01 9.78-.02 19.58 0 29.41 0 .14-.11.25-.25.25H48.76l-19.14-.09c.2-.98.23-1.72.08-2.22l.03-27.78V94.56l-.07-24.58c0-.7.25-1.37.69-1.9 1.24-1.45 3.06-3.53 5.45-6.23 1.57-1.75.65-4.04-1.14-5.55-1.05-.89-2.31-1.97-3.78-3.25a3.615 3.615 0 0 1-1.24-2.73l.06-24.26c-.14-.94-.06-1.67.23-2.18.16-.28.41-.42.73-.42l24.19-.09Z"/><ellipse class="cls-7" cx="59.26" cy="124.95" rx="10.43" ry="3.47"/><path class="cls-3" d="M29.71 208.23c.14.51.12 1.25-.08 2.22l-.05 12.22.12 8.4c-.2 1.62-1.07 2.8-2.61 3.54H16.97c-2.33-1.05-3.19-3.04-2.57-5.98 2.2.38 4.11.39 5.73.04 2.65-.59 3.95-2.36 3.89-5.33-.11-5.76-.17-11.53-.2-17.32 2.32-.59 4.28.15 5.87 2.21ZM200.7 209.02v3.1l.06.99.03 14.38c-.08.26-.11.52-.08.78v3.11c-.28 1.51-1.15 2.59-2.6 3.24h-10.1c-1.76-.81-2.66-2.22-2.7-4.25l.31-1.39c2.95 0 4.86-.09 5.73-.28 2.36-.52 3.55-2.14 3.55-4.87v-17.81c3.14-.58 5.08.43 5.82 3.02Z"/><path class="cls-4" d="M23.83 206.01c.03 5.79.09 11.57.2 17.32.06 2.97-1.24 4.74-3.89 5.33-1.63.36-3.54.34-5.73-.04-.04-.9-.22-1.32-.53-1.25.14-.24.27-.46.38-.66.14-.23.21-.46.23-.7.23-4.35.21-8.66-.07-12.9-.15-1.39-.14-2.73.03-4.03.18-1.39 1.42-2.86 2.84-2.99 2.22-.21 4.4-.24 6.54-.08ZM194.88 206c.01 5.96.02 11.9 0 17.81 0 2.73-1.18 4.35-3.55 4.87-.88.19-2.79.28-5.73.28l-.06-18.32c.3-1.19.28-1.94-.05-2.25.97-1.65 2.24-2.47 3.82-2.49 1.89-.01 3.74.02 5.56.09Z"/><path class="cls-9" d="M200.71 212.12v-3.1 3.1Z"/><path class="cls-2" d="m48.76 210.55 129.93.03-.08 8.44a3.67 3.67 0 0 1-3.67 3.63l-145.37.02.05-12.22 19.14.1Z"/><path class="cls-9" d="m185.55 210.65.06 18.32-.31 1.39c-.04-.08-.08-.15-.13-.22a.39.39 0 0 0-.33-.17H30.39c-.38 0-.59.19-.64.57l-.06.53-.12-8.4 145.37-.02a3.67 3.67 0 0 0 3.67-3.63l.08-8.44 6.86.07Z"/><path class="cls-1" d="M14.42 213.11c.28 4.25.3 8.55.07 12.9-.01.24-.09.48-.23.7-.12.19-.25.41-.38.66-3.05.09-6.1.18-9.17.26-2.97.07-4.49-1.29-4.56-4.07-.07-2.41-.12-4.04-.14-4.86-.08-3.32.76-5.71 4.48-5.67 3.26.04 6.57.07 9.94.08ZM200.78 227.48l-.03-14.38c3.28.01 6.51-.03 9.68-.12 1.47-.04 2.69.46 3.66 1.51.61.66.93 1.79.94 3.38.01 2.24.02 3.98 0 5.22-.01 2.74-1.39 4.14-4.14 4.2-3.34.08-6.72.14-10.13.19Z"/><path class="cls-9" d="M200.71 231.37v-3.11 3.11Z"/><path class="cls-5" d="M151.5 154.46v.19H73.98v-.19c0-2.79 2.27-5.06 5.06-5.06h67.4c2.79 0 5.06 2.27 5.06 5.06Z"/><path class="cls-10" d="M151.5 165.34v.19c0 2.79-2.27 5.06-5.06 5.06h-67.4c-2.79 0-5.06-2.27-5.06-5.06v-.19h77.52Z"/><path class="cls-8" d="M73.98 154.65h77.52v10.69H73.98z"/><path class="cls-10" d="M84.05 155.38h.9c1.24 0 2.25 1.01 2.25 2.25v10.33h-5.4v-10.33c0-1.24 1.01-2.25 2.25-2.25ZM97.86 155.38h.9c1.24 0 2.25 1.01 2.25 2.25v10.33h-5.4v-10.33c0-1.24 1.01-2.25 2.25-2.25ZM111.89 155.38h.9c1.24 0 2.25 1.01 2.25 2.25v10.33h-5.4v-10.33c0-1.24 1.01-2.25 2.25-2.25ZM126.63 155.38h.9c1.24 0 2.25 1.01 2.25 2.25v10.33h-5.4v-10.33c0-1.24 1.01-2.25 2.25-2.25ZM141.36 155.38h.9c1.24 0 2.25 1.01 2.25 2.25v10.33h-5.4v-10.33c0-1.24 1.01-2.25 2.25-2.25Z"/><path class="cls-5" d="M163.14 133.17v.19H85.62v-.19c0-2.79 2.27-5.06 5.06-5.06h67.4c2.79 0 5.06 2.27 5.06 5.06Z"/><path class="cls-10" d="M163.14 144.05v.19c0 2.79-2.27 5.06-5.06 5.06h-67.4c-2.79 0-5.06-2.27-5.06-5.06v-.19h77.52Z"/><path class="cls-8" d="M85.62 133.37h77.52v10.69H85.62z"/><path class="cls-10" d="M95.69 134.1h.9c1.24 0 2.25 1.01 2.25 2.25v10.33h-5.4v-10.33c0-1.24 1.01-2.25 2.25-2.25ZM109.5 134.1h.9c1.24 0 2.25 1.01 2.25 2.25v10.33h-5.4v-10.33c0-1.24 1.01-2.25 2.25-2.25ZM123.53 134.1h.9c1.24 0 2.25 1.01 2.25 2.25v10.33h-5.4v-10.33c0-1.24 1.01-2.25 2.25-2.25ZM138.27 134.1h.9c1.24 0 2.25 1.01 2.25 2.25v10.33h-5.4v-10.33c0-1.24 1.01-2.25 2.25-2.25ZM153 134.1h.9c1.24 0 2.25 1.01 2.25 2.25v10.33h-5.4v-10.33c0-1.24 1.01-2.25 2.25-2.25Z"/><path class="cls-5" d="M153.8 111.89v.19H76.28v-.19c0-2.79 2.27-5.06 5.06-5.06h67.4c2.79 0 5.06 2.27 5.06 5.06Z"/><path class="cls-10" d="M153.8 122.77v.19c0 2.79-2.27 5.06-5.06 5.06h-67.4c-2.79 0-5.06-2.27-5.06-5.06v-.19h77.52Z"/><path class="cls-8" d="M76.28 112.08h77.52v10.69H76.28z"/><path class="cls-10" d="M86.35 112.81h.9c1.24 0 2.25 1.01 2.25 2.25v10.33h-5.4v-10.33c0-1.24 1.01-2.25 2.25-2.25ZM100.16 112.81h.9c1.24 0 2.25 1.01 2.25 2.25v10.33h-5.4v-10.33c0-1.24 1.01-2.25 2.25-2.25ZM114.2 112.81h.9c1.24 0 2.25 1.01 2.25 2.25v10.33h-5.4v-10.33c0-1.24 1.01-2.25 2.25-2.25ZM128.93 112.81h.9c1.24 0 2.25 1.01 2.25 2.25v10.33h-5.4v-10.33c0-1.24 1.01-2.25 2.25-2.25ZM143.67 112.81h.9c1.24 0 2.25 1.01 2.25 2.25v10.33h-5.4v-10.33c0-1.24 1.01-2.25 2.25-2.25Z"/><path class="cls-5" d="M165.84 90.61v.19H88.32v-.19c0-2.79 2.27-5.06 5.06-5.06h67.4c2.79 0 5.06 2.27 5.06 5.06Z"/><path class="cls-10" d="M165.84 101.49v.19c0 2.79-2.27 5.06-5.06 5.06h-67.4c-2.79 0-5.06-2.27-5.06-5.06v-.19h77.52Z"/><path class="cls-8" d="M88.31 90.8h77.52v10.69H88.31z"/><path class="cls-10" d="M98.39 91.53h.9c1.24 0 2.25 1.01 2.25 2.25v10.33h-5.4V93.78c0-1.24 1.01-2.25 2.25-2.25ZM112.2 91.53h.9c1.24 0 2.25 1.01 2.25 2.25v10.33h-5.4V93.78c0-1.24 1.01-2.25 2.25-2.25ZM126.23 91.53h.9c1.24 0 2.25 1.01 2.25 2.25v10.33h-5.4V93.78c0-1.24 1.01-2.25 2.25-2.25ZM140.97 91.53h.9c1.24 0 2.25 1.01 2.25 2.25v10.33h-5.4V93.78c0-1.24 1.01-2.25 2.25-2.25ZM155.7 91.53h.9c1.24 0 2.25 1.01 2.25 2.25v10.33h-5.4V93.78c0-1.24 1.01-2.25 2.25-2.25Z"/><path class="cls-5" d="M155.84 70.03v.19H78.32v-.19c0-2.79 2.27-5.06 5.06-5.06h67.4c2.79 0 5.06 2.27 5.06 5.06Z"/><path class="cls-10" d="M155.84 80.91v.19c0 2.79-2.27 5.06-5.06 5.06h-67.4c-2.79 0-5.06-2.27-5.06-5.06v-.19h77.52Z"/><path class="cls-8" d="M78.31 70.23h77.52v10.69H78.31z"/><path class="cls-10" d="M88.39 70.96h.9c1.24 0 2.25 1.01 2.25 2.25v10.33h-5.4V73.21c0-1.24 1.01-2.25 2.25-2.25ZM102.2 70.96h.9c1.24 0 2.25 1.01 2.25 2.25v10.33h-5.4V73.21c0-1.24 1.01-2.25 2.25-2.25ZM116.23 70.96h.9c1.24 0 2.25 1.01 2.25 2.25v10.33h-5.4V73.21c0-1.24 1.01-2.25 2.25-2.25ZM130.97 70.96h.9c1.24 0 2.25 1.01 2.25 2.25v10.33h-5.4V73.21c0-1.24 1.01-2.25 2.25-2.25ZM145.7 70.96h.9c1.24 0 2.25 1.01 2.25 2.25v10.33h-5.4V73.21c0-1.24 1.01-2.25 2.25-2.25Z"/><path class="cls-5" d="m66.52 92.35.18.06-25.86 73.08-.18-.06c-2.63-.93-4.02-3.83-3.08-6.46l22.48-63.54c.93-2.63 3.83-4.02 6.46-3.08Z"/><path class="cls-10" d="m76.78 95.98.18.06c2.63.93 4.02 3.83 3.08 6.46l-22.48 63.54c-.93 2.63-3.83 4.02-6.46 3.08l-.18-.06 25.86-73.08Z"/><path class="cls-8" transform="rotate(-70.52 58.806 130.74)" d="M20.05 125.4h77.52v10.69H20.05z"/><path class="cls-10" d="M50.53 151.63h.9c1.24 0 2.25 1.01 2.25 2.25v10.33h-5.4v-10.33c0-1.24 1.01-2.25 2.25-2.25Z" transform="rotate(-70.52 50.97 157.922)"/><path class="cls-10" d="M55.13 138.61h.9c1.24 0 2.25 1.01 2.25 2.25v10.33h-5.4v-10.33c0-1.24 1.01-2.25 2.25-2.25Z" transform="rotate(-70.52 55.575 144.896)"/><path class="cls-10" d="M59.81 125.38h.9c1.24 0 2.25 1.01 2.25 2.25v10.33h-5.4v-10.33c0-1.24 1.01-2.25 2.25-2.25Z" transform="rotate(-70.52 60.258 131.67)"/><path class="cls-10" d="M64.73 111.49h.9c1.24 0 2.25 1.01 2.25 2.25v10.33h-5.4v-10.33c0-1.24 1.01-2.25 2.25-2.25Z" transform="rotate(-70.52 65.169 117.778)"/><path class="cls-10" d="M69.64 97.6h.9c1.24 0 2.25 1.01 2.25 2.25v10.33h-5.4V99.85c0-1.24 1.01-2.25 2.25-2.25Z" transform="rotate(-70.52 70.086 103.891)"/></g></svg>