<svg version="1.1" id="Layer_2_00000077291133592275594890000017475059421341980064_" xmlns="http://www.w3.org/2000/svg" x="0" y="0" viewBox="0 0 215.8 255.9" style="enable-background:new 0 0 215.8 255.9" xml:space="preserve"><style>.st0{fill:#a3a9b6}.st1{fill:#73eda7}.st3{fill:#bfc2cc}.st4{fill:#afb3bf}.st6{fill:#65e99b}</style><path class="st0" d="M200 78c-3.5-21.9-15.3-42.2-32-56.2-13.9-11.7-30.6-19-50.1-21.7L98.4 0c-7.9 1.3-15.5 3.2-22.9 5.7-1 .4-2.1.8-3.2 1.2-1.2.4-2.2.8-3.1 1.2-37.3 17.5-59 55.4-54 96.5 1.6 13.3 5.9 25.7 12.8 37.1 1.6 2.7 3.7 5.7 6.2 9 5.3 6.8 11.3 12.6 18 17.5 7 5.3 14.5 9.3 22.4 12.2 9.9 3.7 20.1 5.7 30.5 6 15.5.4 29.9-2.7 43.2-9.2 4.6-2.2 9.6-5.3 15.2-9.2 6.7-5.1 12.7-10.9 17.9-17.4 3.1-4.1 5.2-7.2 6.4-9.3 11.7-19.8 15.7-41 12.2-63.3zM87.2 156.5c-3.9-1.3-7.6-3-11.2-4.9-2.8-1.6-5.6-3.3-8.2-5.2 2.6 1.9 5.4 3.7 8.2 5.2 3.5 1.9 7.3 3.6 11.2 4.9 3.1 1.1 6.3 2 9.7 2.6 4.8.5 9.6.8 14.4.7-4.8.1-9.6-.2-14.4-.7-3.4-.7-6.6-1.5-9.7-2.6zm24.9-132.2c-.7.7-1.6 1.5-2.7 2.4h.3-.3l-7.3.5c-.6.6-1.2 1.2-1.9 1.7.6-.6 1.3-1.1 1.9-1.7l7.3-.4c1-1 1.9-1.8 2.7-2.5zm11.3 34c-.7.4-1.3.9-1.8 1.5.5-.5 1.1-1 1.8-1.5.6-.4 1.4-.7 2.4-.9-1 .3-1.8.6-2.4.9zm2.6-.9c.5-.1.9-.1 1.5-.2-.5.1-1 .1-1.5.2zm3.5-.2h3.3-3.3zm17.8-2.6zm-6.2 2.5c.9 0 1.7-.1 2.5-.3-.8.1-1.6.2-2.5.3zM110 45.2c-.4-.2-.9-.4-1.4-.5.6.1 1 .3 1.4.5zM97.7 33c-.1.5-.1.9-.1 1.4 0-.5 0-.9.1-1.4zm-4.5 45.4h-6.7 6.7zM68 92.9c-1.1-.8-2.1-1.5-3.1-2.2.9.7 2 1.4 3.1 2.2zm16.9 12.8c.1-.2 0-.5-.2-.7.2.2.3.5.2.7zm-9.5 29.1-.3 1.2.3-1.2zm-.4 1.7c-.1.4-.1.7-.1 1.1 0-.4 0-.7.1-1.1zm5.5 5.2c-.2.1-.5.1-.7.2.2-.1.4-.1.7-.2zm25.9-18.7c.2-.2.4-.4.6-.5l.6-.3c.1 0 .2 0 .2-.1-.1 0-.2 0-.2.1l-.6.3c-.2.2-.4.3-.6.5l-25.2 18.3c8.3-6 16.7-12.1 25.2-18.3zm36.8-8.6c-3.2 0-6.3 0-9.5-.1 3.2.1 6.3.1 9.5.1zm-20.9-36c-.2 0-.4-.1-.5-.3.2.2.3.3.5.3h32.4-32.4zM52.9 39.8c.6 1.2 1.5 2.2 2.7 3 .9.6 1.9 1 3 1.4-1.1-.3-2.1-.8-3-1.4-1.2-.8-2.1-1.8-2.7-3zM58.4 86c1 .7 2.3 1.7 3.9 2.9-1.6-1.3-2.9-2.2-3.9-2.9-.2-.2-.5-.4-.6-.6.1.2.3.4.6.6zm66.3 81.2c-.2-.6-.4-1.2-.6-1.7.2.6.4 1.2.6 1.7zm-3-4.7c-.5-.5-1.1-.9-1.7-1.2.7.4 1.2.8 1.7 1.2zm-3.3-2.1c-.7-.3-1.5-.6-2.3-.8.8.3 1.6.5 2.3.8zm-2.2-17c-2.7 0-4.8.2-6.2.6 1.4-.4 3.5-.6 6.2-.6 9.7 0 19.4 0 29 .1 1.7 0 3.2-.2 4.4-.7.7-.3 1.3-.6 1.8-1.1 1.1-1 1.8-2.2 2.1-3.5.2-.6.2-1.3.2-2 0 .7 0 1.3-.2 2-.3 1.3-1 2.5-2.1 3.5-.5.5-1.1.8-1.8 1.1-1.2.5-2.6.7-4.4.7-9.7-.1-19.3-.1-29-.1zm21.2-42.9-6.3 4.5 6.3-4.5c3.1-2.3 6.2-4.5 9.2-6.7-3 2.2-6.1 4.4-9.2 6.7zm19.8-51.9zm-21.1-15.7c3.7 1.7 7.2 3.7 10.5 6.1-3.3-2.4-6.8-4.4-10.5-6.1zm-16-5c.5.1.9.2 1.4.3-.5-.1-1-.2-1.4-.3zm6.7 1.6c1.9.6 3.8 1.2 5.6 1.9-1.8-.8-3.7-1.4-5.6-1.9zm-48-23c-.6-.1-1.3-.3-2-.4.7.2 1.4.3 2 .4zM62.1 27.1c4.3-.1 8.3-.1 12.1-.1-3.8 0-7.8 0-12.1.1-.7 0-1.3.1-1.9.1.5 0 1.2-.1 1.9-.1zm-6.5 1.6c-.8.5-1.5 1.1-2 1.8.5-.7 1.2-1.3 2-1.8zm-13 78.2c-.9-4.3-1.3-8.8-1.3-13.5 0 4.7.4 9.2 1.3 13.5.4 2.2 1 4.3 1.6 6.4-.6-2.1-1.2-4.2-1.6-6.4zm3.9 12.6c1.7 4 3.9 7.9 6.5 11.6-2.6-3.8-4.7-7.6-6.5-11.6zm15.6 22.2c-2.6-2.5-4.9-5.2-7-7.9 2.1 2.7 4.4 5.3 7 7.9zm-4.2 7.8c0-.4 0-.8.1-1.3.2-1.6.9-3.2 2-4.6-1.1 1.4-1.8 2.9-2 4.6 0 .5-.1.9-.1 1.3zm54.2 30.1c-4.9.1-9.9.1-14.8.1 4.9 0 9.9-.1 14.8-.1 1.9 0 3.8-.2 5.5-.8-1.7.5-3.6.8-5.5.8zm6.4-1.1c.6-.2 1.1-.5 1.6-.7-.5.3-1.1.5-1.6.7zm6.3-7.7c.1-.4.1-.8.1-1.1 0 .4 0 .7-.1 1.1z"/><path class="st1" d="m215.8 215.4-34.3-64.7c-5.3 6.5-11.2 12.3-17.9 17.4.3.2.6.3.9.5-.3-.2-.6-.3-.9-.5-5.5 3.9-10.6 7-15.2 9.2-13.3 6.5-27.8 9.6-43.2 9.2.4 3.1 1.3 5.7 2.6 7.8l32.7 61.5s.1 0 .3.1l15.6-28.4c-.7-.8-1.3-1.6-1.7-2.4.4.8 1 1.6 1.7 2.4l8.7-15.9c.2-.3.4-.4.8-.4l49.6 4.6h.2c.1-.1.1-.3.1-.4zM167 170.7zm-5.9 33c.7.7 1.3 1.5 1.6 2.4-.4-.9-.9-1.8-1.6-2.4-1-.9-2.2-1.5-3.8-1.6 1.5.1 2.8.7 3.8 1.6zm-21.2 3.7c-3.3-2.7-4.2-6.5-2-9.5-2.2 3-1.3 6.8 2 9.5.1.1.2.2.4.2-.1 0-.3-.1-.4-.2zm7.1-1.6c-.9.6-3 1.2-6.3 1.9h-.4.4c3.3-.7 5.4-1.4 6.3-1.9 1.5-.9 2.8-1.6 4.1-2.2-1.2.6-2.6 1.3-4.1 2.2zm7.7-3.4c-.8.2-1.7.5-2.5.8.8-.4 1.7-.6 2.5-.8zm-.1 16.9c-.2.4-.3.8-.5 1.2.1-.4.3-.8.5-1.2zm-.6 1.7c-.2 1-.1 1.9.2 2.9-.3-.9-.4-1.9-.2-2.9zm3.5-5zm3.4-2.9.2-.2c-.1.1-.1.2-.2.2zm1.9-3.2c.2-.6.3-1.3.3-1.9-.1.7-.2 1.3-.3 1.9zM181.5 150.7zM140.5 255.9l-.1-.1c.1 0 .1 0 .1.1z"/><path class="st1" d="M74.6 180.5c-7.9-2.9-15.4-7-22.4-12.2-6.7-4.9-12.7-10.7-18-17.5L0 215.3v.2c0 .2.2.3.4.3l49.5-4.6c.3 0 .6.1.7.4l8.7 15.9 15.1 27.4.3.3c.3.2.7 0 .9-.3l32.2-60.6c-1.3-2.1-2.2-4.7-2.6-7.8-10.5-.3-20.7-2.3-30.6-6zm-10.4 9.4c-.9-.5-1.7-.9-2.7-1.4 1 .4 1.9.9 2.7 1.4zm1.5 14.2c-.5-.3-1.1-.5-1.6-.7-.8-.3-1.7-.6-2.5-.9.9.2 1.7.5 2.5.9.5.2 1.1.5 1.6.7.8.4 1.6.8 2.3 1.2-.7-.4-1.5-.8-2.3-1.2zm3 1.5c.5.2.9.4 1.4.6-.4-.2-.9-.4-1.4-.6z"/><g id="Layer_1-2"><path class="st0" d="M117.9.1c19.4 2.7 36.2 10 50.1 21.7 16.7 14 28.5 34.4 31.9 56.2 3.5 22.3-.5 43.4-12.1 63.4-1.2 2.1-3.4 5.2-6.4 9.3-5.3 6.5-11.2 12.4-17.9 17.4-5.5 3.9-10.6 7-15.2 9.2-13.4 6.5-27.8 9.6-43.2 9.2-10.5-.4-20.7-2.4-30.5-6 2.6-.6 5.2-.9 7.8-.9 9.9.1 19.8.1 29.7-.1 5-.1 10.1-1.6 12.1-6.4 2.5-6.3-1.6-12-8.1-13.5l1.6-1c3.4-.1 6.8-.8 10.1-1.8 29.3-9.4 49.3-38 46.4-68.8-1.3-14.1-6.1-26.3-14.5-36.5-12.6-15.5-29.4-23.8-50.3-24.8 2.8-2.2 4.5-4.1 5.1-5.7 3.1-8.6-2.9-14.1-11.1-14.1-8.6 0-15.9 0-21.8-.1-1.6 0-3.7-.4-6.1-1.1 7.3-2.5 15-4.4 22.9-5.7l19.5.1z"/><path d="M75.5 5.7c2.4.7 4.5 1.1 6.1 1.1 5.9 0 13.1.1 21.8.1 8.3 0 14.3 5.5 11.1 14.1-.6 1.6-2.3 3.5-5.1 5.7l-7.3.5-7.4.4c-7.9-.6-18.8-.7-32.7-.5-5.4.1-8.6 2.1-9.6 6-1.9 7.2 2.9 11.3 9.7 11.7-14 13.6-20.9 29.8-20.8 48.6.1 18.7 7 34.7 20.8 48.3-3.2 2.6-4.5 5.6-4.1 9.2.9 7.2 6.6 8.5 13 8.6 10.5.2 19.1.1 25.8-.4 6.4.7 12.8.9 19.3.5 6.5 1.5 10.7 7.2 8.1 13.5-1.9 4.8-7.1 6.4-12.1 6.4-9.9.1-19.8.1-29.7.1-2.6 0-5.2.3-7.8.9-7.9-2.9-15.4-7-22.4-12.2-6.7-4.9-12.7-10.7-18-17.5-2.5-3.3-4.5-6.3-6.1-9-6.9-11.4-11.2-23.8-12.8-37.1-5-41.1 16.7-79 53.9-96.5.9-.4 1.9-.8 3.1-1.2 1.1-.5 2.2-.9 3.2-1.3z" style="fill:#99a0ad"/><path class="st3" d="M109.4 26.6c20.9 1 37.6 9.3 50.3 24.8 8.4 10.2 13.2 22.4 14.5 36.5 2.9 30.9-17.1 59.4-46.4 68.9-3.3 1.1-6.7 1.7-10.1 1.8-2.1 0-4.1-.1-6.1-.4-4.3-.5-7-3.7-6.7-8.1.3-2.9 1.8-4.9 4.5-6 1.4-.5 3.6-.8 6.7-.8 9.7 0 19.4 0 29 .1 2.8 0 4.9-.6 6.2-1.8 4.3-3.9 2.2-11.8-4.2-12-2.8-.1-5.7-.1-8.5-.1l-4.9-15.2c3.2.1 6.4.1 9.5.1 2.6 0 4.5-.3 5.7-.8 4.5-1.9 5-9.3.9-11.7-1.1-.6-3.1-1-6.1-1-2.1-.1-4.2-.2-6.3-.5 6.2-4.5 12.3-9 18.2-13.3 2.6-1.9 4.3-4.1 2.1-7.1-.7-1-1.7-1.5-3-1.6.1-4-2.3-6-7.1-6-6.3 0-12.6-.1-18.9-.1-1.8 0-3-.2-3.8-.5-5.8-2.3-7.1-10.1-1.6-13.5 1.3-.8 3.4-1.2 6.2-1.2 4.6 0 8.5 0 11.6-.1 3.6-.1 6-1.6 7.4-4.4 1.6-3.4.6-8-3.1-9.7-1.5-.7-2.7-1.1-3.5-1.1h-33.3c-3.2 0-5.4-.3-6.6-.8-3.3-1.4-5.1-5.1-4.2-8.8.6-2.4 2.7-3.6 4.2-5.2l7.4-.4z"/><path class="st0" d="M94.7 27.5c-13 3.5-23.8 9.2-32.6 17.3-6.7-.4-11.6-4.5-9.7-11.7 1-3.9 4.2-5.9 9.6-6 13.9-.2 24.8-.1 32.7.4z"/><path class="st4" d="M102 27.1c-1.5 1.6-3.6 2.8-4.2 5.2-.9 3.7.8 7.4 4.2 8.8 1.2.5 3.4.8 6.6.8h33.3c.8 0 2 .4 3.5 1.1 3.7 1.7 4.7 6.3 3.1 9.7-1.3 2.8-3.8 4.3-7.4 4.4-3.1.1-7 .1-11.6.1-2.8 0-4.9.4-6.2 1.2-5.6 3.4-4.3 11.2 1.6 13.5.8.3 2.1.5 3.8.5 6.3 0 12.6 0 18.9.1 4.8 0 7.1 2 7.1 6h-32.4c-.2 0-.4-.1-.5-.3-6.6-20.2-9.9-30.4-9.9-30.5-.9-2.3-2.6-3.2-5.1-2.9-1.6.2-2.8 1.5-3.4 3.6-1 3.3-4.2 13.2-9.6 29.5-.1.3-.4.5-.7.5-18.9 0-29.5 0-31.7.1-2.7.1-4.1 1.4-4.3 3.9-.1 1.6.3 2.8 1.3 3.5 4 2.9 12.8 9.3 26.3 19.1.2.2.3.4.2.7-3.3 10.3-6.5 20-9.4 29-1 3.2-.8 5.7 2.6 6.8 1.3.4 2.3.3 3.1-.2l25.2-18.3c2.1 5.1 6 7.2 11.8 6.4 4.9 3.6 9.8 7.1 14.7 10.7 2.6 1.9 4.8 2.7 7.1.1.9-1 1.2-2 1-3-.2-1.1-1-3.7-2.4-7.6 2.9 0 5.7.1 8.5.1 6.5.2 8.6 8.1 4.2 12-1.3 1.2-3.4 1.8-6.2 1.8-9.6 0-19.3-.1-29-.1-3.1 0-5.4.3-6.7.8-2.8 1.1-4.2 3.1-4.5 6-.4 4.3 2.3 7.6 6.7 8.1 2 .2 4 .4 6.1.4l-1.6 1c-6.4.4-12.9.2-19.3-.5-13.3-2.8-24.9-8.6-34.7-17.4-13.8-13.7-20.8-29.8-20.8-48.4-.1-18.8 6.9-35 20.8-48.6 8.8-8.1 19.6-13.8 32.6-17.3l7.3-.4z"/><path d="M154.8 78.4c1.3.1 2.3.7 3 1.6 2.2 3 .5 5.2-2.1 7.1-6 4.3-12 8.8-18.2 13.3l-6.3 4.5c-.3.2-.4.5-.3.8l2.8 8.5 4.9 15.2c1.4 3.9 2.1 6.4 2.4 7.6.2 1-.1 2-1 3-2.3 2.6-4.5 1.8-7.1-.1-4.9-3.6-9.8-7.1-14.7-10.7l-9.7-7c-.3-.2-.6-.3-.9-.2-.4.1-.8.4-1.2.8l-25.2 18.3c-.8.6-1.9.7-3.1.2-3.4-1.1-3.6-3.6-2.6-6.8 2.9-9.1 6.1-18.8 9.4-29.1.1-.2 0-.5-.2-.7-13.5-9.8-22.2-16.2-26.3-19.1-1-.7-1.4-1.9-1.3-3.5.2-2.5 1.7-3.8 4.3-3.9 2.2-.1 12.8-.1 31.7-.1.3 0 .6-.2.7-.5 5.4-16.3 8.6-26.2 9.6-29.5.7-2.2 1.8-3.4 3.4-3.6 2.5-.4 4.2.6 5.1 2.9 0 .1 3.3 10.2 9.9 30.5.1.2.2.3.5.3l32.5.2z" style="fill:#7a8391"/><path class="st4" d="M137.4 100.5c2.1.3 4.2.4 6.3.5 3 .1 5 .4 6.1 1 4.1 2.3 3.6 9.7-.9 11.7-1.1.5-3 .7-5.7.8-3.2 0-6.3 0-9.5-.1l-2.8-8.5c-.1-.3 0-.6.3-.8l6.2-4.6z"/><path class="st3" d="M118.2 129.4c-5.8.9-9.7-1.3-11.8-6.4.4-.4.8-.7 1.2-.8.3-.1.6-.1.9.2l9.7 7z"/><path class="st0" d="M96.8 159.1c-6.7.5-15.3.6-25.8.4-6.4-.1-12.1-1.4-13-8.6-.4-3.5.9-6.6 4.1-9.2 9.8 8.9 21.4 14.7 34.7 17.4z"/><path class="st6" d="M52.2 168.3c-5.5 3.5-7 7.2-4.5 11 1.2 1.7 3.7 3.7 7.7 5.8 8.8 4.8 15 8.1 18.4 9.9 2.4 1.2 4 2.7 4.7 4.4 2.1 5.3-2.9 8.5-7.8 7-3.3-1.1-8.1-4.8-12.7-4.2-5.5.8-6.9 7.1-3.2 10.8 1.8 1.7 4.2 3.3 5.5 5.1 2.2 3.1 1.9 6.2-1 9.4l-8.7-15.9c-.2-.3-.4-.4-.7-.4L.4 215.8c-.2 0-.4-.1-.4-.3v-.2l34.2-64.5c5.3 6.8 11.3 12.6 18 17.5z"/><path class="st1" d="m181.5 150.7 34.3 64.7c.1.2 0 .4-.1.4h-.2l-49.6-4.6c-.3 0-.6.1-.8.4l-8.7 15.9c-2.9-3.2-3.3-6.3-1.1-9.3 1.4-2 4.2-3.4 5.7-5 4.7-5.1.9-12.5-6.1-10.8-2.3.5-4.9 1.7-7.8 3.5-.9.6-3 1.2-6.3 1.9-.3.1-.6 0-.8-.2-4.2-3.4-4.6-8.7.5-11.6 4.1-2.4 11.2-6.2 21.2-11.4 5-2.6 9.5-6.3 6.5-12.2-.7-1.3-2.2-2.6-4.6-4 6.7-5.3 12.6-11.1 17.9-17.7z"/><path class="st6" d="M163.6 168.2c2.4 1.4 3.9 2.7 4.6 4 3 5.9-1.5 9.6-6.5 12.2-10.1 5.3-17.2 9.1-21.2 11.4-5.1 2.9-4.7 8.2-.5 11.6.2.2.5.3.8.2 3.3-.7 5.4-1.3 6.3-1.9 2.9-1.8 5.5-2.9 7.8-3.5 7-1.6 10.8 5.8 6.1 10.8-1.4 1.6-4.3 3-5.7 5-2.1 3.1-1.8 6.2 1.1 9.3l-15.6 28.4c-.3-.2-.4-.2-.3 0l-32.7-61.6c-1.3-2.1-2.2-4.7-2.6-7.8 15.4.4 29.9-2.6 43.2-9.2 4.6-2 9.6-5 15.2-8.9z"/><path class="st1" d="M74.6 180.5c9.9 3.7 20.1 5.7 30.5 6 .4 3.1 1.3 5.7 2.6 7.8l-32.2 60.6c-.2.3-.6.4-.9.3-.1-.1-.2-.1-.3-.3l-15.1-27.4c2.9-3.2 3.2-6.3 1-9.4-1.3-1.8-3.7-3.4-5.5-5.1-3.7-3.6-2.3-10 3.2-10.8 4.6-.6 9.4 3.1 12.7 4.2 4.9 1.5 9.9-1.7 7.8-7-.7-1.7-2.2-3.2-4.7-4.4-3.4-1.8-9.6-5.1-18.4-9.9-3.9-2.1-6.5-4.1-7.7-5.8-2.5-3.8-1.1-7.5 4.5-11 7.2 5.2 14.6 9.3 22.5 12.2z"/></g></svg>