<svg version="1.1" id="Layer_1" xmlns="http://www.w3.org/2000/svg" x="0" y="0" viewBox="0 0 800 800" style="enable-background:new 0 0 800 800" xml:space="preserve"><style>.st0{fill:#17d873}.st2{fill:#179cd8}</style><path class="st0" d="M456.3 201.5c0 73.2-41 137-101.5 170.3-28.5 15.7-61.3 24.6-96.2 24.6s-67.7-8.9-96.2-24.6c-16.1-8.8-30.7-19.8-43.6-32.5-35.8-35.3-57.9-84-57.9-137.8C60.8 93.9 149.3 6.7 258.5 6.7s197.8 87.2 197.8 194.8z"/><path class="st0" d="M505.7 506.5v182H11.4v-182c0-74.4 60.3-134.8 134.8-134.8h224.7c74.4.1 134.8 60.4 134.8 134.8z"/><path d="M505.7 506.5v182H258.5V6.7c109.2 0 197.7 87.2 197.7 194.8 0 73.2-41 137-101.5 170.3h16.2c74.4 0 134.8 60.3 134.8 134.7z" style="fill:#1fca71"/><path class="st2" d="M738.7 312c0 73.2-41 137-101.5 170.3-28.5 15.7-61.3 24.6-96.2 24.6-34.9 0-67.7-8.9-96.2-24.6-16.1-8.8-30.7-19.8-43.6-32.5-35.8-35.3-57.9-84-57.9-137.8 0-107.6 88.5-194.8 197.7-194.8S738.7 204.4 738.7 312z"/><path class="st2" d="M788.1 617v182H293.8V617c0-74.4 60.3-134.8 134.8-134.8h224.7c74.5.1 134.8 60.4 134.8 134.8z"/><path d="M788.1 617v182H541V117.2c109.2 0 197.7 87.2 197.7 194.8 0 73.2-41 137-101.5 170.3h16.2c74.4 0 134.7 60.3 134.7 134.7z" style="fill:#1892ca"/></svg>