<svg id="Layer_2" data-name="Layer 2" xmlns="http://www.w3.org/2000/svg" viewBox="0 0 197.44 244.38"><defs><style>.cls-1{fill:#405c9f}.cls-1,.cls-2,.cls-3,.cls-5,.cls-6,.cls-9{stroke-width:0}.cls-2{fill:#bdc3c7}.cls-3{fill:#785a3c}.cls-5{fill:#69154c}.cls-6{fill:#e24498}.cls-9{fill:#4665b0}</style></defs><g id="Layer_5" data-name="Layer 5"><path style="fill:#9c7450;stroke-width:0" d="m192.18 38.76-3.63 18.5-9.8 50.02-4.8 24.49-12.92 65.92-1.02.76-12.26 9.02-35.2 25.96-12.25 9.03-2.6 1.92-43.11-34.16-12.25-9.7-2.76-2.2-13.41-67.62-4.78-24.09-9.78-49.35-3.65-18.4 184.22-.1z"/><path class="cls-3" d="m192.18 38.76-3.63 18.5H11.61l-3.65-18.4 184.22-.1zM54.59 210.22v-32.94c0-3.39-2.74-6.12-6.12-6.12s-6.13 2.73-6.13 6.12v23.23l12.25 9.71ZM160.01 186.19v12.25l-12.25 9.02v-21.28c0-3.38 2.74-6.12 6.12-6.12s6.13 2.74 6.13 6.12Z"/><path class="cls-3" d="M178.75 53.53v53.75l-4.8 24.48c-.42.09-.87.15-1.32.15-3.39 0-6.12-2.74-6.12-6.12V53.53c0-3.39 2.73-6.12 6.12-6.12s6.12 2.73 6.12 6.12ZM33.63 52.48v72.26c0 1.69-.69 3.22-1.79 4.33s-2.64 1.79-4.33 1.79c-.46 0-.91-.05-1.34-.16l-4.78-24.09V52.48c0-3.39 2.73-6.12 6.12-6.12s6.12 2.73 6.12 6.12ZM112.55 195.79v37.65l-12.24 9.02v-46.67a6.12 6.12 0 1 1 12.24 0Z"/><path class="cls-5" d="m47.42 105.38 7.6 8.24-12.18-1.48c-10.72-6.78-19.87-15.43-27.45-25.97C9.04 77.35 4.02 68.08.35 58.35c-.87-2.32-.13-3.98 2.24-4.98.03 0 .08-.02.15-.05 2.43-.85 4.09-.12 5 2.21 4.95 12.71 11.89 24.16 20.82 34.35 5.36 6.12 11.65 11.29 18.86 15.5ZM154.79 112.08l-12.53 1.54 7.88-8.26c7.28-4.32 13.66-9.62 19.12-15.89 8.65-9.94 15.48-21.27 20.47-33.98.92-2.36 2.59-3.08 4.99-2.17.03 0 .08.03.15.06 2.34 1.03 3.07 2.69 2.2 4.97-8.34 21.81-22.49 41.08-42.29 53.74Z"/><path d="M129.6 64.48c.42 10.39-.72 21.17-3.4 32.34-2.26 9.41-6.5 17.88-12.74 25.42-3.06 1.46-6.31 3.14-9.75 5.04-.42.23-.73.24-.93.03l.05-5.77-.22-2.02c.92-.5 1.47-.88 1.66-1.15 4.64-6.73 7.95-14.22 9.95-22.49 2.6-10.79 3.55-21.94 2.83-33.43-.15-2.41-.49-4.85-1.03-7.35-.7-3.25-1.35-5.64-1.94-7.18-5.65-14.67-12.95-28.65-21.9-41.94.46-1.65 1.17-2.95 2.13-3.88C96.34.09 98.45-.48 100.63.37c1.37.54 2.69 1.9 3.95 4.08 5.02 8.69 9.48 16.95 13.4 24.79 3.64 7.3 6.5 13.85 8.57 19.66a49.54 49.54 0 0 1 2.84 15.14c0 .1.04.12.12.06.34-.26.38-.14.09.36Z" style="fill:#79b43c;stroke-width:0"/><path d="M92.18 6c8.95 13.29 16.25 27.27 21.9 41.94.59 1.53 1.24 3.93 1.94 7.18.54 2.49.89 4.94 1.03 7.35.72 11.5-.23 22.64-2.83 33.43-2 8.27-5.32 15.76-9.95 22.49-.18.27-.74.65-1.66 1.15l-.2-12.39c2.15-3.5 3.51-6.06 4.09-7.7 3.43-9.7 5.1-20.05 5.03-31.05-.03-4.71-.47-8.42-1.33-11.14-2.27-7.16-5.62-14.82-10.05-22.99a1.695 1.695 0 0 0-2.29-.68c-.29.16-.53.4-.68.69-2.57 4.86-5.1 10.27-7.6 16.21-1.86 4.43-2.96 8.26-3.27 11.49-.88 9.03-.35 18.16 1.58 27.39 1.39 6.63 3.73 12.52 7.03 17.68l-.11 19.6-.17 1.31-10.17-5.39c-3.28-3.79-5.7-7.17-7.25-10.13-4.25-8.09-6.97-17.04-8.15-26.84-1.02-8.48-1.36-15.51-1.03-21.09.35-6.98 1.85-13.57 4.49-19.77 5.65-13.3 12.19-26.21 19.63-38.73Z" style="fill:#84c441;stroke-width:0"/><path class="cls-5" d="m102.42 107.14-2.21 2.32c-1.02 1.07-2.03 1.06-3.03-.02l-2.24-2.41c-3.3-5.16-5.64-11.05-7.03-17.68-1.93-9.23-2.46-18.36-1.58-27.39.32-3.23 1.41-7.06 3.27-11.49 2.5-5.95 5.03-11.35 7.6-16.21a1.67 1.67 0 0 1 2.27-.69c.29.16.53.39.69.68 4.43 8.16 7.77 15.82 10.05 22.99.86 2.72 1.3 6.44 1.33 11.14.07 11-1.61 21.35-5.03 31.05-.58 1.64-1.95 4.21-4.09 7.7Z"/><path class="cls-1" d="M68.07 64.49c-.33 5.58.01 12.61 1.03 21.09 1.18 9.8 3.9 18.75 8.15 26.84 1.55 2.96 3.97 6.34 7.25 10.13l-16.62-5.98c-5.82-9.97-9.37-20.91-10.66-32.82-.65-5.99-1-10.89-1.06-14.71-.04-3.25-.64-5.38-2.29-7.84-5.05-7.61-10.62-13.42-16.72-17.41-1.04-.69-2.38-1.16-4.02-1.4a.867.867 0 0 0-.98.73v.14l.04 6.24c-.11-2.44-.15-4.89-.13-7.33.03-2.66.47-4.49 1.34-5.49 2.27-2.61 5.2-2.47 8.18-.7 5.49 3.26 10.35 7.38 14.57 12.34 4.22 4.95 8.19 10.35 11.92 16.2ZM150.14 105.36l-7.88 8.26-11.03 2.49c-.32.06-.57.07-.77.03-.42-.09-.51-.31-.27-.66 7.75-11.64 13.37-24.27 16.86-37.91 2.66-10.36 4.71-21.33 4.41-31.41-.06-2.29-1.2-3.82-3.4-4.59 2.47-2.17 8.94-7.42 12.33-6.91 5.12.76 5.03 5.27 5.06 9.39.06 11.66-1.12 22.92-3.55 33.77-2.17 9.75-6.09 18.93-11.76 27.53Z"/><path class="cls-9" d="M148.06 41.57c2.2.77 3.33 2.3 3.4 4.59.3 10.08-1.75 21.04-4.41 31.41-3.5 13.64-9.12 26.27-16.86 37.91-.23.35-.14.57.27.66.2.04.45.03.77-.03l-17.76 6.13c6.23-7.54 10.48-16.02 12.74-25.42 2.68-11.17 3.81-21.94 3.4-32.34 5.36-8.91 11.51-16.55 18.46-22.91ZM67.88 116.57l-12.85-2.94-7.6-8.24c-4.76-7.2-8.24-14.75-10.42-22.63a132.867 132.867 0 0 1-4.82-33.28l-.04-6.24c0-.48.38-.87.86-.87h.14c1.64.25 2.98.71 4.02 1.4 6.09 4 11.67 9.8 16.72 17.41 1.65 2.46 2.25 4.59 2.29 7.84.06 3.82.41 8.72 1.06 14.71 1.29 11.91 4.84 22.85 10.66 32.82Z"/><path d="m35.65 97.46 53.49 16.84c2.38.75 3.96-.06 4.74-2.43 1.36-4.14 2.13-6.45 2.32-6.95.36-.97 1.02-1.61 1.97-1.93 2.08-.69 3.53.03 4.34 2.16.21.57 1.04 2.99 2.47 7.26a3.229 3.229 0 0 0 4.02 2.05l54-17.01c2.25-.97 4.3-1.13 6.13-.49 1.3.46 2.71 1.71 4.21 3.77 9.44 12.92 15.45 27.35 18 43.28.32 2.02.29 3.58-.11 4.68-1.37 3.77-5 4.46-9.29 5.14-3.64.57-8.95 2.1-15.95 4.58a99.682 99.682 0 0 0-28.1 15.16c-.22.17-.29.48-.16.73 6.99 13.18 11.95 26.88 14.85 41.12.89 3.98 1.41 6.88 1.58 8.68.36 4.07-1.42 6.64-5.34 7.71h-2.29l-8.5-2.18c-.61-.26-1.51-.39-2.7-.41-.74-11.6-2.85-22.92-6.34-33.97-.85-2.68-2.02-5.41-3.52-8.18-.95-1.74-2.35-2.18-4.23-1.33-.02.01-.06.03-.11.06-1.81.99-2.3 2.39-1.47 4.18 5.27 11.31 7.72 23.93 8.64 36.28.03.46-.16.87-.59 1.24-7.8-1.29-15.93-2.08-24.37-2.37-.18.14-.37-.11-.56-.76a3.43 3.43 0 0 1-.14-.92c.03-13.64.01-25.26-.05-34.86-.01-2.08-1.08-3.14-3.21-3.17h-.14c-2.14.04-3.21 1.13-3.21 3.25 0 12.02 0 23.77-.03 35.26 0 .67-.15 1.1-.44 1.29-8.36.14-16.72.94-25.11 2.41-.14-.56-.19-1-.17-1.31.72-9.68 2.51-19.08 5.38-28.21.56-1.78 1.69-4.56 3.4-8.34.79-1.75.29-3.12-1.5-4.09-.04-.02-.07-.03-.11-.05-1.9-.81-3.32-.37-4.26 1.33-1.3 2.36-2.37 4.77-3.21 7.24-2.67 7.85-4.52 15.89-5.54 24.14-.41 3.32-.8 6.65-1.16 9.97-.05.5-.29.79-.73.86l-1.99.47c-2.87.73-5.72 1.47-8.55 2.22-.94.25-2.13.04-3.56-.63-3.21-1.49-4.52-4.06-3.92-7.69.47-2.88.98-5.71 1.53-8.51 3.09-14.36 8.03-27.94 14.82-40.74.14-.27.09-.49-.15-.68-8.64-6.62-17.97-11.66-27.99-15.13-5.81-2.12-11.75-3.79-17.8-5.02-2.76-.56-4.57-1.17-5.45-1.85-2.54-1.97-2.68-4.69-2.16-7.9 2.56-15.73 8.51-30 17.85-42.81 1.54-2.11 2.94-3.4 4.21-3.87 1.85-.69 3.93-.52 6.23.49Z" style="fill:#ecf0f1;stroke-width:0"/><path class="cls-6" d="M75.79 133.6c-4.67 3.76-8.53 8.68-11.58 14.78-1.05 2.09-2.48 3.3-4.79 2.38-9.2-3.69-18.41-7.38-27.62-11.05-3.01-1.2-2.22-3.55-1.56-6.32 1.64-6.96 4.22-13.26 7.73-18.9 1.22-1.96 2.97-1.71 4.97-.95 10.78 4.14 21.56 8.29 32.33 12.44 1.4.54 2.34 1.1 2.81 1.7.83 1.04.82 2.29-.04 3.76-.26.46-1.01 1.18-2.25 2.18ZM122.85 133.62c-1.24-.99-1.99-1.72-2.25-2.18-.86-1.47-.87-2.72-.04-3.76.47-.6 1.41-1.16 2.81-1.7l32.31-12.45c2.01-.77 3.76-1.01 4.97.95 3.51 5.64 6.08 11.94 7.73 18.9.65 2.77 1.45 5.12-1.56 6.32-9.21 3.67-18.41 7.36-27.6 11.05-2.31.92-3.74-.29-4.79-2.37-3.06-6.1-6.92-11.02-11.58-14.77Z"/><path class="cls-2" d="M99.3 143.18c.87 0 1.59.28 2.17.83 6.96 6.64 11.54 14.77 13.76 24.38.36 1.54.25 2.76-.31 3.64-1.36 2.12-3.55 1.43-5.65.57a430.73 430.73 0 0 0-8.63-3.45c-.45-.17-.89-.26-1.33-.26s-.88.09-1.33.26a573.73 573.73 0 0 0-8.62 3.46c-2.1.86-4.3 1.55-5.65-.56-.56-.89-.67-2.1-.32-3.64 2.21-9.62 6.79-17.75 13.74-24.4.58-.55 1.31-.83 2.18-.83ZM70.46 227.58c-.79 3.3-2.46 4.52-5.02 3.67-.25-.08-.46-.22-.63-.42-.74-.89-1.48-1.46-2.23-1.69.43-.07.67-.36.73-.86.36-3.33.74-6.65 1.16-9.97 1.02-8.25 2.87-16.3 5.54-24.14.84-2.47 1.91-4.88 3.21-7.24.94-1.7 2.36-2.14 4.26-1.33.04.02.07.03.11.05 1.79.97 2.29 2.34 1.5 4.09-1.71 3.78-2.85 6.56-3.4 8.34-2.87 9.13-4.66 18.53-5.38 28.21-.03.31.03.74.17 1.31ZM103.33 225.09c-1.57 2.92-3.47 3.88-5.7 2.89-.54-.24-1.23-1.17-2.06-2.81.29-.19.44-.62.44-1.29.03-11.48.04-23.23.03-35.26 0-2.13 1.07-3.21 3.21-3.25h.14c2.13.03 3.2 1.09 3.21 3.17.06 9.6.07 21.23.05 34.86 0 .3.05.61.14.92.19.65.38.9.56.76ZM135.31 229.19c-1.71 2.58-3.61 3.06-5.68 1.44-.2-.16-.36-.38-.44-.62-.39-1.19-.88-2.04-1.49-2.55.43-.37.62-.79.59-1.24-.92-12.34-3.37-24.97-8.64-36.28-.83-1.79-.35-3.18 1.47-4.18.05-.03.09-.05.11-.06 1.87-.85 3.28-.41 4.23 1.33 1.5 2.77 2.68 5.5 3.52 8.18 3.49 11.05 5.6 22.37 6.34 33.97Z"/></g></svg>