<svg id="Layer_2" data-name="Layer 2" xmlns="http://www.w3.org/2000/svg" viewBox="0 0 225.14 232.91"><defs><style>.cls-1{fill:#ec652a}.cls-1,.cls-2,.cls-3,.cls-5,.cls-6,.cls-7{stroke-width:0}.cls-3{fill:#9b9b9b}.cls-5{fill:#231f20;opacity:.13}.cls-6{fill:#fff}.cls-7{fill:#ffa850}</style></defs><g id="Layer_1-2" data-name="Layer 1"><path class="cls-1" d="M194.97 131.84c-.09 5.07 4.1 9.18 8.4 11.87 4.3 2.69 9.2 4.81 12.24 8.87 3.65 4.87 3.68 12.14.07 17.04-3.62 4.9-10.57 7.02-16.3 4.97-5.52-1.97-10.43-7.38-16.11-5.94-6.66 1.68-7.44 11.24-4.34 17.36 3.11 6.13 8.57 11.19 9.9 17.92 1.24 6.23-1.74 13.09-7.14 16.44-5.4 3.35-12.86 2.98-17.9-.89-5.64-4.33-7.66-11.76-11.37-17.82-2.39-3.91-6.58-7.43-10.83-8.37-2.33-.52-4.69-.26-6.79 1.13-5.12 3.4-4.6 10.29-4.37 17.02.21 6.05.19 11.97-4.36 15.1-2.65 1.82-6.01 1.83-9.06.7-1.99-.73-3.86-1.94-5.31-3.45-3.67-3.83-5.43-9.04-7.42-13.97-1.99-4.92-4.53-9.98-9.08-12.72-7.65-4.61-17.5-.9-25.26 3.52s-16.18 9.71-24.93 7.94c-9.52-1.93-15.76-13.43-12.2-22.46 1.64-4.18 4.96-7.68 5.83-12.09 1.47-7.48-4.69-14.41-11.39-18.06-6.7-3.64-14.42-5.47-20.4-10.21-5.97-4.73-9.44-14.18-4.47-19.95 5.59-6.5 16.86-3.52 23.71-8.67 6.88-5.16 6.01-16.09 1.53-23.43-4.47-7.34-11.55-12.77-16.26-19.95-4.71-7.19-6.34-17.87 0-23.68 5.66-5.2 14.52-3.92 22.01-2.17s16.16 3.4 22.21-1.34c10.88-8.53 3.77-29.97 15.73-36.89 7.04-4.07 15.88.07 22.61 4.64 6.27 4.25 13.32 9.17 20.66 8.25.52-.06 1.05-.15 1.58-.28 6.38-1.55 10.63-7.34 14.76-12.44 4.12-5.1 9.61-10.28 16.15-9.8 6.96.52 11.93 7.64 12.51 14.59.69 8.36-5.14 14.29 1.91 20.46 3.38 2.96 5.66 4.51 7.34 8.86 1.47 3.81 1.83 8.13 5.09 11 3.66 3.23 9.23 2.86 13.93 1.55 4.7-1.3 9.37-3.37 14.23-2.92 4.85.44 9.83 4.78 8.67 9.52-1.21 4.92-7.74 6.62-9.95 11.19-2.06 4.24.45 9.47 4.11 12.45 3.65 2.99 8.26 4.51 12.33 6.91 4.07 2.4 7.86 6.26 7.9 10.99.06 7.25-8.11 11.35-14.98 13.68-6.88 2.32-15.07 6.27-15.19 13.53Z"/><path d="M188.16 113.06c0-40.14-32.52-72.56-72.66-72.56s-72.66 32.52-72.66 72.66 32.52 72.66 72.66 72.66c.68 0 1.36-.06 2.04-.16 39.2-1.08 70.62-33.15 70.62-72.61Z" style="fill:#fecb69;stroke-width:0"/><path class="cls-7" d="M90.97 120.32c-4.96 3.8-10.51 4.64-16.65 2.54-3.42-1.51-5.98-3.78-7.68-6.79-2.89-5.11-2.86-11.52.28-16.56 2.23-3.57 5.41-5.97 9.55-7.18.36-.11.64-.14.86-.11.21.03.41-.01.59-.14.13-.09.32-.15.56-.18 5.69-.73 11.85 2.08 15.21 6.72 1.52 2.09 2.47 4.54 2.85 7.33.75 5.49-1.11 10.28-5.57 14.36ZM159.89 122.89c-6.17 2.08-11.76 1.14-16.76-2.81-3.85-3.57-5.65-7.96-5.4-13.19.13-2.71.94-5.21 2.44-7.49 2.71-4.12 6.38-6.57 11.01-7.36 3.61-.61 7.2.11 10.75 2.17 8.68 5.02 10.58 16.62 4.1 24.2-1.59 1.85-3.63 3.35-6.13 4.48Z"/><path class="cls-2" d="M95.05 106.25c.25 8.07-6.11 14.83-14.21 15.08-8.1.25-14.87-6.08-15.13-14.16-.25-8.07 6.11-14.83 14.21-15.08 8.1-.25 14.87 6.08 15.13 14.16ZM168.16 108.29c-.87 8.03-8.11 13.84-16.17 12.96-8.06-.88-13.88-8.1-13.01-16.13.87-8.03 8.11-13.84 16.17-12.96 8.06.88 13.88 8.1 13.01 16.13Z"/><ellipse class="cls-6" cx="78.48" cy="100.22" rx="4.51" ry="4.58" transform="rotate(-3.9 78.484 100.15)"/><circle class="cls-6" cx="151.69" cy="100.23" r="4.56"/><ellipse class="cls-3" cx="85.04" cy="110.84" rx="2.8" ry="2.74" transform="rotate(-66.1 85.046 110.845)"/><ellipse class="cls-3" cx="157.77" cy="110.82" rx="2.71" ry="2.79" transform="rotate(-3.4 157.742 110.741)"/><path class="cls-2" d="M97.63 132.47c-.14.08-.46.29-.98.62-.86.56-1.84.89-2.92 1.01-.11 0-.2-.07-.21-.17 0-.05 0-.09.04-.13 1.03-1.36 2.42-3.22 4.18-5.57.21-.28.45-.46.72-.53.41-.11.69.03.86.42.23.53.26.98.11 1.34-.14.35-.02.75.3.95 1.58 1.01 3.33 1.81 5.23 2.39 3.86 1.18 8 1.77 12.42 1.78 4.73 0 9.38-.89 13.94-2.7.38-.15.94-.42 1.67-.8.93-.49.92-.78 1.19-1.73.04-.12.1-.24.19-.33.41-.47.89-.45 1.45.06 1.81 1.63 3.36 3.5 4.63 5.59.05.08.02.19-.06.23-.02.01-.05.02-.08.02-1.82.08-2.94-.78-4.4-1.77-.11-.08-.23-.08-.35 0-3.06 1.94-6.58 3.25-10.54 3.95-3.96.69-7.76.92-11.4.68-4.48-.3-8.74-1.37-12.76-3.22-.7-.32-1.67-1.01-2.89-2.06-.1-.08-.21-.09-.33-.03ZM128.04 143.78c-.87 1.49-2.79 2.21-4.44 2.56-4.95 1.07-9.78.74-14.48-.99-.77-.28-1.54-.78-2.33-1.5-.27-.24-.31-.53-.34-.86v-.31c0-.14.08-.23.21-.26.37-.08.75-.17 1.13-.03 3.5 1.28 6.28 1.89 8.36 1.82 2.81-.1 6.41-.43 10.79-.99.26-.03.47-.03.64.02.32.09.47.27.45.54Z"/><path class="cls-1" d="M206.63 32.96c-4.93 4.41-13.61 16.43-19.38 8.31-2.5-3.51-2.49-7.51-5.96-10.49-2.79-2.4-6.77-3.13-8.77-6.49-2.22-3.72-.4-8.78 2.91-11.58 3.3-2.8 7.68-3.89 11.9-4.89 2.42-.58 4.91-1.17 7.39-.87 2.47.29 4.98 1.63 5.95 3.93 1.48 3.49-.85 8.12 1.58 11.02 2 2.38 6.44 2.42 7.28 5.4.6 2.16-1.23 4.17-2.9 5.66ZM93.02 211.42c2.18 2.8 2.88 6.44 3.4 9.94.29 1.96.54 3.97.2 5.92s-1.36 3.88-3.08 4.87c-2.23 1.27-5.02.72-7.45-.1s-4.92-1.87-7.46-1.5c-6.29.93-8.95 4.08-12.1-3.07-1.67-3.79-3.42-8.22-1.31-12.14 4.68-8.71 21.37-12.19 27.8-3.93ZM45.49 34.15c5.45-2.81 9.41-8.33 10.32-14.39.34-2.23.25-4.65-.93-6.57s-3.69-3.15-5.79-2.31c-2.72 1.1-3.28 4.68-3.12 7.61s.44 6.3-1.65 8.36c-1.51 1.49-3.83 1.77-5.95 1.73-3.28-.07-13.69 1.34-8.32 6.55 3.21 3.11 12.17.72 15.45-.97Z"/><path class="cls-5" d="M130.43 211.44c.21 6.05.19 11.97-4.36 15.1-2.65 1.82-6.01 1.83-9.06.7 4.84-4.87 9.34-10.15 13.42-15.8ZM172.52 24.29c-2.22-3.72-.4-8.78 2.91-11.58 3.3-2.8 7.68-3.89 11.9-4.89 2.42-.58 4.91-1.17 7.39-.87 2.47.29 4.98 1.63 5.95 3.93 1.48 3.49-.85 8.12 1.58 11.02 2 2.38 6.44 2.42 7.28 5.4.6 2.16-1.23 4.17-2.9 5.66-4.93 4.41-13.61 16.43-19.38 8.31-2.5-3.51-2.49-7.51-5.96-10.49-2.79-2.4-6.77-3.13-8.77-6.49Z"/><path d="M194.97 131.84c-.09 5.07 4.1 9.18 8.4 11.87 4.3 2.69 9.2 4.81 12.24 8.87 3.65 4.87 3.68 12.14.07 17.04-3.62 4.9-10.57 7.02-16.3 4.97-5.52-1.97-10.43-7.38-16.11-5.94-6.66 1.68-7.44 11.24-4.34 17.36 3.11 6.13 8.57 11.19 9.9 17.92 1.24 6.23-1.74 13.09-7.14 16.44-5.4 3.35-12.86 2.98-17.9-.89-5.64-4.33-7.66-11.76-11.37-17.82-2.39-3.91-6.58-7.43-10.83-8.37 2.55-4.96 4.82-10.12 6.8-15.44 5.95-15.98 9.23-33.45 9.23-51.76 0-3.91-.15-7.78-.45-11.6-.07-1.05-.16-2.1-.27-3.15-.78-8.03-2.2-15.85-4.2-23.41-.02-.12-.05-.24-.1-.36-4.42-16.61-11.64-31.93-21.07-45.3a134.19 134.19 0 0 0-16.95-19.72c.52-.06 1.05-.15 1.58-.28 6.38-1.55 10.63-7.34 14.76-12.44 4.12-5.1 9.61-10.28 16.15-9.8 6.96.52 11.93 7.64 12.51 14.59.69 8.36-5.14 14.29 1.91 20.46 3.38 2.96 5.66 4.51 7.34 8.86 1.47 3.81 1.83 8.13 5.09 11 3.66 3.23 9.23 2.86 13.93 1.55 4.7-1.3 9.37-3.37 14.23-2.92 4.85.44 9.83 4.78 8.67 9.52-1.21 4.92-7.74 6.62-9.95 11.19-2.06 4.24.45 9.47 4.11 12.45 3.65 2.99 8.26 4.51 12.33 6.91 4.07 2.4 7.86 6.26 7.9 10.99.06 7.25-8.11 11.35-14.98 13.68-6.88 2.32-15.07 6.27-15.19 13.53Z" style="fill:#231f20;opacity:.09;stroke-width:0"/></g></svg>