<svg id="Layer_2" data-name="Layer 2" xmlns="http://www.w3.org/2000/svg" viewBox="0 0 239.27 258.84"><defs><style>.cls-2,.cls-3,.cls-4,.cls-5,.cls-6,.cls-7,.cls-8,.cls-9{stroke-width:0}.cls-2{fill:#bf6101}.cls-3{fill:#28a528}.cls-4{fill:#129b12}.cls-5{fill:#dfd3ca}.cls-6{fill:#9a4d01}.cls-7{fill:#352112}.cls-8{fill:#cb1201}.cls-9{fill:#097c09}</style></defs><g id="Layer_1-2" data-name="Layer 1"><path class="cls-6" d="M181.14 144.68c0 26.28-21.29 47.57-47.57 47.57H113.8v-28.38h.46l-.43 3.5h25.88c5.11 0 9.73-2.07 13.08-5.41s5.41-7.97 5.41-13.08c0-3.77 1.16-7.45 3.32-10.55l5.44-7.82c3.92 0 7.45 1.58 10.04 4.17 2.55 2.55 4.14 6.08 4.14 10.01Z"/><path class="cls-2" d="M166.97 130.51v14.48c0 18.07-14.66 32.73-32.73 32.73H113.8v-13.84h19.77c10.61 0 19.19-8.61 19.19-19.19 0-3.92 1.58-7.45 4.17-10.04 2.59-2.55 6.11-4.14 10.04-4.14ZM42.73 210.47c0-26.28 21.29-47.57 47.57-47.57h19.77v28.38h-.46l.43-3.5H84.16c-5.11 0-9.73 2.07-13.08 5.41s-5.41 7.97-5.41 13.08c0 3.77-1.16 7.45-3.32 10.55l-5.44 7.85c-3.92 0-7.45-1.58-10.04-4.17a14.17 14.17 0 0 1-4.14-10.04Z"/><path class="cls-6" d="M56.9 224.67v-14.48c0-18.07 14.66-32.73 32.73-32.73h20.44v13.84H90.3c-10.61 0-19.19 8.61-19.19 19.19 0 3.92-1.58 7.45-4.17 10.04-2.59 2.55-6.11 4.14-10.04 4.14Z"/><path class="cls-8" d="M165.51 241.75c.16-.07.29-.07.39 0 1.28.99 2.64 1.9 4.07 2.74 1.35.68 2.74 1.31 4.18 1.9 1.1.45 2.24.53 3.41.24.42-.1.68-.36.8-.78 1.15-4.17-.78-10.1-3.72-13.31-1.99-2.17-5.36-2.68-8.16-1.71-1.76.62-3.31 1.56-4.64 2.83-.57.54-.74 1.54-.48 2.29.73 2.14 2.05 3.91 3.95 5.31.08.06.14.12.17.2.04.1.05.2.04.28Z"/><ellipse class="cls-5" cx="172.82" cy="234.4" rx="1.84" ry="2.24" transform="rotate(-69.4 172.84 234.405)"/><ellipse class="cls-5" cx="167" cy="236.5" rx="1.78" ry="2.05" transform="rotate(-68.9 167.013 236.506)"/><ellipse class="cls-5" cx="174.43" cy="241.48" rx="1.75" ry="2.02" transform="rotate(-52 174.447 241.49)"/><path class="cls-5" d="m165.51 241.75-2.55 2.55c.23.63.43 1.34.6 2.11.34 1.55-.15 2.69-1.48 3.45 1.39 1.64 2.86 1.89 4.39.77.66-.48 1.17-1.15 1.53-1.99l1.96-4.14a39.64 39.64 0 0 1-4.07-2.74c-.1-.07-.23-.08-.39 0Z"/><path class="cls-2" d="M130.13 42.74c-5.81 35.12-11.44 70.27-16.9 105.44a17.83 17.83 0 0 0-.2 3.57c.8 19.33 3.86 38.27 9.18 56.81 4.65 16.23 12.35 30.78 23.1 43.65l-88.93-.07c-.74 0-.9-.3-.46-.9 2.66-3.68 5.56-6.97 7.97-10.87 5.95-9.66 10.3-19.26 13.05-28.8 5.37-18.59 8.65-36.05 9.84-52.38.41-5.58-.54-11.37-2.85-17.39-1.59-4.15-4.64-9.44-9.13-15.88l-6.75-11.57c-6.47-10.87-13-21.72-19.57-32.56-3.45-5.69-1.46-10.49 4.56-13.05 5.97-2.52 9.51-4.32 13.94 1.05 6.58 7.96 17.22 21.06 31.9 39.3.85 1.05 2.84 1.63 4.1 1.23a3.785 3.785 0 0 0 2.61-2.95c3.41-19.35 6.72-38.12 9.94-56.31.76-4.35 2.21-8.12 6.74-8.66 2.08-.27 4.7-.15 7.87.35Z"/><path class="cls-6" d="M147.05 124.05c-5.85 7.6-9.17 15.92-9.96 24.95-.28 3.28-.07 7.61.61 13.01.17 1.28.67 5.62 1.53 13 1.24 10.85 3.6 22.16 7.07 33.92 4.68 15.86 12.12 29.97 22.31 42.34.63.76.45 1.14-.55 1.13l-22.74-.18c-10.75-12.87-18.46-27.42-23.1-43.65a241.455 241.455 0 0 1-9.18-56.81c-.06-1.18.01-2.37.2-3.57 5.45-35.17 11.09-70.32 16.9-105.44 3.26.21 5.48 1.72 6.64 4.51.5 1.19.51 3.55.05 7.05-3.22 24.59-4.93 37.5-5.15 38.75-.76 4.66 3.07 6.92 6.57 3.49 8.97-8.77 14.59-14.49 16.86-17.16 3.58-4.22 7.56-5.29 11.92-3.22 2.48 1.18 3.87 3.04 4.17 5.56.28 2.33-.45 4.82-2.19 7.45-3.73 5.63-11.05 17.26-21.96 34.87Z"/><path class="cls-9" d="M75.34 100.38c-3.95 7.22-11.61 12.13-20.42 12.13-.68 0-1.34-.03-1.99-.09 7.88-.66 14.62-5.38 18.1-12.06 1.55.23 2.98.24 4.31.03ZM45.05 39.44c-2.01 1.21-4.08 1.71-6.21 1.48-.71-.07-2.09-.51-4.13-1.3-1.47-.57-2.86-1-4.17-1.29-2.4-.53-5.16-.59-8.26-.18.54-.55 1.18-1.02 1.9-1.4 5.91-3.12 11.7-3.1 17.38.07.78.44 1.95 1.31 3.49 2.63ZM77.74 99.78c3.62-3.55 5.1-7.57 4.42-12.06-.02-.17.03-.3.18-.4 5.17-3.42 8.39-8.83 8.79-14.99.43-6.65-2.72-13-8.1-16.81-3.73-2.64-8.02-3.79-12.84-3.45-.09 0-.16-.06-.17-.15-.2-7.06-5.06-13.06-11.44-15.4-1.65-.61-3.54-.92-5.67-.94-.64 0-1.4.05-2.29.17-.73.09-1.47.14-2.23.15.84-.75 1.57-1.27 2.18-1.57 5.06-2.49 9.93-2.8 14.63-.93 2.9 1.15 5.31 2.94 7.24 5.36 2.21 2.77 3.43 6.02 3.66 9.74 0 .17.1.24.26.23.11 0 .21-.03.32-.07.12-.04.22-.06.31-.06 6.36-.07 11.5 2.11 15.42 6.56 2.1 2.38 3.52 5.03 4.25 7.96 1 3.95.74 7.91-.78 11.87-.6 1.58-1.58 3.2-2.93 4.88-1.37 1.7-2.77 3.01-4.21 3.93-.44.28-.61.63-.5 1.06.09.35.13.54.13.56.22 3-.49 5.72-2.14 8.18a14.685 14.685 0 0 1-3.85 3.89c-1.31.91-2.85 1.67-4.63 2.28ZM50.51 108.5l3.16 1.88c-.66 1.42-1.44 2.6-2.36 3.55-1.81 1.88-4.09 3.32-6.84 4.33 2.79-2.93 4.81-6.19 6.04-9.76Z"/><path class="cls-4" d="M83.04 55.53c-3.74-2.64-8.02-3.79-12.84-3.45-.05 0-.08-.01-.12-.04a.162.162 0 0 1-.05-.09v-.03c-.2-7.06-5.06-13.07-11.44-15.4-1.66-.61-3.55-.91-5.68-.94-.64 0-1.39.05-2.29.17-.73.09-1.47.15-2.23.15l-3.34 3.54c-2 1.21-4.07 1.71-6.2 1.48-.7-.08-2.08-.52-4.13-1.31-1.47-.57-2.85-.99-4.16-1.29-2.41-.53-5.17-.6-8.27-.19-5.27 4.33-7.33 10.02-6.18 17.04.03.16-.04.25-.2.28-1.3.2-2.25.37-2.82.5C6.73 57.38 1.47 62.85.33 69.21c-1.25 6.89 1.1 12.68 7.02 17.36.09.08.11.17.04.28-3.34 4.62-4.55 9.66-3.6 15.13.65 3.83 3.01 8.02 5.74 10.46 5.21 4.65 11.2 6.18 17.97 4.56 1.14-.28 2.64-.91 3.49-1.21.15-.05.26-.03.38.08 1.66 1.46 3.35 2.39 5.09 2.8 2.69.64 5.37.49 8.02-.42 1.75-1.83 3.18-3.79 4.32-5.87.63.06 1.27.08 1.91.09.05 0 .09.01.14.01h.16c.5 0 1.01-.01 1.51-.05.15 0 .29-.01.42-.04 7.88-.66 14.62-5.38 18.1-12.06 1.55.23 2.98.24 4.31.03.85-.11 1.64-.32 2.4-.6 3.63-3.55 5.1-7.57 4.43-12.06-.03-.17.04-.29.19-.38 5.17-3.43 8.39-8.83 8.79-15 .44-6.65-2.72-13-8.1-16.8Z"/><path class="cls-3" d="M14.51 83.33c.1-.08.12-.23.04-.33-.01-.02-.03-.03-.05-.04-4.6-3.27-6.33-7.56-5.19-12.88.41-1.91 1.47-3.73 3.18-5.47 2.05-2.08 4.42-3.22 7.13-3.41.33-.02 1.08-.06 2.26-.1.15 0 .23-.09.24-.25.04-.57-.04-1.7.11-2.47.75-3.8 2.66-6.58 5.73-8.35 5.25-3.03 11.47-1.74 15.33 2.99 1.08 1.32 1.57 2.73 1.48 4.24-.14 2.35-.4 4.38-.78 6.07C41.67 73.69 38.13 84 33.37 94.25c-1.37 2.93-2.88 5.46-4.55 7.59-.63.8-1.62 1.42-2.98 1.86-5.67 1.82-11.48-.44-14.32-5.67-2.64-4.88-1.48-11.25 2.99-14.69Z"/><path class="cls-9" d="M156.01 99.1c2.58 8.21 9.43 14.8 18.47 16.59.69.14 1.38.25 2.06.31-7.95-2.29-13.89-8.5-16.1-16.05-1.64-.09-3.11-.36-4.42-.85ZM199.48 42.8c1.81 1.65 3.83 2.58 6.06 2.79.74.07 2.24-.1 4.5-.49 1.62-.29 3.14-.44 4.54-.47 2.57-.05 5.41.44 8.51 1.5-.45-.68-1-1.29-1.66-1.83-5.42-4.41-11.37-5.57-17.84-3.48-.89.29-2.27.95-4.12 1.98ZM153.66 98c-2.99-4.38-3.68-8.8-2.08-13.26.06-.17.03-.32-.1-.44-4.61-4.57-6.8-10.76-5.96-17.16.91-6.91 5.43-12.77 11.73-15.58 4.37-1.95 8.99-2.26 13.87-.92.09.02.18-.03.2-.12 1.64-7.2 7.85-12.36 14.87-13.46 1.82-.28 3.82-.22 6.01.19.65.12 1.43.34 2.32.64.73.25 1.48.45 2.26.61-.71-.94-1.35-1.62-1.91-2.05-4.68-3.58-9.62-4.89-14.81-3.93-3.2.59-6.04 1.93-8.52 4.02-2.83 2.39-4.74 5.47-5.74 9.24-.04.17-.15.23-.32.18-.11-.03-.21-.08-.31-.13-.11-.06-.22-.1-.3-.13-6.5-1.37-12.22-.18-17.15 3.58-2.64 2.01-4.63 4.44-5.98 7.29-1.83 3.85-2.37 7.96-1.62 12.33.3 1.74.97 3.61 2.01 5.6 1.06 2.02 2.23 3.65 3.51 4.89.39.38.49.77.3 1.19-.16.34-.24.52-.25.55-.84 3.03-.66 5.97.53 8.82.75 1.79 1.8 3.38 3.16 4.78 1.15 1.2 2.58 2.29 4.28 3.28ZM179.82 112.49l-3.63 1.29c.39 1.59.95 2.96 1.69 4.12 1.47 2.3 3.51 4.24 6.13 5.83-2.27-3.58-3.67-7.32-4.2-11.24Z"/><path class="cls-4" d="M157.25 51.55c4.37-1.94 8.99-2.25 13.87-.92.05.01.08 0 .13-.02.03-.02.05-.05.07-.08v-.03c1.65-7.2 7.86-12.36 14.87-13.46 1.82-.29 3.83-.21 6.02.19.65.13 1.42.34 2.32.64.73.24 1.48.45 2.25.6l2.7 4.31c1.81 1.64 3.82 2.58 6.06 2.79.74.06 2.24-.11 4.51-.5 1.62-.28 3.12-.44 4.53-.47 2.58-.05 5.42.44 8.52 1.5 4.52 5.52 5.47 11.77 2.86 18.73-.06.16-.01.27.15.33 1.29.47 2.23.84 2.79 1.09 6.23 2.76 10.51 9.45 10.38 16.2-.13 7.32-3.71 12.78-10.74 16.37-.11.06-.14.16-.1.28 2.48 5.42 2.69 10.83.61 16.25-1.45 3.79-4.72 7.61-8.01 9.55-6.29 3.71-12.74 4.05-19.35 1.01-1.11-.52-2.52-1.47-3.33-1.95a.38.38 0 0 0-.41 0c-2 1.16-3.92 1.76-5.79 1.83-2.89.1-5.6-.59-8.13-2.07a28.773 28.773 0 0 1-3.23-6.9c-.66-.07-1.32-.17-1.98-.3-.05 0-.1 0-.15-.01-.02 0-.03-.01-.05-.02-.04 0-.07 0-.11-.02-.52-.1-1.03-.22-1.54-.36-.15-.03-.3-.07-.43-.13-7.95-2.29-13.89-8.5-16.1-16.05-1.64-.09-3.11-.36-4.42-.85-.85-.28-1.62-.66-2.34-1.1-3-4.38-3.69-8.8-2.08-13.27.06-.17.02-.31-.11-.43-4.6-4.57-6.8-10.76-5.95-17.17.91-6.91 5.43-12.77 11.73-15.58Z"/><path class="cls-3" d="M221.85 94.02a.23.23 0 0 1 .03-.34c.02-.01.04-.03.06-.04 5.39-2.41 8.04-6.46 7.95-12.15-.03-2.04-.74-4.12-2.14-6.26-1.67-2.55-3.88-4.2-6.61-4.95-.33-.09-1.1-.28-2.29-.56-.15-.04-.22-.14-.2-.31.08-.59.39-1.74.39-2.55 0-4.05-1.39-7.29-4.17-9.73-4.77-4.18-11.4-4.12-16.33-.06-1.37 1.13-2.16 2.48-2.38 4.05-.34 2.44-.49 4.57-.44 6.38.27 11.1 1.8 22.38 4.59 33.86.8 3.29 1.84 6.19 3.11 8.71.48.95 1.37 1.78 2.67 2.51 5.44 3.03 11.86 1.89 15.83-2.9 3.7-4.46 3.81-11.24-.08-15.67Z"/><path class="cls-9" d="M116.77 88.24c8.76 1.86 18.23-.98 24.48-8.26.48-.56.93-1.12 1.33-1.71-6.14 6.04-14.8 8.25-22.78 6.39-.91 1.44-1.92 2.63-3.03 3.57ZM87.95 20.05c2.43-.8 4.3-2.15 5.62-4.07.44-.64 1.06-2.08 1.86-4.33.57-1.62 1.2-3.07 1.89-4.36 1.27-2.36 3.17-4.67 5.71-6.95-.84.06-1.68.25-2.5.57-6.77 2.66-10.86 7.46-12.27 14.39-.19.96-.3 2.54-.31 4.75ZM114.58 89.8c-5.5.47-9.86-1.16-13.09-4.9-.12-.14-.27-.19-.45-.13-6.49 1.84-13.23.67-18.6-3.37-5.8-4.36-8.8-11.46-8.13-18.6.47-4.96 2.55-9.3 6.26-13.05.07-.07.07-.17 0-.24-5.69-5.17-7.2-13.43-4.6-20.36.67-1.79 1.75-3.57 3.25-5.35.45-.53 1.03-1.12 1.77-1.77.6-.54 1.16-1.11 1.71-1.74-1.22.17-2.16.39-2.84.68-5.64 2.41-9.35 6.21-11.13 11.41-1.1 3.21-1.34 6.47-.71 9.78.72 3.79 2.53 7.1 5.44 9.92.13.12.13.25 0 .38-.08.08-.18.15-.28.22-.11.07-.21.14-.27.21-4.57 5.19-6.4 10.99-5.51 17.38.48 3.42 1.66 6.47 3.55 9.15 2.55 3.62 6 6.21 10.35 7.77 1.73.62 3.76.97 6.1 1.04 2.37.07 4.45-.15 6.23-.68.54-.16.95-.05 1.23.34.23.32.35.49.37.5 2.32 2.31 5.07 3.65 8.27 4.03 2 .23 3.98.09 5.94-.42 1.67-.44 3.39-1.17 5.16-2.2ZM141.08 73.5l-.69 3.95c1.64.46 3.17.65 4.6.57 2.84-.16 5.64-1.02 8.42-2.58-4.4.22-8.51-.42-12.33-1.94Z"/><path class="cls-4" d="M74.31 62.8c.47-4.95 2.56-9.3 6.26-13.04.04-.04.05-.07.05-.13 0-.04-.02-.07-.04-.11h-.01v-.02c-5.7-5.17-7.21-13.44-4.61-20.35.67-1.8 1.76-3.58 3.25-5.36.45-.52 1.03-1.11 1.77-1.77.59-.54 1.16-1.11 1.7-1.73l5.29-.25c2.41-.8 4.29-2.15 5.62-4.07.43-.64 1.05-2.08 1.85-4.34.57-1.62 1.2-3.06 1.89-4.34 1.27-2.37 3.17-4.69 5.71-6.96 7.31-1.28 13.46 1.05 18.44 6.98.11.13.24.15.37.03 1.08-.93 1.9-1.6 2.42-1.97 5.69-4.23 13.94-4.7 19.99-1.13 6.57 3.86 9.69 9.9 9.35 18.1 0 .13.07.21.2.23 6.18.52 11.19 3.1 15.04 7.75 2.7 3.25 4.48 8.17 4.56 12.15.15 7.59-2.84 13.62-8.98 18.06-1.04.74-2.62 1.53-3.47 2.02-.15.08-.21.2-.21.37.03 2.4-.41 4.46-1.3 6.18-1.38 2.67-3.4 4.78-6.03 6.32-2.75.15-5.38-.06-7.91-.6-.4.56-.83 1.11-1.28 1.64-.03.04-.06.09-.09.13-.01.01-.03.02-.04.04a.55.55 0 0 0-.07.09c-.36.42-.72.82-1.11 1.21-.1.12-.22.23-.33.32-6.14 6.04-14.8 8.25-22.78 6.39-.91 1.44-1.92 2.63-3.03 3.57-.69.62-1.43 1.13-2.19 1.56-5.5.48-9.86-1.15-13.09-4.9-.12-.14-.27-.17-.45-.12-6.5 1.83-13.23.67-18.61-3.38-5.8-4.35-8.8-11.46-8.13-18.59Z"/><path class="cls-3" d="M145.82 25.96a.252.252 0 0 1-.3-.2v-.07c.57-6.12-1.75-10.59-6.95-13.42-1.86-1.02-4.12-1.43-6.77-1.26-3.17.21-5.79 1.37-7.86 3.46-.25.26-.82.85-1.68 1.79-.11.12-.24.13-.38.02-.5-.37-1.38-1.24-2.11-1.66-3.67-2.07-7.32-2.47-10.95-1.19-6.22 2.19-9.57 8.23-8.4 14.77.32 1.82 1.14 3.23 2.46 4.23 2.04 1.55 3.89 2.77 5.56 3.66 10.19 5.43 21.21 9.81 33.04 13.15 3.39.95 6.55 1.5 9.49 1.63 1.1.05 2.32-.33 3.64-1.14 5.53-3.39 7.77-9.79 5.47-15.83-2.15-5.64-8.24-9.2-14.24-7.94Z"/><path class="cls-7" d="M134.52 128.59c-2.32-1.42-4.62-2.08-7.31-2.44a.717.717 0 0 1-.6-.53c-.55-2.22-.64-4.59-.25-7.1.3-1.98 1.28-3.45 2.94-4.41.27-.16.61-.13.85.06 1.82 1.46 3.06 3.53 3.71 6.21.59 2.47.97 5.11 1.13 7.93 0 .17-.13.32-.3.32-.06 0-.12-.01-.17-.04ZM94.4 128.06c-2.55.4-4.26.93-6.25 2.12-.23.14-.52.07-.66-.16-.01-.02-.03-.05-.04-.07-.91-2.32-1.43-4.31-1.56-5.99-.2-2.66.49-4.99 2.06-7.02 1.34-1.72 2.71-1.43 3.88.27 1.45 2.12 2.41 4.53 2.9 7.22.26 1.43.28 2.52.06 3.29-.06.2-.19.31-.39.34Z"/><ellipse class="cls-5" cx="130.25" cy="118.01" rx="1.42" ry="1.86" transform="rotate(-14.6 130.24 118.005)"/><ellipse class="cls-5" cx="89.83" cy="119.38" rx="1.61" ry="1.89" transform="rotate(-20.4 89.83 119.384)"/><path class="cls-6" d="M116.53 129.13c-1.92-1.28-3.81-1.43-5.65-.46-3.62 1.91-1.78 6.41 1.01 8.01-1.31-.19-2.34-.74-3.07-1.66-2.57-3.22-2.01-9.72 3.63-9.01 1.92.24 3.28 1.28 4.09 3.12Z"/><path d="M116.53 129.13c2.64 2.31 2.82 4.63.54 6.96-1.3 1.33-3.03 1.53-5.18.59-2.79-1.61-4.62-6.11-1.01-8.01 1.84-.97 3.73-.82 5.65.46Z" style="stroke-width:0;fill:#cd6b2c"/><path class="cls-7" d="M96.78 144.35c5.79 1.78 12.28 2.67 19.47 2.65 5.22 0 9.59-1.27 13.11-3.78.72-.52 1.19-.35 1.39.53l.06.26c.2.85-.06 1.52-.76 2.03-2.61 1.89-5.72 3.05-9.35 3.48-5.09.6-10.51.42-16.24-.54-2.56-.43-4.92-1.02-7.07-1.77-.43-.15-.75-.51-.86-.95l-.32-1.39c-.11-.49.07-.66.56-.51Z"/><path class="cls-4" d="M69.61 229.43c1.21-.37 2.23-.98 3.05-1.82 2.14-.61 3.52-.98 4.13-1.13 2.27-.53 4.87-.32 7.82.64 2.72 1.39 3.01 1.88.87 1.48-5.22-.08-9.42 2.09-12.62 6.52-.08.11-.06.27.05.35.04.03.1.05.15.05 1.67 0 3.33.32 4.97.97 4.92 2.99 7.6 7.22 8.02 12.71.28 3.57-.64 6.62-2.78 9.43-.26.34-.37.3-.33-.14.46-4.92-.84-8.78-3.87-11.59-3.61-3.34-8.67-4.35-13.55-3.49-.34.06-.64.26-.82.55a77.65 77.65 0 0 1-3.18 4.66c-1 1.35-1.96 2.28-2.88 2.78-1.41.78-2.81.94-4.2.49-.62-.82-1.28-1.58-1.96-2.26-.82-.82-1.45-1.58-1.89-2.27-5.52-8.68-9.36-14.29-11.52-16.83-1.31-1.55-1.99-2.42-2.04-2.6-.07-.25 0-.37.24-.36.45 0 1.1.26 1.97.77 6.84 4.01 12.36 8.79 16.57 14.32.14.19.29.19.44 0 .07-.09.07-.22 0-.4-.59-1.35-1.45-3.69-2.58-7.02-.67-1.99-1.22-4.41-1.64-7.28-1.05-7.04-1.88-14.1-2.51-21.18-.27-3.05-.34-5.79-.21-8.23.07-1.35.41-1.42 1.01-.21.38.77.72 1.64 1.03 2.63 3.25 10.34 5.57 20.63 6.95 30.87 0 .03.02.05.05.04l.18-.03s.07-.03.06-.08c-1.1-13.8-1.97-27.65-2.62-41.55-.14-3.03-.12-6.04.07-9.02.08-1.18.35-1.23.83-.15 3.6 8.13 6.02 16.65 7.27 25.56 1.08 7.7 1.83 16.62 2.25 26.78 0 .27.09.3.26.07l2.97-4.03Z"/><path class="cls-8" d="M149.86 239.9c-1.59 2.11-1.4 3.63.58 4.54.66.3 1.35.56 2.06.76 2.05.65 4.12 1.03 6.2 1.14 1.38-.06 2.59-.37 3.65-.92.89-.76 1.1-1.7.61-2.82-.24-.56-.5-1.06-.76-1.51-.74-1.49-1.74-2.5-2.98-3.04-.89-.38-2.04-.61-3.45-.69-2.61-.15-4.57.7-5.9 2.55Z"/><ellipse class="cls-5" cx="158.41" cy="240.19" rx="1.34" ry="1.61" transform="rotate(-78.9 158.41 240.196)"/><ellipse class="cls-5" cx="153.25" cy="242.23" rx="1.34" ry="1.62" transform="rotate(-65.6 153.255 242.23)"/><path class="cls-5" d="M152.51 245.2c-.22 1.09 0 2.06 1.16 2.41 1.43.43 3.22.75 4.51-.11.42-.28.6-.67.53-1.17-2.08-.11-4.14-.49-6.2-1.14Z"/></g></svg>