<svg id="Layer_2" data-name="Layer 2" xmlns="http://www.w3.org/2000/svg" viewBox="0 0 244.43 238.16"><defs><style>.cls-1,.cls-3,.cls-4,.cls-5,.cls-7,.cls-8{stroke-width:0}.cls-3{fill:#9b9b9b}.cls-4{fill:#aea6a0}.cls-5{fill:#fff}.cls-7{fill:#f27fa7;opacity:.63}.cls-8{fill:#dfd3ca}</style></defs><g id="Layer_3" data-name="Layer 3"><path class="cls-8" d="M173.46 186.9c-.52 5.11-1.38 10.17-2.83 15.11-3.21 11.01-9.48 21.46-19.02 27.84-13.49 9.03-30.96 8.69-47.19 8-13.63-.58-28.28-1.51-38.92-10.05-4.99-4.03-8.64-9.42-11.05-15.39-1.6-3.91-2.66-8.07-3.26-12.23-1.48-10.5-.22-21.2 1.31-31.7a615.15 615.15 0 0 1 7.52-41.56c.17-.73.32-1.48.5-2.21.55-2.56 1.13-5.12 1.73-7.67 2.06-8.83 4.33-17.64 6.77-26.37C72 80.09 72.65 76.53 83.43 74.5c12.25-2.31 24.49-4.06 36.97-4.61 3.86-.17 35.06-2.03 36.2 1.25 4.86 13.99 8.7 28.33 11.55 42.88.85 4.28 1.6 8.57 2.25 12.88 2.1 13.58 3.29 27.29 3.59 41.03.13 6.32.07 12.69-.55 18.98Z"/><path d="M241.09 118.87c-9.46 10.83-21.06 17.76-34.82 20.79a718.937 718.937 0 0 1-53.51 9.88c-19.55 1.52-38.92 1.85-58.08.97l-9.06-.7c-14.69-.4-28.49-2.86-41.44-7.43-11.69-4.09-22.69-9.9-32.96-17.42C3.6 119.39-1.48 108.57.39 99.42 4.77 78.1 13.43 58.44 26.35 40.48c9.31-12.9 21.85-23.64 35.96-30.79 17-8.64 36.27-12.09 54.88-7.93C167.55 12.97 226.48 57.57 243.6 105.9c1.67 4.81.84 9.13-2.51 12.97Z" style="fill:#cb1201;stroke-width:0"/><ellipse class="cls-8" cx="112.14" cy="32.1" rx="26.52" ry="21.81" transform="rotate(-14.3 112.17 32.087)"/><ellipse class="cls-8" cx="69.84" cy="91.93" rx="24.26" ry="21.04" transform="rotate(-13.8 69.866 91.965)"/><ellipse class="cls-8" cx="175.78" cy="90" rx="20.78" ry="23.88" transform="rotate(-86.9 175.795 90)"/><circle class="cls-7" cx="74" cy="189.9" r="13.01"/><circle class="cls-7" cx="153.21" cy="189.9" r="13.01"/><path class="cls-4" d="M95.2 184.01c-3.98 3.04-8.42 3.72-13.34 2.03-2.74-1.21-4.79-3.03-6.16-5.44-2.31-4.09-2.29-9.23.22-13.27 1.78-2.86 4.34-4.78 7.66-5.75.28-.08.52-.11.69-.09.17.03.33 0 .47-.11.11-.07.26-.12.45-.15 4.56-.58 9.49 1.67 12.19 5.38 1.22 1.68 1.98 3.64 2.28 5.87.6 4.4-.89 8.24-4.47 11.51ZM150.43 186.07c-4.94 1.66-9.42.91-13.43-2.25-3.08-2.86-4.53-6.38-4.32-10.57.1-2.17.76-4.18 1.95-6 2.17-3.3 5.11-5.27 8.82-5.9 2.89-.49 5.77.09 8.61 1.74 6.96 4.02 8.48 13.31 3.28 19.39-1.27 1.48-2.91 2.68-4.92 3.59Z"/><path class="cls-1" d="M98.47 172.74c.2 6.47-4.89 11.88-11.39 12.08-6.49.2-11.92-4.88-12.12-11.35-.2-6.47 4.89-11.88 11.39-12.08 6.49-.2 11.92 4.88 12.12 11.35ZM157.05 174.37c-.7 6.44-6.5 11.09-12.96 10.39-6.46-.7-11.12-6.49-10.42-12.93.7-6.44 6.5-11.09 12.96-10.39 6.46.7 11.12 6.49 10.42 12.93Z"/><ellipse class="cls-5" cx="85.19" cy="167.9" rx="3.62" ry="3.67" transform="rotate(-3.9 85.147 167.862)"/><circle class="cls-5" cx="143.86" cy="167.91" r="3.65"/><ellipse class="cls-3" cx="90.45" cy="176.42" rx="2.24" ry="2.2" transform="rotate(-66.1 90.45 176.422)"/><ellipse class="cls-3" cx="148.72" cy="176.4" rx="2.17" ry="2.23" transform="rotate(-3.4 148.71 176.402)"/><path class="cls-1" d="M100.53 193.75c-.11.06-.37.23-.79.5-.69.45-1.47.72-2.34.81-.08 0-.16-.06-.17-.14 0-.04 0-.07.03-.1.82-1.09 1.94-2.58 3.35-4.47.17-.23.36-.37.57-.42.33-.08.56.03.69.34.18.43.21.79.09 1.08-.12.28-.02.6.24.76 1.27.81 2.67 1.45 4.19 1.91 3.1.95 6.41 1.42 9.95 1.42 3.79 0 7.52-.72 11.17-2.16.31-.12.75-.33 1.33-.64.75-.39.74-.62.96-1.39.03-.1.08-.19.15-.27.33-.37.71-.36 1.16.04 1.45 1.31 2.69 2.8 3.71 4.48.04.06.02.15-.05.19-.02.01-.04.02-.06.02-1.46.06-2.36-.63-3.52-1.42-.09-.06-.18-.06-.28 0-2.46 1.55-5.27 2.61-8.45 3.16-3.18.56-6.22.74-9.14.54-3.59-.24-7-1.1-10.22-2.58-.56-.26-1.34-.81-2.32-1.65-.08-.07-.17-.08-.26-.02ZM124.9 202.81c-.7 1.19-2.24 1.77-3.56 2.05-3.97.86-7.84.59-11.6-.8-.61-.23-1.24-.63-1.87-1.2-.21-.19-.25-.42-.27-.69v-.25c0-.11.06-.18.17-.21.29-.06.6-.14.9-.03 2.8 1.03 5.03 1.51 6.7 1.46 2.25-.08 5.13-.34 8.65-.79.21-.03.38-.02.52.02.26.07.38.22.36.43Z"/><path d="M173.46 186.9c-.52 5.11-1.38 10.17-2.83 15.11-3.21 11.01-9.48 21.46-19.02 27.84-13.49 9.03-30.96 8.69-47.19 8-13.63-.58-28.28-1.51-38.92-10.05-4.99-4.03-8.64-9.42-11.05-15.39 4.68 5.82 10.53 10.66 17.04 14.29 4.41 2.45 9.12 4.34 14.01 5.59 17.77 4.53 37.14.83 52.98-8.42 14.81-8.65 26.64-21.93 34.97-36.97Z" style="fill:#bfb5af;stroke-width:0"/><path d="M41.24 37.35C32.14 56.22 29.69 77.9 32.2 98.7c1.82 15.04 6.12 29.67 11.98 43.67-11.69-4.09-22.69-9.9-32.96-17.42C3.6 119.39-1.48 108.57.39 99.42 4.77 78.1 13.43 58.44 26.35 40.48c9.31-12.9 21.85-23.64 35.96-30.79-8.84 7.62-16.03 17.18-21.08 27.67Z" style="fill:#a8181d;stroke-width:0"/></g></svg>