<svg id="Layer_2" data-name="Layer 2" xmlns="http://www.w3.org/2000/svg" viewBox="0 0 238.98 247.69"><defs><style>.cls-1{fill:#005b3a}.cls-1,.cls-11,.cls-12,.cls-2,.cls-3,.cls-9{stroke-width:0}.cls-2{fill:#69c4a3}.cls-14{opacity:.1}.cls-9{fill:#4ca786}.cls-11{fill:#85e0bf}.cls-12{fill:#146f4e}</style></defs><g id="Layer_4" data-name="Layer 4"><path d="M238.98 247.35H.12c-.41-3.35.27-6.9 1.63-9.92 2.92-6.47 4.93-12.55 6.34-19.51 1.2-5.95 2.62-11.5 1.86-17.52s-.24-12.9 4.26-16.97c6.8-6.14 19.99-3.54 24-11.78 2.55-5.21-.63-11.36-4.22-15.91-3.6-4.54-7.94-9.26-7.97-15.05-.05-10.4 9.76-17.77 10.21-28.16.25-5.8.09-9.74-3.06-14.62-3.16-4.88-5.58-11.44-2.34-16.26 4.1-6.11 14.19-4.91 18.98-10.5 5.34-6.23 1.36-17.62 7.77-22.76 5.17-4.15 12.73-.81 19.36-1.03 9.05-.3 16.28-7.42 24.79-10.52 10.69-3.89 30.58 6.26 41.63 9 12.77 3.17 18.15-.74 27.58 8.44 5.13 5.01 9.11 11.69 15.78 14.33 4.01 1.58 9.01 1.76 11.56 5.23 4.79 6.52-4.41 14.98-3.71 23.03.88 10.22 16.54 13.81 17.88 23.98 1.06 8.17-7.89 14.33-9.26 22.46-1.08 6.39 2.7 12.45 5.1 18.47 1.15 2.89-1.81 10.14 1.53 15.74 3.63 6.1 13.62 10.59 15.86 14.26 4.28 7.04 5.91 15.33 7.48 23.42 1.5 7.83 3.01 15.65 4.52 23.47.55 2.84 1.08 5.77 1.3 8.68Z" style="opacity:.29;fill:#88e3c2;stroke-width:0"/><path d="M122.22 66.02c15.93 1.51 29.02 8.03 39.26 19.53 7.4 8.31 12.03 18.18 13.89 29.58.53 3.29.79 8.86.78 16.71v11.85c.01 5.15-.3 9.05-.94 11.72-3.18 13.44-15.35 23.64-29.56 23.57-.26 0-.38.13-.38.38-.03 7.22-.03 15.08 0 23.58.01 2.96-.16 4.96-.52 5.98-2.02 5.86-10.73 5.78-12.85-.18-.3-.81-.44-2.13-.43-3.94.01-3.52-.02-6.45-.09-8.78-.06-1.99-1.13-3.03-3.22-3.12h-.13c-2.09.07-3.16 1.11-3.22 3.12-.05 1.7-.1 5.42-.16 11.16-.02 2-1.12 3.71-3.31 5.13-1.9 1.24-4.08 1.34-6.53.3-2.92-1.24-3.96-4.24-3.88-7.59.06-2.9.05-5.9-.04-9.02-.06-2-1.14-3.04-3.25-3.13l-.23-.02c-1.7-.07-3.13 1.34-3.2 3.14v9.98c.02 6.45-7.18 9.89-11.95 5.18-1.3-1.29-1.94-3.29-1.91-6.01.04-3.52.05-12.05.03-25.6 0-.29-.14-.44-.43-.45-7.21-.26-13.39-2.45-18.56-6.58-5.17-4.13-8.67-9.26-10.51-15.4-1.11-3.7-1.57-9.18-1.37-16.46.05-1.75.1-7.34.14-16.76.05-10.19 2.54-19.64 7.46-28.36 2.72-4.81 6.12-9.19 10.22-13.16 9.75-9.45 21.75-14.89 36.01-16.33h8.86Z" style="fill:#5bb695;stroke-width:0"/><path d="M89.08 95.49c-2.39 2.39-4.73 5.4-7.01 9.02-.85 1.35-2.21 1.7-4.09 1.07-1.23-.42-1.92-1.39-2.1-2.91-.08-.72.27-1.72 1.04-2.99 1.99-3.29 4.39-6.33 7.2-9.15a48.09 48.09 0 0 1 9.14-7.21c1.27-.77 2.27-1.12 2.99-1.04 1.52.17 2.49.87 2.91 2.1.64 1.88.29 3.25-1.06 4.09-3.63 2.29-6.63 4.63-9.01 7.02Z" style="fill:#d1b4ad;stroke-width:0"/><path class="cls-1" d="M105.89 137.91c0 9.5-7.7 17.2-17.2 17.2s-17.2-7.7-17.2-17.2 7.7-17.2 17.2-17.2 17.2 7.7 17.2 17.2ZM164.1 137.92c0 9.49-7.7 17.19-17.19 17.19-9.49 0-17.19-7.7-17.19-17.19 0-9.49 7.7-17.19 17.19-17.19 9.49 0 17.19 7.7 17.19 17.19Z"/><circle class="cls-11" cx="88.71" cy="137.92" r="6.06"/><circle class="cls-11" cx="146.9" cy="137.91" r="6.08"/><rect class="cls-12" x="105.76" y="165.31" width="13.78" height="6.85" rx="3.26" ry="3.26" transform="rotate(-89.5 112.647 168.74)"/><rect class="cls-12" x="116.05" y="165.26" width="13.8" height="6.95" rx="3.3" ry="3.3" transform="rotate(-89.9 122.955 168.74)"/><path class="cls-9" d="M10.92 228.15h215.82v19.2H10.92v-19.2Z"/><path class="cls-2" d="M61.54 179.59v48.6H10.92c4.71-29.26 20.36-46.76 50.62-48.6Zm114.63 0v48.6h50.57c-4.71-29.26-20.36-46.76-50.57-48.6Z"/><path d="M162.88 242.44c-28.94 7-59.15 7-88.09 0-7.75-1.85-13.24-8.7-13.29-16.62v-26.54c0-7.53 6.18-13.66 13.78-13.66h87.11c7.6 0 13.78 6.12 13.78 13.66v26.54c-.05 7.92-5.49 14.78-13.29 16.62Z" style="fill:#71ccab;stroke-width:0"/><path class="cls-9" d="M118.83 185.62H88.81v10.89c.83 18.66 14.27 27.85 30.02 27.12 15.75.73 29.18-8.46 30.02-27.12v-10.89h-30.02Z"/><path d="M75.08 226.69c0 7.44-6.08 13.46-13.59 13.46s-13.54-6.03-13.54-13.46 6.08-13.46 13.59-13.46 13.54 6.03 13.54 13.46Zm114.63.49c-.29 7.44-6.57 13.22-14.08 12.93-7.5-.29-13.34-6.51-13.05-13.95.29-7.44 6.57-13.22 14.08-12.93 7.5.29 13.34 6.56 13.05 13.95Z" style="fill:#97f2d1;stroke-width:0"/><path d="M47.95 226.69c0 7.44 6.08 13.46 13.59 13.46v-26.93c-7.5 0-13.59 6.03-13.59 13.46Zm114.63 0c0 7.44 6.08 13.46 13.59 13.46v-26.93c-7.5 0-13.59 6.03-13.59 13.46Z" style="isolation:isolate;opacity:.08;stroke-width:0"/><path class="cls-2" d="M114.41 50.07s2.4-32.86 41.35-41.9c7.75-1.75 15.25-4.28 22.42-7.63 2.21-1.17 5-.39 6.18 1.85.44.83.64 1.8.49 2.72-1.03 7.39-5.44 18.08-19.96 28.38-7.06 5.01-16.68 7.19-25.26 8.75-5.59 1.02-13.24 3.01-18.25 9.28l-6.97-1.46Z"/><path class="cls-9" d="M192.7 121.61v34.41c-2.21 27.75-14.81 40.63-27.71 48.55-3.14 1.94-7.31.97-9.27-2.14a6.97 6.97 0 0 1-1.03-3.69l.49-18.61c.1-3.21 1.23-6.32 3.29-8.8l6.77-8.21c3.04-3.69 4.76-8.36 4.71-13.17v-32.03c0-5.1-2.84-9.82-7.36-12.25l-44.64-23.86-44.68 23.86a13.863 13.863 0 0 0-7.36 12.25v31.98c0 4.81 1.67 9.43 4.71 13.17l6.77 8.21c2.06 2.48 3.24 5.59 3.29 8.8l.49 18.61c.1 3.69-2.84 6.76-6.57 6.8-1.32.05-2.6-.34-3.73-1.02-12.9-7.92-25.51-20.75-27.71-48.55v-34.41c0-40.88 33.45-74.02 74.7-74.02s74.85 33.2 74.85 74.12Z"/><path d="m190.74 101.39-6.18-16.72a5.19 5.19 0 0 0-4.41-3.4c-24.48-1.99-45.47-16.43-62.05-32.61-16.58 16.18-37.52 30.62-62.05 32.61a5.193 5.193 0 0 0-4.41 3.4l-6.13 16.72c-.98 2.72.44 5.74 3.19 6.76.54.19 1.08.29 1.67.29 26.83.44 51.9 13.32 67.74 34.75 15.84-21.43 40.96-34.31 67.79-34.75 2.94-.1 5.25-2.48 5.15-5.39.05-.58-.1-1.12-.29-1.65Z" style="fill:#88e3c2;stroke-width:0"/><path class="cls-9" d="M117.99 119.71c-2.45 0-4.41-1.94-4.41-4.37V76.51c0-2.43 1.96-4.37 4.41-4.37s4.41 1.94 4.41 4.37v38.83c0 2.38-1.96 4.37-4.41 4.37ZM97.09 108c-2.45 0-4.41-1.94-4.41-4.37V86.72c0-2.43 1.96-4.37 4.41-4.37s4.41 1.94 4.41 4.37v16.91c0 2.43-1.96 4.37-4.41 4.37Zm41.84 0c-2.45 0-4.41-1.94-4.41-4.37V86.72c0-2.43 1.96-4.37 4.41-4.37s4.41 1.94 4.41 4.37v16.91c-.05 2.43-2.01 4.37-4.41 4.37Zm-62.49-5.2c-2.45 0-4.41-1.94-4.41-4.37V94.4c0-2.43 1.96-4.37 4.41-4.37s4.41 1.94 4.41 4.37v4.03c0 2.38-2.01 4.37-4.41 4.37Zm83.39 0c-2.45 0-4.41-1.94-4.41-4.37V94.4c0-2.43 1.96-4.37 4.41-4.37s4.41 1.94 4.41 4.37v4.03c0 2.38-1.96 4.37-4.41 4.37Z"/><g class="cls-14"><path class="cls-3" d="M200.79 205.74c-.29-.29-.49-.73-.49-1.17l.1-6.03c0-.92.78-1.65 1.72-1.65s1.67.78 1.67 1.7l-.05 4.37 4.41.05c.93 0 1.67.78 1.67 1.7s-.78 1.65-1.72 1.65l-6.08-.1c-.49-.05-.88-.24-1.23-.53Zm-15.4-3.89c-.29-.34-.49-.73-.49-1.17l.1-6.03c0-.92.78-1.65 1.72-1.65s1.67.78 1.67 1.7l-.05 4.37 4.41.05c.93 0 1.67.78 1.67 1.7s-.78 1.65-1.72 1.65l-6.08-.1c-.49-.05-.88-.24-1.23-.53Zm18.88 19.25c-.29-.34-.49-.73-.49-1.17l.1-6.03c0-.92.78-1.65 1.72-1.65s1.67.78 1.67 1.7l-.05 4.37 4.41.05c.93 0 1.67.78 1.67 1.7s-.78 1.65-1.72 1.65l-6.08-.1c-.49-.05-.88-.19-1.23-.53Z"/></g><g class="cls-14"><path class="cls-3" d="M34.51 206.66c.29-.29.49-.73.49-1.17l-.1-6.03c0-.92-.78-1.65-1.72-1.65s-1.67.78-1.67 1.7l.05 4.37-4.41.05c-.93 0-1.67.78-1.67 1.7s.78 1.65 1.72 1.65l6.08-.1c.49-.05.93-.24 1.23-.53Zm15.4-3.89c.29-.34.49-.73.49-1.17l-.1-6.03c0-.92-.78-1.65-1.72-1.65s-1.67.78-1.67 1.7l.05 4.37-4.41.05c-.93 0-1.67.78-1.67 1.7s.78 1.65 1.72 1.65l6.08-.1c.49-.05.93-.19 1.23-.53Zm-18.88 19.25c.29-.34.49-.73.49-1.17l-.1-6.03c0-.92-.78-1.65-1.72-1.65s-1.67.78-1.67 1.7l.05 4.37-4.41.05c-.93 0-1.67.78-1.67 1.7s.78 1.65 1.72 1.65l6.08-.1c.49 0 .93-.19 1.23-.53Z"/></g></g></svg>