<svg id="Layer_2" data-name="Layer 2" xmlns="http://www.w3.org/2000/svg" viewBox="0 0 214.62 232.4"><defs><style>.cls-1{fill:#603e26}.cls-1,.cls-3,.cls-5,.cls-6{stroke-width:0}.cls-3{fill:#fff}.cls-5{fill:#3a2109}.cls-6{fill:#f19028}</style></defs><g id="Layer_2-2" data-name="Layer 2"><path class="cls-6" d="M166.03 3.64c.12 1.06.21 2.08.27 3.06.08 1.25.02 2.32-.18 3.19-.87 3.78-2.77 7.41-5.69 10.89-3.97 4.72-12.08 10.88-18.66 9.36-2.06-.48-3.52-1.49-4.36-3.04-1.05-1.91-1.31-4.07-.78-6.48 1.47-6.66 5.55-12.33 12.26-17.02 4.9-3.43 9.69-4.41 14.38-2.95l2.75 2.99Z"/><ellipse class="cls-6" cx="202.5" cy="81.79" rx="14.58" ry="7.31" transform="rotate(-40 202.485 81.788)"/><path class="cls-6" d="M205.23 106.98c-4.02-.89-8.13-.5-12.32 1.15-5.84 2.3-12.29 4.92-19.36 7.87-3.7 1.54-7.02 2.23-9.96 2.06-3.33-.2-5.93-1.7-7.79-4.51-1.54-2.32-2.02-5-1.45-8.03.53-2.84 1.73-5.64 3.58-8.39 3.28-4.84 7.08-9.71 11.43-14.6 4.12-4.64 6.19-6.97 6.21-7 5.45-6.65 8.63-10.68 9.56-12.08 1.96-2.99 3.47-5.88 4.52-8.67.51-1.36.84-3.15.98-5.37.11-1.79-.3-3.52-1.24-5.2-1.84-3.31-4.55-5.19-8.13-5.66-2.29-.3-5.28.21-8.96 1.54-3.86 1.39-7.71 3.33-11.56 5.82-14.54 9.41-24.3 15.71-29.28 18.91-4.13 2.65-8.4 4.63-12.8 5.93-2.75.81-5.3.67-7.65-.43-2.85-1.32-4.32-4.39-5.02-7.4-.48-2.08-.39-4.11.27-6.1.66-2 1.52-3.9 2.58-5.7.84-1.43 3.56-5.85 8.17-13.28 2.33-3.75 3.18-7.75 2.55-11.99-.55-3.7-3.57-8.12-7.66-8.87-4.68-.85-10.32 1.03-14.71 3.06-11.8 5.47-21.87 13.07-32.07 21.56-8.37 6.97-16.32 14.03-23.82 21.18-3.53 3.36-7.51 7.51-11.95 12.45-6.5 7.24-10.28 11.57-11.33 12.98-2.91 3.9-5.45 7.61-7.63 11.12-4 6.45-6.95 13.6-8.84 21.45C.53 124.98.01 129.3 0 133.77c-.04 9.37 1.6 18.43 4.92 27.18 3.51 9.27 8.19 17.55 14.04 24.83 0 0 22.22 25.72 23.83 27.09 6.02 5.09 12.9 9.47 20.65 13.12 10.56 4.99 21.47 7.06 32.72 6.22 11.28-.83 22.5-4.23 33.66-10.19 10.74-5.74 20.98-13.24 30.72-22.52 16.62-15.82 30.25-33.76 40.89-53.8 2.86-5.38 5.38-10.78 7.54-16.19 1.8-4.49 3.07-9.58 3.25-14.58.13-3.91-3.71-7.24-6.99-7.96Z"/><path d="M12.59 132.45c1.1-20.64 15.65-37.81 29.97-52.73A884.788 884.788 0 0 1 90.2 33.66c2.67-2.4 5.49-4.85 8.94-5.82s7.74 0 9.45 3.16c1.65 3.03.38 6.93-1.85 9.57s-5.28 4.43-7.89 6.69c-4.46 3.86-7.71 9.27-8.38 15.13s1.4 12.11 5.86 15.97c6.12 5.29 15.45 5.29 22.95 2.25s13.64-8.59 19.83-13.8 12.85-10.32 20.72-12.18c4.52-1.07 10.46-.23 11.98 4.15 1.25 3.6-1.26 7.35-3.8 10.21-5.27 5.92-11.25 11.19-16.31 17.29s-9.24 13.28-10.02 21.17 2.49 16.51 9.39 20.42c8.8 4.99 20.07 1 28.27-4.93 3.12-2.26 6.16-4.84 9.87-5.86s8.39.13 9.95 3.65c1.38 3.11-.1 6.67-1.59 9.73-10.56 21.62-22.95 42.75-40.19 59.54s-39.89 29.01-63.94 29.87c-16.32.58-33.07-4.67-45.78-15.01-6.22-5.06-26.4-33.11-30.48-41.32-4.71-9.47-5.15-20.41-4.58-31.09Z" style="fill:#df552c;stroke-width:0"/><path d="M72.96 207.39c-4.51-1.13-6.38-6.01-10.89-6.76-1.88-.38-3.75-.75-5.26-1.13-3-.75-6.01-.75-9.01-.75-1.88 0-5.26-2.63-6.76-3.75-1.88-1.13-2.25-2.63-3.38-4.88-1.13-2.63-1.88-4.13-2.25-4.88-1.5-3.75 1.88-8.26.38-12.39-1.13-3-4.51-4.13-5.63-7.13-1.5-3.38.38-7.13-1.13-10.89-1.13-3-3-6.01-2.63-9.39.75-6.38 1.13-13.14 1.5-19.52v-5.26c0-2.63-.75-5.63.38-7.88 1.5-3 2.63-5.63 3.75-8.64s1.5-4.88 4.51-6.38c3-1.88 4.51-2.25 6.01-5.26 1.13-2.63 2.25-6.76 4.88-8.26 3-1.88 6.01-4.13 9.39-5.26 4.13-1.13 7.13-2.63 10.51-1.5 3.38 1.5 6.76 3.75 10.51 2.25 3-1.13 6.01-1.88 9.01-2.63 2.63-.38 6.01-1.13 8.64-.75 2.25.38 4.51.75 6.38.75 2.63.38 5.63 1.88 8.26 3 1.5.75 2.25 1.13 3 1.88 1.5 1.88 3 3.75 4.88 5.63 1.5 1.88 5.26 3.38 7.51 4.51s4.51 3.38 6.38 5.26c3 2.63 5.26 6.01 7.88 9.01.38.38.75.75 1.5 1.13 2.63 1.13 6.01.38 8.64 2.25 2.25 1.5 3.38 3 4.51 3.75 1.5 1.5 1.5 4.51 2.25 6.76.75 3 .38 4.88 0 7.88-.38 4.13 3 5.26 4.13 8.26 1.88 4.88-2.25 6.38-2.63 10.89 0 1.5-.38 3.38-.38 4.88-.38 4.51 2.25 7.13.38 10.89-1.88 3.38-3.38 6.38-5.26 9.76-2.25 3.75-6.38 7.13-9.76 10.14-2.25 1.88-4.13 4.13-6.01 6.01-1.5 1.88-4.51 2.63-6.38 3-1.88.38-3 1.13-4.13 2.25l-8.26 8.26c-2.25 2.25-4.13 4.51-6.01 6.76-1.5 1.88-4.51 3-6.76 3.75-3.38 1.13-5.26-.75-7.88-1.13-4.51-1.13-7.13 3.75-12.02.38-1.88-1.13-4.13-3-6.38-3.75-2.63 0-4.51-.38-6.38-1.13ZM62.82 89.49c-2.63-2.25-10.14 1.5-16.9 8.64-6.76 7.13-10.14 15.02-7.88 17.27 2.63 2.25 10.14-1.5 16.9-8.64 6.76-7.13 10.51-15.02 7.88-17.27Zm27.03 51.06c6.76 5.63 17.65 3.75 24.41-4.13 6.38-7.88 6.01-19.15-.75-24.78-6.76-5.63-17.65-3.75-24.41 4.13-6.38 8.26-6.01 19.15.75 24.78Zm51.44 13.89c4.51.75 9.39-4.51 10.14-11.26 1.13-7.13-1.88-13.14-6.38-13.89s-9.39 4.51-10.14 11.26c-1.5 6.76 1.5 13.14 6.38 13.89Zm-95.75 16.15c4.13 1.88 9.76-1.13 12.77-7.13 3-6.01 2.25-12.39-1.88-14.64-4.13-1.88-9.76 1.13-12.77 7.13-3 6.38-2.25 12.77 1.88 14.64Zm70.21 10.14c-3-2.63-8.64-1.5-12.77 3-4.13 4.51-5.26 10.14-2.25 12.77 3 2.63 8.64 1.5 12.77-3 4.13-4.51 5.26-10.14 2.25-12.77Zm-37.17 18.4c1.13 1.13 3 .75 4.13-.75s1.13-3 0-4.13-3-.75-4.13.75a2.94 2.94 0 0 0 0 4.13Z" style="fill:#805333;stroke-width:0"/><ellipse class="cls-1" cx="50.5" cy="102.61" rx="18.02" ry="6.38" transform="rotate(-46.64 50.495 102.6)"/><ellipse class="cls-1" cx="101.68" cy="126.1" rx="18.77" ry="16.15" transform="rotate(-50.93 101.7 126.1)"/><ellipse class="cls-1" cx="143.1" cy="141.87" rx="12.77" ry="8.64" transform="rotate(-81.44 143.09 141.872)"/><ellipse class="cls-1" cx="50.87" cy="159.98" rx="15.19" ry="10.44" transform="rotate(-63.84 50.864 159.976)"/><ellipse class="cls-1" cx="108.25" cy="188.61" rx="10.89" ry="7.13" transform="rotate(-46.73 108.257 188.625)"/><ellipse class="cls-1" cx="80.66" cy="196.69" rx="3.49" ry="3.05" transform="rotate(-50.93 80.662 196.7)"/><ellipse class="cls-5" cx="55.49" cy="150.13" rx="8.41" ry="14.34" transform="rotate(-35.75 55.48 150.114)"/><ellipse class="cls-5" cx="99.42" cy="118.5" rx="8.42" ry="14.35" transform="rotate(-35.75 99.398 118.492)"/><ellipse class="cls-5" cx="100.32" cy="162.76" rx="8.42" ry="10.04" transform="rotate(-35.75 100.304 162.756)"/><path class="cls-3" d="m63.57 157.39-.15.56c-.07.19-.14.36-.22.51-.41.83-1.03 1.47-1.86 1.9-.53.28-1.09.43-1.67.47-1.31.07-2.55-.42-3.42-1.39a4.225 4.225 0 0 1 .34-6c.53-.47 1.13-.78 1.81-.94.79-.19 1.57-.16 2.33.1.97.33 1.76.95 2.28 1.82.47.78.67 1.64.6 2.58 0 .12-.04.26-.05.4ZM106.99 125.38l-.15.56c-.07.19-.14.36-.22.51-.41.83-1.03 1.47-1.86 1.9-.53.28-1.09.43-1.67.47-1.31.07-2.55-.42-3.42-1.39a4.225 4.225 0 0 1 .34-6c.53-.47 1.13-.78 1.81-.94.79-.19 1.57-.16 2.33.1.97.33 1.76.95 2.28 1.82.47.78.67 1.64.6 2.58 0 .12-.04.26-.05.4Z"/></g></svg>