<svg id="Layer_2" data-name="Layer 2" xmlns="http://www.w3.org/2000/svg" viewBox="0 0 233.08 229.38"><defs><style>.cls-1{fill:#0e0f10}.cls-1,.cls-3,.cls-4{stroke-width:0}.cls-3{fill:#e9f7fe}.cls-4{fill:#282b30}</style></defs><g id="Layer_6" data-name="Layer 6"><path class="cls-3" d="M229.74 149.53c-5.79 11.03-19.3 16.73-24.01 28.26-2.82 6.88-2.04 14.91-5.28 21.6-4.42 9.1-14.86 13.27-24.39 16.65-19.05 6.76-38.6 13.6-58.81 13.33-14.07-.19-27.61-3.79-40.72-9.01-12.19-4.83-24.02-11.05-35.57-17.21-7.45-3.97-15.41-8.47-18.81-16.19-4.56-10.32.67-22.47-1.63-33.51C17.12 137.18-1.98 125.48.17 109c1.46-11.16 12.48-19.02 14.72-30.05 1.8-8.83-2.32-18.49 1.22-26.77 2.17-5.07 6.82-8.57 11.27-11.83 11.3-8.29 22.6-16.57 33.91-24.86 7.42-5.44 15.18-10.91 23.96-13.93 7.78-2.67 12.47-1.5 19.91.41l.39.09c8.2 1.96 17.63.15 26.04.71 9.23.62 18.45 2.24 27.04 5.75 8.41 3.43 16 8.55 23.52 13.63 6.54 4.41 13.13 8.86 18.72 14.43 4.13 4.11 7.66 8.79 11.29 13.36 3.08 3.9 6.26 7.76 8.57 12.16 3.88 7.37 5.11 15.8 6.29 24.04 1.57 11.05 3.15 22.1 4.72 33.14 1.45 10.18 2.78 21.15-2 30.25Z"/><path d="M229.74 149.53c-5.11 9.74-16.24 15.32-22.01 24.43a24 24 0 0 0-2 3.83c-2.82 6.88-2.04 14.91-5.28 21.6-4.42 9.1-14.86 13.27-24.39 16.65-19.05 6.76-38.6 13.6-58.81 13.33-14.07-.19-27.61-3.79-40.72-9.01-33.25-22.67-54.92-59.77-54.92-101.68 0-53.14 34.83-98.54 83.94-116.62 8.2 1.96 17.63.15 26.04.71 9.23.62 18.45 2.24 27.04 5.75 8.41 3.43 16 8.55 23.52 13.63 6.54 4.41 13.13 8.86 18.72 14.43 4.13 4.11 7.66 8.79 11.29 13.36 3.08 3.9 6.26 7.76 8.57 12.16 3.88 7.37 5.11 15.8 6.29 24.04 1.57 11.05 3.15 22.1 4.72 33.14.31 2.18.61 4.39.85 6.62.89 8.17.91 16.48-2.85 23.63Z" style="fill:#fbfdff;stroke-width:0"/><path class="cls-3" d="M122.27 35.05c.67 5.09 7.74 6.55 10.18 11.06 3.68 6.78-4.98 15.58-1.38 22.41 2.12 4.03 7.74 5.03 12.03 3.51s7.64-4.87 11.02-7.93 7.25-6.02 11.79-6.44c6.83-.64 13.86 4.61 20.16 1.9 5.22-2.24 6.95-9.34 4.83-14.62s-7.02-8.91-12.09-11.49c-10.69-5.45-21.96-6.54-33.75-5.63-5.93.46-24.17-3.2-22.8 7.23ZM106.03 156.23c4.13-2.32 6.8-6.51 10.02-9.98s7.85-6.49 12.44-5.31c7.67 1.98 8.44 13.01 14.61 17.97 3.58 2.88 8.46 3.31 12.97 4.16s9.44 2.68 11.31 6.87c2.52 5.67-1.87 11.85-5.99 16.49l-10.71 12.09c-3.69 4.17-8.1 8.68-13.67 8.64-4.35-.03-8.18-2.92-11.08-6.17s-5.27-7.01-8.64-9.77c-5.91-4.83-13.66-5.64-21.01-5.52-6.29.1-12.79-.04-16.08-6.45-2.94-5.72-.24-12.35 4.52-16.15 6.18-4.93 14.63-3.13 21.29-6.88ZM49.46 37.83c-9.43 4.06-17.27 11.7-21.56 21.03-2.39 5.19-3.72 10.96-3.13 16.64.58 5.54 2.91 10.72 5.22 15.78 2.37 5.2 4.9 10.62 9.42 14.12s11.66 4.33 15.67.26c5.03-5.12 2.53-14.41 7.02-20 4.3-5.34 12.96-4.92 17.84-9.74 7.27-7.18 3.72-26.22.02-34.63-4.81-10.92-21.97-7.1-30.5-3.46ZM229.74 149.53c-5.11 9.74-16.24 15.32-22.01 24.43-.47-.25-.94-.52-1.4-.81-3.7-2.31-6.84-5.82-7.8-10.07-1.04-4.61.62-9.5 3.36-13.34 2.75-3.84 6.51-6.82 10.22-9.75 6.5-5.14 13.07-10.31 20.48-14.09.89 8.17.91 16.48-2.85 23.63Z"/><path class="cls-1" d="m174.04 166.56-1.49-7.87c-.19-1.05-.79-1.74-1.81-2.08l-10.69-3.53c-.61-.21-1.08-.04-1.41.5-1.04 1.67-1.61 3.16-1.72 4.46-.16 2.07-1.09 2.5-2.79 1.31-4.33-3.01-7.24-2.05-8.73 2.9-.58 1.93-1.7 2.33-3.36 1.2-1.39-.95-3.65-1.46-6.78-1.53-.67-.03-1.22.23-1.63.76-2.86 3.72-4.41 7.42-4.66 11.1-.04.5.1 1 .4 1.42l8.02 11.97c.2.32.63.39 1.29.2.71-.2 3.53-1.72 8.46-4.55 1.35-.77 1.94-1.53 1.74-2.28-.14-.58-.51-.86-1.12-.83-.48.03-.77.03-.86 0-1.22-.37-1.14-.62.25-.75 3.6-.35 7.2-.11 10.81.71 1.07.25 2.16-.34 2.53-1.37 1.03-2.95 1.42-5.19 1.16-6.71-.4-2.35.18-2.61 1.75-.77 2.28 2.7 5.5 3.15 7.94.17 1.14-1.38 1.91-2.33 2.3-2.84.38-.46.52-.99.41-1.59ZM112.37 162.14c-.89-2.83-1.47-4.53-1.74-5.09-.69-1.37-2.06-2.05-4.1-2.03-1.3.01-2.57.56-3.83 1.64-2.48 2.13-4.09 5.44-4.82 9.92-.24 1.43 0 3.08.7 4.94.98 2.6 1.59 4.2 1.83 4.79.45 1.09 1.17 1.3 2.14.65 3.88-2.59 6.92-5.17 9.14-7.73 1.86-2.18 1.48-4.62.68-7.11ZM127.85 172.67c-.49-1.5-.92-3.26-1.29-5.28-.12-.67-.5-1.13-1.13-1.4-1.84-.79-4.13-1.18-6.87-1.16-4.22.02-7.01 6.85-8.4 10.55-.55 1.48-.72 2.55-.51 3.22.23.67 1 1.43 2.31 2.3 3.3 2.17 9.58 6.04 12.99 3.57 2.23-1.6 3.85-3.27 4.88-4.99.34-.59.36-1.18.06-1.79-.88-1.86-1.56-3.54-2.05-5.02ZM120.68 97.7c-1.4-4.75-3.59-9.71-6.57-14.88-2.06-3.57-5.18-6.85-9.36-9.86-6.33-4.57-10.28-7.23-11.86-7.96-7.03-3.3-12.89-5.16-17.59-5.6-3.22-.29-6.92.85-11.1 3.44-6.93 4.48-12.37 10.24-16.33 17.27-3.53 6.3-6.91 14.04-5.08 21.16 2.95 11.46 8.31 23 16.08 34.63.53.79 1.74 1.61 3.63 2.46.9.41 2.23.59 3.97.53 7.22-.23 14.43-.27 21.64-.13 8 .31 15.99.55 19.48-5.48 4.02-6.91 7.67-15.07 10.92-24.47 1.96-5.63 2.68-9.33 2.16-11.12Z"/><path class="cls-4" d="M55.85 96.87c.38-4.6 2.62-8.81 4.82-12.87 2.33-4.31 4.68-8.66 7.77-12.47 1.87-2.31 4.39-4.56 7.35-4.4 2.67.14 4.8 2.19 6.67 4.12 2.92 3.02 5.87 6.07 8.09 9.64 4.45 7.16 5.66 15.8 6.76 24.16.4 3.04.8 6.16.1 9.15-.93 4-3.92 7.46-7.74 8.96-3.01 1.19-6.34 1.18-9.58 1.16-4.12-.03-8.41-.09-12.06-2-4.22-2.21-5.82-6.34-7.95-10.3-2.5-4.63-4.66-9.76-4.22-15.14Z"/><path class="cls-4" d="M94.8 74.51c3.91 2.23 7.84 4.48 11.31 7.35s6.48 6.43 8.07 10.64c1.71 4.52 1.68 9.55.75 14.29s-2.73 9.26-4.52 13.75c-.72 1.79-1.43 3.59-2.15 5.38-1.25 3.13-2.62 6.42-5.33 8.41-3.74 2.75-8.87 2.26-13.47 1.65-.77-.1-1.57-.22-2.22-.64s-1.1-1.27-.82-1.99c.34-.9 1.48-1.13 2.43-1.33 5.43-1.15 9.56-5.85 11.54-11.03 1.99-5.18 2.2-10.85 2.38-16.4.12-3.67.23-7.45-1.05-10.88-1.1-2.94-3.14-5.42-5.14-7.84-3.51-4.24-7.55-8.35-10.66-12.88-1.19-1.74-.86-3.21 1.61-2.61s5.15 2.94 7.27 4.16Z"/><path class="cls-1" d="M151.18 76.17c3.39-3 7.77-6.58 13.14-10.73 3.88-2.99 7.33-4.83 10.33-5.5 3.72-.84 7.64-1.43 11.76-1.76.67-.05 1.18.22 1.51.8a213.721 213.721 0 0 1 15.41 33.27c.69 1.87 2.48 4.18 1.22 6.42-5.19 9.21-11.71 17.02-19.54 23.43-3.43 2.8-5.79 4.33-7.1 4.58-9.24 1.83-17.58-.21-25.02-6.13a6.29 6.29 0 0 1-2.18-3.34c-2.88-11.04-8.73-32.89.46-41.04Z"/><path class="cls-4" d="M182.36 115.39c3.42-.82 6.73-2.73 8.46-5.8 1.64-2.92 1.66-6.45 1.44-9.79a91.085 91.085 0 0 0-5.04-24.64c-.89-2.52-1.97-5.11-4.01-6.83-3.59-3.01-9.01-2.42-13.32-.59-8.23 3.49-14.58 10.88-17.31 19.39-2.73 8.51-1.95 17.99 1.62 26.18.76 1.73 1.78 3.54 3.54 4.21 2.24.84 4.41-.45 6.45-1.23s4.05-1.07 6.27-.83c4.04.44 7.84.9 11.89-.08ZM107.18 163.8c.31-.66.61-1.32.92-1.98.13-.29.3-.6.6-.68.27-.07.56.07.74.29s.26.49.35.76c.29.95.59 1.99.26 2.93-.22.62-.68 1.12-1.17 1.55-.5.44-2.81 2.35-3.35 1.39-.28-.5.43-1.54.63-2 .34-.76.69-1.51 1.04-2.26ZM107.2 170.61l1.07-1.13c.18-.19.43-.39.66-.26.15.08.2.27.16.44s-.14.3-.24.43c-.37.5-.75.99-1.12 1.49-.18.24-.43.51-.72.43-.24-.06-.36-.34-.33-.58s.17-.45.31-.66M121.83 177.75c-.77-.28-1.59-.88-1.53-1.7.03-.39.25-.73.4-1.09.59-1.45-.07-3.11.22-4.65.14-.77.62-1.56 1.39-1.71.82-.16 1.58.47 2.09 1.13.6.78 1.02 1.92.45 2.72-.31.43-.84.66-1.14 1.1-.36.54-.27 1.27-.04 1.88s.6 1.17.76 1.8c.17.65.16 1.61-.62 1.38-.63-.18-1.33-.64-1.97-.88ZM126.14 175.03c-.21-.21-.61-.11-.76.14s-.1.6.07.84c.19.29.55.48.89.44s.65-.36.65-.71-.37-.66-.71-.58M127.82 177.47c-.42.11-.86.23-1.17.52s-.43.84-.14 1.16c.32.35.96.2 1.22-.2s.21-.93.03-1.37M136.67 166.37c0-.6.03-1.27.47-1.67.34-.31.86-.37 1.29-.22s.77.51.99.91c.51.97.32 2.15.63 3.2.27.9.94 1.68 1.79 2.09.62.3 1.37.4 2.01.14s1.13-.94 1.05-1.62c.41.07.72.45.82.85s.05.83 0 1.25c-.16 1.18-.32 2.36-.47 3.54-.14 1.07-.44 2.33-1.45 2.7-.71.26-1.52-.07-2.03-.63s-.75-1.3-.91-2.03-.26-1.49-.53-2.19c-.5-1.29-1.53-2.18-2.78-2.7-.52-.22-.77-.24-.88-.83-.17-.85 0-1.92 0-2.79ZM149.29 164.25c.51.71 1.02 1.45 1.18 2.31.1.55.04 1.12.14 1.67.16.9.73 1.66 1.28 2.38.75.99 1.5 1.97 2.24 2.96.37.49.76.99 1.29 1.3s1.25.38 1.74.01c.56-.43.62-1.26.43-1.94s-.59-1.28-.78-1.96c-.22-.76-.18-1.57-.13-2.35l.12-2.15c.04-.7.08-1.42-.14-2.1-.39-1.25-1.56-2.09-2.77-2.6-1.73-.73-3.66-.97-5.53-1.04-1.05-.04-1.36.25-.73 1.14.55.78 1.11 1.56 1.66 2.34ZM160.87 160.63a7.324 7.324 0 0 0 3.01 3.81c.33.21.69.39 1.08.42s.81-.12 1.01-.46c.28-.48 0-1.11-.38-1.51s-.88-.72-1.16-1.21c-.67-1.19.31-2.65.17-4.01-.08-.81-.6-1.57-1.33-1.93-.5-.25-1.1-.32-1.64-.2-.73.16-.8.45-.96 1.15a7.33 7.33 0 0 0 .2 3.94ZM166.94 161.04c.26.45.6.87.82 1.35s.31 1.06.06 1.52c-.21.39-.65.72-.59 1.16.05.38.51.6.88.5s.62-.46.71-.83.05-.76 0-1.14c-.22-1.65-.49-4.21-1.52-5.59-.52-.7-.94-.23-1.04.5-.12.83.25 1.82.66 2.53Z"/></g></svg>