<?xml version="1.0" encoding="UTF-8"?>
<svg id="Layer_2" data-name="Layer 2" xmlns="http://www.w3.org/2000/svg" viewBox="0 0 672.71 793.35">
  <defs>
    <style>
      .cls-1 {
        fill: #b53128;
      }

      .cls-1, .cls-2, .cls-3, .cls-4, .cls-5, .cls-6 {
        stroke-width: 0px;
      }

      .cls-2 {
        fill: #ca9b98;
      }

      .cls-3 {
        fill: #fff;
      }

      .cls-4 {
        fill: #f1f2f2;
      }

      .cls-5 {
        fill: #d8aba9;
      }

      .cls-6 {
        fill: #aa2d25;
      }
    </style>
  </defs>
  <g id="Layer_1-2" data-name="Layer 1">
    <g>
      <path class="cls-5" d="m517.61,226.69c0,85.17-47.67,159.37-118.14,198.12-33.13,18.21-71.29,28.59-111.92,28.59s-78.79-10.37-111.92-28.59c-18.68-10.26-35.76-23.02-50.76-37.81-41.64-41.03-67.38-97.71-67.38-160.31C57.49,101.5,160.49,0,287.55,0s230.06,101.5,230.06,226.69Z"/>
      <path class="cls-5" d="m575.1,581.62v211.73H0v-211.73c0-86.6,70.2-156.8,156.8-156.8h261.49c86.6,0,156.8,70.2,156.8,156.8Z"/>
      <path class="cls-2" d="m575.1,581.62v211.73h-287.55V0c127.06,0,230.06,101.5,230.06,226.69,0,85.17-47.67,159.37-118.14,198.12h18.83c86.6,0,156.8,70.2,156.8,156.8Z"/>
    </g>
    <path class="cls-1" d="m638.59,577.91l-169.97,166.9c-46.09-46.94-45.4-122.35,1.53-168.44,46.94-46.09,122.35-45.4,168.44,1.54Z"/>
    <path class="cls-6" d="m637.05,746.34c-46.93,46.09-122.34,45.4-168.43-1.54l15.64-15.36,5.92,6.03c4.07,4.14,10.73,4.21,14.87.14l48.31-47.44,47.43,48.3c4.07,4.14,10.73,4.21,14.87.14l12.05-11.83c4.14-4.07,4.21-10.73.14-14.87l-47.43-48.3,48.31-47.44c4.14-4.07,4.21-10.73.14-14.87l-5.92-6.03,15.64-15.36c46.09,46.93,45.4,122.34-1.54,168.44Z"/>
    <path class="cls-3" d="m567.14,648.07l-27.06,26.57-60.72-61.84c-4.07-4.14-4.01-10.81.14-14.87l12.05-11.83c4.14-4.07,10.81-4.01,14.87.14l60.72,61.84Z"/>
    <path class="cls-4" d="m627.72,724.78l-12.05,11.83c-4.14,4.07-10.81,4.01-14.87-.14l-47.43-48.3,27.06-26.57,47.43,48.3c4.07,4.14,4.01,10.81-.14,14.87Z"/>
    <path class="cls-4" d="m628.73,614.17l-48.31,47.44-13.29-13.53,55.81-54.81,5.92,6.03c4.07,4.14,4.01,10.81-.14,14.87Z"/>
    <rect class="cls-4" x="541.29" y="658.64" width="37.92" height="18.96" transform="translate(-307.61 583.93) rotate(-44.48)"/>
    <path class="cls-4" d="m553.37,688.17l-48.31,47.44c-4.14,4.07-10.81,4.01-14.87-.14l-5.92-6.03,55.81-54.81,13.29,13.53Z"/>
    <path class="cls-3" d="m622.95,593.27l-138.69,136.18-5.92-6.03c-4.07-4.14-4.01-10.81.14-14.87l123.67-121.44c4.14-4.07,10.81-4.01,14.87.14l5.92,6.03Z"/>
  </g>
</svg>