<svg id="Layer_2" data-name="Layer 2" xmlns="http://www.w3.org/2000/svg" viewBox="0 0 575.1 793.35"><defs><style>.cls-1{fill:#d8870b;stroke-width:0}</style></defs><g id="Layer_1-2" data-name="Layer 1"><path class="cls-1" d="M517.61 226.69c0 85.17-47.67 159.37-118.14 198.12-33.13 18.21-71.29 28.59-111.92 28.59s-78.79-10.37-111.92-28.59A230.098 230.098 0 0 1 124.87 387c-41.64-41.03-67.38-97.71-67.38-160.31C57.49 101.5 160.49 0 287.55 0s230.06 101.5 230.06 226.69Z"/><path class="cls-1" d="M575.1 581.62v211.73H0V581.62c0-86.6 70.2-156.8 156.8-156.8h261.49c86.6 0 156.8 70.2 156.8 156.8Z"/><path d="M575.1 581.62v211.73H287.55V0c127.06 0 230.06 101.5 230.06 226.69 0 85.17-47.67 159.37-118.14 198.12h18.83c86.6 0 156.8 70.2 156.8 156.8Z" style="fill:#ca8214;stroke-width:0"/></g></svg>