<svg id="Layer_2" data-name="Layer 2" xmlns="http://www.w3.org/2000/svg" viewBox="0 0 250.04 240.19"><defs><style>.cls-10,.cls-11,.cls-12,.cls-13,.cls-2,.cls-3,.cls-4,.cls-5,.cls-6,.cls-7,.cls-8,.cls-9{fill:none;stroke-width:2px}.cls-2{stroke:#dd8825}.cls-3{stroke:#d38c37}.cls-4{stroke:#fbc050}.cls-5{stroke:#e09637}.cls-6{stroke:#ffd76b}.cls-7{stroke:#e4ac52}.cls-8{stroke:#e4a142}.cls-9{stroke:#bd6d29}.cls-10{stroke:#f4a733}.cls-14{fill:#b06328}.cls-14,.cls-15,.cls-16,.cls-17,.cls-18,.cls-19{stroke-width:0}.cls-15{fill:#ffcb5b}.cls-11{stroke:#d17e24}.cls-12{stroke:#f8b23e}.cls-16{fill:#f6b545}.cls-17{fill:#ffe27a}.cls-18{fill:#c97629}.cls-13{stroke:#fbcc60}.cls-19{fill:#f19920}</style></defs><g id="Layer_1-2" data-name="Layer 1"><path class="cls-3" d="M165.51 45.87c-.25.05-.54.06-.88.01" vector-effect="non-scaling-stroke"/><path d="m164.63 45.88-15.54.02" vector-effect="non-scaling-stroke" style="fill:none;stroke-width:2px;stroke:#d89742"/><path class="cls-9" d="m149.09 45.9-.57-.17c-.36-.1-.42-.29-.19-.58 6.13-7.73 12.28-15.46 18.44-23.18 2.74-3.43 4.32-7.2 3.27-11.27-.18-.7-.43-1.9-.74-3.61-.49-2.64 1.26-4.51 2.32-6.64" vector-effect="non-scaling-stroke"/><path class="cls-8" d="m149.09 45.9-2.33.05" vector-effect="non-scaling-stroke"/><path class="cls-7" d="m146.76 45.95-27.45-.09" vector-effect="non-scaling-stroke"/><path class="cls-6" d="M146.76 45.95c.92 1.15 1.15 2.38.7 3.69-.58 1.69-1.8 1.83-3.42 1.84-7.33 0-16.33.01-27 .02-2.97 0-4-1.73-3.07-5.2" vector-effect="non-scaling-stroke"/><path class="cls-4" d="M164.63 45.88c.63 4.3-.13 8.02-2.28 11.17" vector-effect="non-scaling-stroke"/><path class="cls-12" d="m162.35 57.05-12.86.19" vector-effect="non-scaling-stroke"/><path class="cls-4" d="M149.49 57.24H108.5" vector-effect="non-scaling-stroke"/><path class="cls-10" d="M170.32 62.53c.2-1.31.19-2.41-.03-3.32a2.537 2.537 0 0 0-2.35-1.92l-5.59-.24" vector-effect="non-scaling-stroke"/><path class="cls-11" d="M165.25 63.22h-16.47c-.33 0-.54.15-.63.47-.36 1.41-.43 2.95-.21 4.62" vector-effect="non-scaling-stroke"/><path class="cls-2" d="m147.94 68.31-.07 34.71" vector-effect="non-scaling-stroke"/><path class="cls-10" d="m147.87 103.02-4.45-.18c-.73-.03-1.31-.64-1.31-1.37V69.22c0-.33-.17-.52-.5-.57-1.77-.27-3.49-.18-5.16.27" vector-effect="non-scaling-stroke"/><path class="cls-2" d="M136.45 68.92c.02-.37-.06-.63-.25-.78" vector-effect="non-scaling-stroke"/><path class="cls-11" d="M136.2 68.14v-5.06" vector-effect="non-scaling-stroke"/><path class="cls-10" d="m136.2 63.08 12.32-.04c.23 0 .41-.18.41-.41 0-.1-.04-.2-.1-.28-1.59-1.85-1.37-3.55.66-5.11" vector-effect="non-scaling-stroke"/><path class="cls-3" d="m136.2 63.08-17.15.03" vector-effect="non-scaling-stroke"/><path class="cls-9" d="m136.2 68.14-22.47.38" vector-effect="non-scaling-stroke"/><path class="cls-11" d="M46.18 239.25c-6.74-2.34-10.62-6.38-11.65-12.13" vector-effect="non-scaling-stroke"/><path class="cls-9" d="M34.53 227.12c54.11.07 108.16.06 162.15-.03 6.88-.01 10.78-.11 11.69-.29 4.21-.85 7.55-3.22 10-7.13 2.85-4.53 3.13-9.18.85-13.93-1.01-2.12-3.02-3.54-4.73-5.02-5.01-4.3-8.14-9.72-9.4-16.26-.29-1.49-.37-5.99-.25-13.5.42-27.44-6.56-52.61-23.46-73.63-2.47-3.07-6.59-7.47-12.38-13.22-4.96-4.93-9.95-9.91-14.98-14.94-.29-.29-.68-.47-1.09-.5l-4.99-.36" vector-effect="non-scaling-stroke"/><path class="cls-5" d="M136.45 68.92v34.09" vector-effect="non-scaling-stroke"/><path class="cls-7" d="M136.46 103.01c-13.19 1.87-23.69 8.25-31.48 19.14-5.35 7.46-8.1 15.8-8.25 25.03 0 .33.05.65.18.98" vector-effect="non-scaling-stroke"/><path class="cls-5" d="M96.91 148.16c-.17.13-.25.34-.24.63.45 13.21 5.41 24.2 14.89 32.98.51.47 1.45 1.11 2.83 1.92 1.28.75 2.1 1.61 2.45 2.56" vector-effect="non-scaling-stroke"/><path class="cls-9" d="M116.84 186.25c10.06 10.29 22.28 14.5 36.66 12.62 21.76-2.84 38.93-21.18 39.74-43.43.49-13.63-4.11-24.74-13.81-33.31" vector-effect="non-scaling-stroke"/><path class="cls-5" d="M179.43 122.13c-6.45-8.9-14.95-14.82-25.51-17.75a58.88 58.88 0 0 0-6.05-1.36" vector-effect="non-scaling-stroke"/><path class="cls-2" d="m34.53 227.12-.28-4.58" vector-effect="non-scaling-stroke"/><path class="cls-8" d="m34.25 222.54 1.13-6.11" vector-effect="non-scaling-stroke"/><path class="cls-2" d="m35.38 216.43 2.7-6.12" vector-effect="non-scaling-stroke"/><path class="cls-5" d="m38.08 210.31 1.78-2.95" vector-effect="non-scaling-stroke"/><path class="cls-2" d="m39.86 207.36 9.6-8.34" vector-effect="non-scaling-stroke"/><path class="cls-8" d="m49.46 199.02 3.59-5.15" vector-effect="non-scaling-stroke"/><path class="cls-2" d="m53.05 193.87 2.8-6.52" vector-effect="non-scaling-stroke"/><path class="cls-5" d="M55.85 187.35c.97-4.89 1.37-9.78 1.18-14.67" vector-effect="non-scaling-stroke"/><path class="cls-8" d="M57.03 172.68c.15-.31.19-.89.14-1.74" vector-effect="non-scaling-stroke"/><path class="cls-2" d="m57.17 170.94.21-5.15" vector-effect="non-scaling-stroke"/><path class="cls-5" d="m57.38 165.79 2.15-12.82" vector-effect="non-scaling-stroke"/><path class="cls-8" d="m59.53 152.97 1.05-4.69" vector-effect="non-scaling-stroke"/><path class="cls-2" d="m60.58 148.28 2.73-9.44" vector-effect="non-scaling-stroke"/><path class="cls-5" d="m63.31 138.84 2.87-7.87" vector-effect="non-scaling-stroke"/><path class="cls-8" d="m66.18 130.97 2.12-5.67" vector-effect="non-scaling-stroke"/><path class="cls-3" d="M179.43 122.13c5.22 8.28 7.92 16.95 8.1 26" vector-effect="non-scaling-stroke"/><path class="cls-10" d="m187.53 148.13-5.7.22" vector-effect="non-scaling-stroke"/><path class="cls-4" d="M181.83 148.35c-.28-19.72-13.74-36.02-33.24-39.45-.87-.15-3.02-.36-6.47-.63" vector-effect="non-scaling-stroke"/><path class="cls-13" d="m142.12 108.27-.11-4.82c0-.37-.19-.55-.55-.54l-5 .1" vector-effect="non-scaling-stroke"/><path class="cls-6" d="M142.12 108.27c-11.93.2-21.75 4.47-29.48 12.82-6.69 7.23-10.14 16.02-10.36 26.37 0 .2-.11.44-.31.71" vector-effect="non-scaling-stroke"/><path class="cls-13" d="M101.97 148.17h-5.06" vector-effect="non-scaling-stroke"/><path class="cls-12" d="M181.83 148.35c-.63 15.93-7.7 27.59-21.2 34.98-5.33 2.92-11.44 4.43-18.32 4.53" vector-effect="non-scaling-stroke"/><path class="cls-4" d="M142.31 187.86c-13.79-.23-24.68-5.95-32.69-17.18-4.55-6.38-6.97-13.51-7.24-21.39-.01-.39-.15-.76-.41-1.12" vector-effect="non-scaling-stroke"/><path class="cls-3" d="M116.84 186.25c8.35 4.71 16.74 7.16 25.18 7.35" vector-effect="non-scaling-stroke"/><path class="cls-11" d="M142.02 193.6c3.53.03 6.75-.3 9.66-.98 20.86-4.87 35.85-22.75 35.85-44.49" vector-effect="non-scaling-stroke"/><path class="cls-4" d="m66.18 130.97-5.1.26" vector-effect="non-scaling-stroke"/><path class="cls-12" d="M61.08 131.23h-3.46" vector-effect="non-scaling-stroke"/><path class="cls-4" d="m57.62 131.23-13.17.05" vector-effect="non-scaling-stroke"/><path class="cls-12" d="m44.45 131.28-3.31-.05" vector-effect="non-scaling-stroke"/><path class="cls-4" d="M41.14 131.23H27.11" vector-effect="non-scaling-stroke"/><path class="cls-12" d="m27.11 131.23-3.31.07" vector-effect="non-scaling-stroke"/><path class="cls-4" d="m23.8 131.3-12.4-.53" vector-effect="non-scaling-stroke"/><path class="cls-10" d="M23.8 131.3c-.77 1.18-1.15 2.41-1.14 3.69 0 2.23.05 4.5.14 6.82.01.33-.15.5-.49.51l-10.91.04M41.14 131.23c-.86 1.08-1.3 2.33-1.31 3.75-.03 2.65 0 4.97.13 6.94.02.33-.13.49-.46.49H28.79c-.31 0-.45-.15-.44-.46.05-.88.09-3.12.12-6.71 0-1.55-.45-2.89-1.36-4.01M57.62 131.23c-.79 3.37-1.04 6.91-.76 10.63.03.38-.15.57-.54.57H46c-.39 0-.56-.19-.52-.57.39-4.01.05-7.54-1.03-10.58M63.31 138.84c-.63-.79-.88-2.32-.76-4.59.06-1.03-.43-2.03-1.47-3.02" vector-effect="non-scaling-stroke"/><path class="cls-12" d="m60.58 148.28-33.96.02" vector-effect="non-scaling-stroke"/><path class="cls-4" d="M59.53 152.97c-.83 1.05-2.17 1.4-4.03 1.04" vector-effect="non-scaling-stroke"/><path class="cls-12" d="m55.5 154.01-3.19-.13" vector-effect="non-scaling-stroke"/><path class="cls-4" d="m52.31 153.88-14.24.02" vector-effect="non-scaling-stroke"/><path class="cls-12" d="M38.07 153.9c-.08-.02-.16-.04-.24-.07" vector-effect="non-scaling-stroke"/><path class="cls-4" d="M37.83 153.83c-6.26-.08-10.27-.1-12.03-.06-1.49.03-2.48-.48-2.95-1.51" vector-effect="non-scaling-stroke"/><path class="cls-10" d="m142.31 187.86-.29 5.74M37.83 153.83c-2.33-.14-3.51.91-3.56 3.16-.05 2.49-.09 5.03-.13 7.62 0 .33-.18.5-.52.5l-10.86.05M57.38 165.79c-.73-2.69-.95-5.62-.68-8.77.11-1.2-.29-2.2-1.2-3.01M52.31 153.88c-1.1 3.07-1.51 6.66-1.22 10.75.03.37-.15.56-.52.56H40.31c-.33 0-.51-.16-.53-.49-.1-1.65-.09-4.14.03-7.46.05-1.41-.53-2.53-1.74-3.34" vector-effect="non-scaling-stroke"/><path class="cls-12" d="m57.17 170.94-30.12-.03" vector-effect="non-scaling-stroke"/><path class="cls-8" d="M22.38 170.86H5.8" vector-effect="non-scaling-stroke"/><path class="cls-4" d="m57.03 172.68-.29 2.38c-.1.78-.76 1.38-1.54 1.38l-6.24.06" vector-effect="non-scaling-stroke"/><path class="cls-12" d="M48.96 176.5h-1.18" vector-effect="non-scaling-stroke"/><path class="cls-4" d="m47.78 176.5-15.85.02" vector-effect="non-scaling-stroke"/><path class="cls-12" d="M31.93 176.52c-.5.09-1 .08-1.51 0" vector-effect="non-scaling-stroke"/><path class="cls-4" d="m30.42 176.51-15.31.02" vector-effect="non-scaling-stroke"/><path class="cls-12" d="m15.11 176.53-2.34-.04" vector-effect="non-scaling-stroke"/><path class="cls-4" d="M12.77 176.49H.04" vector-effect="non-scaling-stroke"/><path class="cls-10" d="M55.85 187.35c-1.3.63-2.68.81-4.14.53-.33-.07-.5-.27-.49-.6.05-2.7.04-5.38-.03-8.05-.03-1.03-.77-1.94-2.23-2.73M47.78 176.5c-1.63.81-2.39 2.14-2.28 3.99.04.59.02 2.93-.06 7.01 0 .3-.16.45-.47.45H34.8c-.35 0-.53-.17-.54-.52-.09-2.49-.11-5.13-.06-7.92.03-1.25-.73-2.25-2.27-2.99M12.77 176.49c-1.34 3.09-1.8 6.72-1.39 10.91.03.31-.11.48-.43.49l-10.91.41M15.11 176.53c1.43.85 2.13 2.09 2.08 3.71-.09 2.87-.1 5.24-.03 7.12.02.39.22.59.61.59H28c.31 0 .47-.16.46-.48-.04-2.15-.03-4.98.02-8.49 0-.83.65-1.66 1.94-2.47" vector-effect="non-scaling-stroke"/><path class="cls-12" d="m53.05 193.87-37.71-.06M49.46 199.02l-8.3.25" vector-effect="non-scaling-stroke"/><path class="cls-4" d="m41.16 199.27-13.54.12" vector-effect="non-scaling-stroke"/><path class="cls-12" d="m27.62 199.39-3.58-.16" vector-effect="non-scaling-stroke"/><path class="cls-4" d="m24.04 199.23-12.62-.11" vector-effect="non-scaling-stroke"/><path class="cls-10" d="M39.86 207.36c-.59-3.15-.16-5.85 1.3-8.09M24.04 199.23c-1.33 2.95-1.8 6.57-1.43 10.84.03.31-.12.48-.43.49l-10.74.4M27.62 199.39c.82 3.4 1.15 6.98.99 10.74-.02.35.14.51.49.5l8.98-.32" vector-effect="non-scaling-stroke"/><path class="cls-12" d="m35.38 216.43-20.3-.2M34.25 222.54c-1.48-.4-3.13-.54-4.95-.43" vector-effect="non-scaling-stroke"/><path class="cls-4" d="m29.3 222.11-13.11.02" vector-effect="non-scaling-stroke"/><path class="cls-12" d="M16.19 222.13h-4.15" vector-effect="non-scaling-stroke"/><path class="cls-4" d="m12.04 222.12-12-.29" vector-effect="non-scaling-stroke"/><path class="cls-10" d="m12.04 222.12-.7 10.73c-.03.31-.2.47-.51.47l-10.79.04M16.19 222.13c.94 3.35 1.25 6.92.92 10.72-.03.33.12.5.45.5h10.48c.33 0 .47-.16.44-.49-.38-3.82-.11-7.4.82-10.75" vector-effect="non-scaling-stroke"/><path class="cls-14" d="M165.51 45.87c-.25.05-.54.06-.88.01l-15.54.02-.57-.17c-.36-.1-.42-.29-.19-.58 6.13-7.73 12.28-15.46 18.44-23.18 2.74-3.43 4.32-7.2 3.27-11.27-.18-.7-.43-1.9-.74-3.61-.49-2.64 1.26-4.51 2.32-6.64 7.6-.96 14.73 2.49 15.85 10.54.51 3.67-.36 6.93-2.62 9.79-6.47 8.19-12.97 16.36-19.5 24.51-.21.27-.16.46.16.58Z"/><path class="cls-18" d="M171.62.45c-1.06 2.13-2.81 4-2.32 6.64.31 1.71.56 2.91.74 3.61 1.05 4.07-.53 7.84-3.27 11.27-6.16 7.72-12.31 15.45-18.44 23.18-.23.29-.17.48.19.58l.57.17-2.33.05-27.45-.09c-5.55-7.02-11.05-13.95-16.49-20.8-3.25-4.09-5.16-7.09-5.73-9-1.19-3.99-.24-7.8 2.85-11.41 2.4-2.81 5.69-4.23 9.87-4.25 7.63-.04 16.27-.04 25.91 0 .44 0 .87.18 1.18.49l10.42 10.43a.477.477 0 0 0 .77-.13L153.21.87c.13-.28.41-.45.72-.45l17.69.03Z"/><path class="cls-17" d="m119.31 45.86 27.45.09c.92 1.15 1.15 2.38.7 3.69-.58 1.69-1.8 1.83-3.42 1.84-7.33 0-16.33.01-27 .02-2.97 0-4-1.73-3.07-5.2 1.25-.44 3.03-.59 5.34-.44Z"/><path class="cls-15" d="M164.63 45.88c.63 4.3-.13 8.02-2.28 11.17l-12.86.19H108.5c-1.27-5.14.56-8.79 5.47-10.94-.93 3.47.1 5.2 3.07 5.2 10.67 0 19.67-.01 27-.02 1.62 0 2.84-.15 3.42-1.84.45-1.31.22-2.54-.7-3.69l2.33-.05 15.54-.02Z"/><path class="cls-16" d="M170.32 62.53c.2-1.31.19-2.41-.03-3.32a2.537 2.537 0 0 0-2.35-1.92l-5.59-.24c2.15-3.15 2.91-6.87 2.28-11.17.34.05.63.04.88-.01 11.01-1.41 15.01 12.56 4.81 16.66Z"/><path class="cls-19" d="m162.35 57.05 5.59.24c1.12.05 2.08.83 2.35 1.92.22.91.23 2.01.03 3.32l-5.07.69h-16.47c-.33 0-.54.15-.63.47-.36 1.41-.43 2.95-.21 4.62l-.07 34.71-4.45-.18c-.73-.03-1.31-.64-1.31-1.37V69.22c0-.33-.17-.52-.5-.57-1.77-.27-3.49-.18-5.16.27.02-.37-.06-.63-.25-.78v-5.06l12.32-.04c.23 0 .41-.18.41-.41 0-.1-.04-.2-.1-.28-1.59-1.85-1.37-3.55.66-5.11l12.86-.19Z"/><path class="cls-16" d="M149.49 57.24c-2.03 1.56-2.25 3.26-.66 5.11.15.18.13.44-.04.59-.08.07-.17.1-.27.1l-12.32.04-17.15.03c-5.36.25-8.88-1.71-10.55-5.86h40.99Z"/><path class="cls-14" d="M136.2 63.08v5.06l-22.47.38 5.32-5.41 17.15-.03ZM165.25 63.22c6.9 6.78 13.69 13.42 20.37 19.93 5.81 5.66 11.32 12.08 16.53 19.25 16.1 22.21 24.53 46.92 25.3 74.13.15 5.19.59 8.99 1.33 11.39 1.41 4.56 3.64 8.32 6.68 11.28 2.23 2.17 6.08 4.89 8.31 7.56 3.26 3.91 5.35 8.44 6.27 13.61v6.58c-2.03 8.14-7.28 12.21-15.75 12.21-62.85 0-125.56.02-188.11.09-6.74-2.34-10.62-6.38-11.65-12.13 54.11.07 108.16.06 162.15-.03 6.88-.01 10.78-.11 11.69-.29 4.21-.85 7.55-3.22 10-7.13 2.85-4.53 3.13-9.18.85-13.93-1.01-2.12-3.02-3.54-4.73-5.02-5.01-4.3-8.14-9.72-9.4-16.26-.29-1.49-.37-5.99-.25-13.5.42-27.44-6.56-52.61-23.46-73.63-2.47-3.07-6.59-7.47-12.38-13.22-4.96-4.93-9.95-9.91-14.98-14.94-.29-.29-.68-.47-1.09-.5l-4.99-.36c-.22-1.67-.15-3.21.21-4.62.09-.32.3-.48.63-.48h16.47Z"/><path class="cls-18" d="M136.2 68.14c.19.15.27.41.25.78v34.09c-13.18 1.87-23.68 8.25-31.47 19.14-5.35 7.46-8.1 15.8-8.25 25.03 0 .33.05.65.18.98-.17.13-.25.34-.24.63.45 13.21 5.41 24.2 14.89 32.98.51.47 1.45 1.11 2.83 1.92 1.28.75 2.1 1.61 2.45 2.56 10.06 10.29 22.28 14.5 36.66 12.62 21.76-2.84 38.93-21.18 39.74-43.43.49-13.63-4.11-24.74-13.81-33.31-6.45-8.9-14.95-14.82-25.51-17.75a58.88 58.88 0 0 0-6.05-1.36l.07-34.71 4.99.36c.41.03.8.21 1.09.5 5.03 5.03 10.02 10.01 14.98 14.94 5.79 5.75 9.91 10.15 12.38 13.22 16.9 21.02 23.88 46.19 23.46 73.63-.12 7.51-.04 12.01.25 13.5 1.26 6.54 4.39 11.96 9.4 16.26 1.71 1.48 3.72 2.9 4.73 5.02 2.28 4.75 2 9.4-.85 13.93-2.45 3.91-5.79 6.28-10 7.13-.91.18-4.81.28-11.69.29-53.99.09-108.04.1-162.15.03l-.28-4.58 1.13-6.11 2.7-6.12 1.78-2.95 9.6-8.34 3.59-5.15 2.8-6.52c.97-4.89 1.37-9.78 1.18-14.67.15-.31.19-.89.14-1.74l.21-5.15 2.15-12.82 1.05-4.69 2.73-9.44 2.87-7.87 2.12-5.67c-.19.08-.13.04.18-.11.13-.07.22-.16.28-.29 5.95-12.74 13.2-23.72 21.76-32.94 3.71-3.99 11.44-11.81 23.21-23.44l22.47-.38Z"/><path class="cls-16" d="M147.87 103.02c2 .34 4.02.79 6.05 1.36 10.56 2.93 19.06 8.85 25.51 17.75 5.22 8.28 7.92 16.95 8.1 26l-5.7.22c-.28-19.72-13.74-36.02-33.24-39.45-.87-.15-3.02-.36-6.47-.63l-.11-4.82c0-.37-.19-.55-.55-.54l-5 .1V68.92c1.66-.45 3.38-.54 5.15-.27.33.05.5.24.5.57v32.25c0 .73.58 1.34 1.31 1.37l4.45.18Z"/><path class="cls-17" d="M142.12 108.27c-11.93.2-21.75 4.47-29.48 12.82-6.69 7.23-10.14 16.02-10.36 26.37 0 .2-.11.44-.31.71h-5.06c-.13-.34-.19-.66-.18-.99.15-9.23 2.9-17.57 8.25-25.03 7.79-10.89 18.29-17.27 31.48-19.14l5-.1c.36 0 .54.17.55.54l.11 4.82Z"/><path class="cls-15" d="M142.12 108.27c3.45.27 5.6.48 6.47.63 19.5 3.43 32.96 19.73 33.24 39.45-.63 15.93-7.7 27.59-21.2 34.98-5.33 2.92-11.44 4.43-18.32 4.53-13.79-.23-24.68-5.95-32.69-17.18-4.55-6.38-6.97-13.51-7.24-21.39-.01-.39-.15-.76-.41-1.12.2-.27.3-.51.31-.71.22-10.35 3.67-19.14 10.36-26.37 7.73-8.35 17.55-12.62 29.48-12.82Z"/><path class="cls-14" d="M116.84 186.25c8.35 4.71 16.74 7.16 25.18 7.35 3.53.03 6.75-.3 9.66-.98 20.86-4.87 35.85-22.75 35.85-44.49-.18-9.05-2.88-17.72-8.1-26 9.7 8.57 14.3 19.68 13.81 33.31-.81 22.25-17.98 40.59-39.74 43.43-14.38 1.88-26.6-2.33-36.66-12.62Z"/><path class="cls-15" d="m68.3 125.3-2.12 5.67-5.1.26h-3.46l-13.17.05-3.31-.05H27.11l-3.31.07-12.4-.53c.39-3.63 2.43-5.45 6.14-5.46 16.72-.03 33.64-.03 50.76 0Z"/><path class="cls-16" d="m11.4 130.77 12.4.53c-.77 1.18-1.15 2.41-1.14 3.69 0 2.23.05 4.5.14 6.82.01.33-.15.5-.49.51l-10.91.04v-11.59ZM41.14 131.23c-.86 1.08-1.3 2.33-1.31 3.75-.03 2.65 0 4.97.13 6.94.02.33-.13.49-.46.49H28.79c-.31 0-.45-.15-.44-.46.05-.88.09-3.12.12-6.71 0-1.55-.45-2.89-1.36-4.01h14.03ZM57.62 131.23c-.79 3.37-1.04 6.91-.76 10.63.03.38-.15.57-.54.57H46c-.39 0-.56-.19-.52-.57.39-4.01.05-7.54-1.03-10.58l13.17-.05ZM66.18 130.97l-2.87 7.87c-.63-.79-.88-2.32-.76-4.59.06-1.03-.43-2.03-1.47-3.02l5.1-.26Z"/><path class="cls-19" d="M27.11 131.23c.91 1.12 1.37 2.46 1.36 4.01-.03 3.59-.07 5.83-.12 6.71-.01.31.13.46.44.46H39.5c.33 0 .48-.16.46-.49-.12-1.97-.16-4.29-.13-6.94.01-1.42.45-2.67 1.31-3.75l3.31.05c1.08 3.04 1.42 6.57 1.03 10.58-.04.38.13.57.52.57h10.32c.39 0 .57-.19.54-.57-.28-3.72-.03-7.26.76-10.63h3.46c1.04.99 1.53 1.99 1.47 3.02-.12 2.27.13 3.8.76 4.59l-2.73 9.44-33.96.02c-3.25-.07-6.44-.15-9.57-.23-3.63-.1-5.52-2-5.65-5.71l10.91-.04c.34 0 .5-.18.49-.51-.09-2.32-.13-4.59-.14-6.82 0-1.28.37-2.51 1.14-3.69l3.31-.07Z"/><path class="cls-15" d="m60.58 148.28-1.05 4.69c-.83 1.05-2.17 1.4-4.03 1.04l-3.19-.13-14.24.02c-.08-.02-.16-.04-.24-.07-6.26-.08-10.27-.1-12.03-.06-1.49.03-2.48-.48-2.95-1.51.49-1.78 1.75-3.1 3.77-3.96l33.96-.02Z"/><path class="cls-16" d="M101.97 148.17c.26.36.4.73.41 1.12.27 7.88 2.69 15.01 7.24 21.39 8.01 11.23 18.9 16.95 32.69 17.18l-.29 5.74c-8.44-.19-16.83-2.64-25.18-7.35-.35-.95-1.17-1.81-2.45-2.56-1.38-.81-2.32-1.45-2.83-1.92-9.48-8.78-14.44-19.77-14.89-32.98 0-.29.07-.5.24-.63h5.06Z"/><path class="cls-19" d="M187.53 148.13c0 21.74-14.99 39.62-35.85 44.49-2.91.68-6.13 1.01-9.66.98l.29-5.74c6.88-.1 12.99-1.61 18.32-4.53 13.5-7.39 20.57-19.05 21.2-34.98l5.7-.22Z"/><path class="cls-16" d="M22.85 152.26c.47 1.03 1.46 1.54 2.95 1.51 1.76-.04 5.77-.02 12.03.06-2.33-.14-3.51.91-3.56 3.16-.05 2.49-.09 5.03-.13 7.62 0 .33-.18.5-.52.5l-10.86.05.09-12.9ZM59.53 152.97l-2.15 12.82c-.73-2.69-.95-5.62-.68-8.77.11-1.2-.29-2.2-1.2-3.01 1.86.36 3.2.01 4.03-1.04ZM52.31 153.88c-1.1 3.07-1.51 6.66-1.22 10.75.03.37-.15.56-.52.56H40.31c-.33 0-.51-.16-.53-.49-.1-1.65-.09-4.14.03-7.46.05-1.41-.53-2.53-1.74-3.34l14.24-.02Z"/><path class="cls-19" d="M37.83 153.83c.08.03.16.05.24.07 1.21.81 1.79 1.93 1.74 3.34-.12 3.32-.13 5.81-.03 7.46.02.33.2.49.53.49h10.26c.37 0 .55-.19.52-.56-.29-4.09.12-7.68 1.22-10.75l3.19.13c.91.81 1.31 1.81 1.2 3.01-.27 3.15-.05 6.08.68 8.77l-.21 5.15-30.12-.03c-2.8-.89-4.23-2.8-4.29-5.75l10.86-.05c.34 0 .51-.17.52-.5.04-2.59.08-5.13.13-7.62.05-2.25 1.23-3.3 3.56-3.16Z"/><path class="cls-18" d="M22.38 170.86H5.8h16.58Z"/><path class="cls-15" d="m27.05 170.91 30.12.03c.05.85 0 1.43-.14 1.74l-.29 2.38c-.1.78-.76 1.38-1.54 1.38l-6.24.06h-1.18l-15.85.02c-.5.09-1 .08-1.51 0l-15.31.02-2.34-.04H.04v-1.39c.85-2.77 2.77-4.18 5.76-4.23h16.58l4.67.04Z"/><path class="cls-16" d="M57.03 172.68c.19 4.89-.21 9.78-1.18 14.67-1.3.63-2.68.81-4.14.53-.33-.07-.5-.27-.49-.6.05-2.7.04-5.38-.03-8.05-.03-1.03-.77-1.94-2.23-2.73l6.24-.06c.78 0 1.44-.6 1.54-1.38l.29-2.38ZM47.78 176.5c-1.63.81-2.39 2.14-2.28 3.99.04.59.02 2.93-.06 7.01 0 .3-.16.45-.47.45H34.8c-.35 0-.53-.17-.54-.52-.09-2.49-.11-5.13-.06-7.92.03-1.25-.73-2.25-2.27-2.99l15.85-.02ZM12.77 176.49c-1.34 3.09-1.8 6.72-1.39 10.91.03.31-.11.48-.43.49l-10.91.41v-11.8h12.73Z"/><path class="cls-19" d="M15.11 176.53c1.43.85 2.13 2.09 2.08 3.71-.09 2.87-.1 5.24-.03 7.12.02.39.22.59.61.59H28c.31 0 .47-.16.46-.48-.04-2.15-.03-4.98.02-8.49 0-.83.65-1.66 1.94-2.47.51.09 1.01.1 1.51 0 1.54.74 2.3 1.74 2.27 2.99-.05 2.79-.03 5.43.06 7.92 0 .35.19.52.54.52h10.17c.31 0 .46-.15.47-.45.08-4.08.1-6.42.06-7.01-.11-1.85.65-3.18 2.28-3.99h1.18c1.46.79 2.2 1.7 2.23 2.73.07 2.67.08 5.35.03 8.05 0 .33.16.53.49.6 1.46.28 2.84.1 4.14-.53l-2.8 6.52-37.71-.06c-3.08-.18-6.18-.25-9.29-.21-3.12.03-5.12-1.37-6.01-4.22v-1.08l10.91-.41c.32-.01.46-.18.43-.49-.41-4.19.05-7.82 1.39-10.91l2.34.04Z"/><path class="cls-16" d="M30.42 176.51c-1.29.81-1.93 1.64-1.94 2.47-.05 3.51-.06 6.34-.02 8.49 0 .32-.15.48-.46.48H17.77c-.39 0-.59-.2-.61-.59-.07-1.88-.06-4.25.03-7.12.05-1.62-.65-2.86-2.08-3.71l15.31-.02Z"/><path class="cls-15" d="m53.05 193.87-3.59 5.15-8.3.25-13.54.12-3.58-.16-12.62-.11c.11-2.8 1.41-4.57 3.92-5.31l37.71.06Z"/><path class="cls-19" d="m49.46 199.02-9.6 8.34c-.59-3.15-.16-5.85 1.3-8.09l8.3-.25Z"/><path class="cls-16" d="m11.42 199.12 12.62.11c-1.33 2.95-1.8 6.57-1.43 10.84.03.31-.12.48-.43.49l-10.74.4-.02-11.84Z"/><path class="cls-19" d="M27.62 199.39c.82 3.4 1.15 6.98.99 10.74-.02.35.14.51.49.5l8.98-.32-2.7 6.12-20.3-.2c-2.41-1.25-3.63-3.01-3.64-5.27l10.74-.4c.31-.01.46-.18.43-.49-.37-4.27.1-7.89 1.43-10.84l3.58.16Z"/><path class="cls-16" d="M41.16 199.27c-1.46 2.24-1.89 4.94-1.3 8.09l-1.78 2.95-8.98.32c-.35.01-.51-.15-.49-.5.16-3.76-.17-7.34-.99-10.74l13.54-.12Z"/><path class="cls-15" d="m15.08 216.23 20.3.2-1.13 6.11c-1.48-.4-3.13-.54-4.95-.43l-13.11.02h-4.15l-12-.3v-1.25c.97-2.99 3.13-4.46 6.5-4.39 2.45.05 5.29.07 8.54.04Z"/><path class="cls-16" d="m12.04 222.12-.7 10.73c-.03.31-.2.47-.51.47l-10.79.04v-11.53l12 .29Z"/><path class="cls-19" d="M16.19 222.13c.94 3.35 1.25 6.92.92 10.72-.03.33.12.5.45.5h10.48c.33 0 .47-.16.44-.49-.38-3.82-.11-7.4.82-10.75 1.82-.11 3.47.03 4.95.43l.28 4.58c1.03 5.75 4.91 9.79 11.65 12.13-13.45-.09-26.74-.12-39.89-.09-3.14 0-5.22-1.39-6.25-4.19v-1.61l10.79-.04c.31 0 .48-.16.51-.47l.7-10.73h4.15Z"/><path class="cls-16" d="M29.3 222.11c-.93 3.35-1.2 6.93-.82 10.75.03.33-.11.49-.44.49H17.56c-.33 0-.48-.17-.45-.5.33-3.8.02-7.37-.92-10.72l13.11-.02Z"/><path class="cls-18" d="M142.8 119.73c.49.07.99.12 1.49.16.66.05 1.15.1 1.48.15 6.92 1.09 12.7 4.26 17.35 9.51.09.11.15.09.16-.05.06-.51.18-1.73.37-3.66.09-.89.47-1.56 1.14-2 1.35-.89 3.17-.17 3.58 1.36.09.33.08.96-.04 1.89-.34 2.8-.69 5.71-1.06 8.74-.12.96-.32 1.63-.61 2.03-.6.82-1.52 1.08-2.76.79-3.06-.7-6.1-1.4-9.13-2.11-1.36-.32-2.16-.44-2.72-1.62-.48-1.02-.12-2.15.74-2.85.57-.46 1.34-.58 2.32-.34.31.07 1.69.4 4.15.97.17.04.2 0 .08-.13-3.87-4.33-8.69-6.92-14.46-7.79-2.49-.37-5.14-.27-7.94.31-1.53.32-3.08.83-4.64 1.55-5.2 2.38-9.15 6.13-11.84 11.26-.02.04-.05.06-.1.04l-4.52-1.24s-.08-.06-.06-.11v-.01c3.19-6.68 8.19-11.52 15-14.51 2.76-1.21 5.68-1.98 8.69-2.18.49-.03.97-.08 1.46-.15h1.86ZM142.87 176.59h-1.6c-8.23-.45-15.07-3.74-20.53-9.86a.063.063 0 0 0-.09 0c-.01 0-.02.02-.02.04-.1.91-.25 2.16-.45 3.77-.09.72-.36 1.29-.8 1.7-.41.38-.95.57-1.64.59-1.26.02-2.05-.71-2.39-2.19v-.45c.44-3.26.86-6.51 1.26-9.76.12-.95.32-1.61.6-1.99.39-.51.92-.79 1.59-.85.31-.03.88.06 1.71.25 3.92.89 7.09 1.61 9.51 2.15 1.76.39 2.65 2.3 1.5 3.82-.37.49-.84.79-1.41.89-.32.06-.85 0-1.58-.16-.92-.21-2.22-.51-3.88-.9-.18-.04-.21 0-.09.14 4.24 4.79 10.34 7.73 16.78 7.95 4.78.16 9.24-1.08 13.39-3.72 3.76-2.39 6.65-5.58 8.69-9.57.02-.03.05-.05.09-.04l4.48 1.22c.1.03.12.09.08.18-3.22 6.7-8.25 11.55-15.11 14.53-2.38 1.04-4.91 1.7-7.58 1.99l-2.52.27Z"/></g></svg>